<?xml version="1.0" encoding="iso-8859-1"?>
<!-- Generator: Adobe Illustrator 19.0.0, SVG Export Plug-In . SVG Version: 6.00 Build 0)  -->
<svg version="1.1" id="Layer_1" xmlns="http://www.w3.org/2000/svg" xmlns:xlink="http://www.w3.org/1999/xlink" x="0px" y="0px"
	 viewBox="-49 220.451 570 353.098" style="enable-background:new -49 220.451 570 353.098;" xml:space="preserve">
<path style="fill:#306FC5;" d="M521,543.282c0,16.716-15.085,30.267-33.693,30.267H-15.307C-33.915,573.55-49,559.997-49,543.282
	V250.717c0-16.715,15.085-30.266,33.693-30.266h502.613c18.609,0,33.693,13.551,33.693,30.266L521,543.282L521,543.282z"/>
<path style="opacity:0.15;fill:#202121;enable-background:new    ;" d="M-27.483,543.282V250.717
	c0-16.715,13.552-30.266,30.267-30.266h-21.52c-16.715,0-30.265,13.55-30.265,30.266v292.565c0,16.716,13.55,30.267,30.265,30.267
	h21.52C-13.93,573.55-27.483,559.997-27.483,543.282z"/>
<g>
	<polygon style="fill:#FFFFFF;" points="31.943,363.068 49.001,363.068 40.474,341.359 	"/>
	<polygon style="fill:#FFFFFF;" points="122.657,435.946 122.657,446.027 151.346,446.027 151.346,456.884 122.657,456.884 
		122.657,468.517 154.446,468.517 169.177,452.231 155.222,435.946 	"/>
	<polygon style="fill:#FFFFFF;" points="346.726,341.359 337.421,363.068 355.256,363.068 	"/>
	<polygon style="fill:#FFFFFF;" points="205.619,474.713 205.619,430.52 185.459,452.231 	"/>
	<path style="fill:#FFFFFF;" d="M243.61,442.927c-0.776-4.652-3.881-6.981-8.535-6.981h-16.278v13.956h17.059
		C240.507,449.903,243.61,447.578,243.61,442.927z"/>
	<path style="fill:#FFFFFF;" d="M297.878,448.355c1.551-0.777,2.33-3.105,2.33-5.427c0.776-3.099-0.778-4.652-2.33-5.428
		c-1.546-0.776-3.876-0.776-6.198-0.776h-15.51v12.407h15.509C294.001,449.131,296.331,449.131,297.878,448.355z"/>
	<path style="fill:#FFFFFF;" d="M409.524,321.199v9.304l-4.649-9.304h-36.437v9.304l-4.654-9.304h-49.621
		c-8.527,0-15.509,1.553-21.709,4.653v-4.653h-34.888v0.776v3.877c-3.876-3.1-8.528-4.653-14.73-4.653H118.007l-8.532,19.383
		l-8.526-19.383H73.037H61.406v9.304l-3.877-9.304h-0.776H23.415L7.907,357.638l-17.831,39.541l-0.328,0.777h0.328h39.542h0.495
		l0.28-0.777l4.654-11.628h10.079l4.652,12.405h44.964v-0.777v-8.526l3.88,9.303h22.482l3.875-9.303v8.526v0.777h17.833h89.163
		h0.776v-20.16h1.554c1.549,0,1.549,0,1.549,2.327v17.056h55.824v-4.652c4.652,2.33,11.625,4.652,20.931,4.652h23.263l4.652-12.402
		h10.852l4.652,12.402h44.967v-7.752v-3.876l6.981,11.628h1.546h0.778h34.115v-75.982h-34.891V321.199z M146.692,386.329h-7.756
		h-4.65v-4.649v-37.996l-0.776,1.778v-0.021l-18.037,40.888h-0.571h-4.146h-6.709l-18.606-42.645v42.645H59.081l-5.427-11.63H27.29
		l-5.429,11.63H8.233l22.936-54.274h19.382l21.709,51.946v-51.946h4.65h15.891l0.366,0.777h0.027l9.782,21.291l7.025,15.952
		l0.248-0.804l15.506-37.214h20.935v54.273H146.692z M200.192,343.685h-30.239v10.079h29.462v10.853h-29.462v10.858h30.239v11.626
		h-43.418v-55.046h43.418L200.192,343.685L200.192,343.685z M255.492,363.677c0.02,0.017,0.046,0.03,0.071,0.047
		c0.293,0.31,0.544,0.621,0.758,0.918c1.486,1.947,2.686,4.843,2.747,9.088c0.005,0.073,0.007,0.146,0.012,0.22
		c0,0.042,0.007,0.079,0.007,0.123c0,0.025-0.002,0.043-0.002,0.067c0.017,0.427,0.029,0.863,0.029,1.334v10.855h-11.628v-6.205
		c0-3.101,0-7.754-2.33-10.855c-0.732-0.732-1.474-1.215-2.281-1.559c-1.162-0.752-3.365-0.764-7.02-0.764h-13.96v19.383h-13.178
		v-54.274h29.465c6.974,0,11.628,0,15.506,2.326c3.799,2.281,6.094,6.065,6.181,12.056c-0.18,8.251-5.476,12.778-9.283,14.305
		C250.586,360.742,253.172,361.263,255.492,363.677z M281.6,386.329h-13.182v-54.274H281.6V386.329z M432.791,386.329h-17.06
		l-24.809-41.095v34.115l-0.082-0.081v7.094h-13.098v-0.032H364.56l-4.652-11.63h-27.139l-4.652,12.402h-14.73
		c-6.198,0-13.957-1.549-18.606-6.2c-4.652-4.652-6.976-10.855-6.976-20.932c0-7.753,1.549-15.511,6.976-21.712
		c3.873-4.655,10.855-6.202,19.382-6.202h12.408v11.629h-12.408c-4.652,0-6.974,0.773-10.081,3.103
		c-2.322,2.325-3.873,6.976-3.873,12.402c0,6.204,0.776,10.08,3.873,13.18c2.332,2.329,5.43,3.105,9.306,3.105h5.427l17.831-42.642
		h7.757h11.628l21.712,51.946v-2.65v-17.512v-1.549v-30.235h19.382l22.48,37.99v-37.99h13.187v53.496H432.791z"/>
	<path style="fill:#FFFFFF;" d="M244.436,354.659c0.226-0.242,0.432-0.516,0.606-0.83c0.702-1.112,1.508-3.114,1.074-5.847
		c-0.017-0.251-0.063-0.483-0.117-0.707c-0.015-0.062-0.012-0.117-0.029-0.18l-0.007,0.001c-0.386-1.328-1.37-2.145-2.353-2.64
		c-1.554-0.773-3.881-0.773-6.205-0.773h-15.509v12.407h15.509c2.325,0,4.652,0,6.205-0.777c0.233-0.118,0.441-0.279,0.64-0.46
		l0.002,0.01C244.253,354.863,244.332,354.78,244.436,354.659z"/>
	<path style="fill:#FFFFFF;" d="M478.531,463.862c0-5.427-1.549-10.856-3.873-14.732v-34.888h-0.036v-2.329c0,0-32.498,0-37.334,0
		c-4.835,0-10.702,4.65-10.702,4.65v-4.65h-35.664c-5.43,0-12.403,1.553-15.509,4.65v-4.65h-63.575v2.329v2.321
		c-4.649-3.873-13.184-4.65-17.057-4.65h-41.868v2.329v2.321c-3.876-3.873-13.184-4.65-17.838-4.65h-46.513l-10.857,11.631
		l-10.08-11.631h-3.245h-5.282H97.848v2.329v6.125v69.858h68.229l11.211-11.214l9.718,11.214h0.778h39.314h1.782h0.776h0.772v-7.753
		v-10.079h3.88c5.422,0,12.403,0,17.831-2.33v19.382V491h34.891v-1.554v-18.605h1.546c2.33,0,2.33,0,2.33,2.326v16.279V491h105.441
		c6.984,0,13.957-1.554,17.833-4.655v3.101V491h33.342c6.974,0,13.957-0.774,18.609-3.878c7.139-4.283,11.638-11.863,12.307-20.906
		c0.031-0.268,0.071-0.535,0.094-0.804l-0.046-0.043C478.511,464.865,478.531,464.369,478.531,463.862z M234.306,459.212h-15.51
		v2.321v4.654v4.653v8.529h-25.484L178.48,462.31l-0.051,0.057l-0.725-0.834l-17.056,17.836h-49.62v-54.273h50.397l13.769,15.08
		l2.894,3.157l0.392-0.407l16.284-17.831h41.091c7.975,0,16.905,1.968,20.289,10.083c0.407,1.607,0.643,3.393,0.643,5.422
		C256.786,456.108,245.932,459.212,234.306,459.212z M311.838,458.435c1.549,2.321,2.325,5.427,2.325,10.081v10.852h-13.179v-6.976
		c0-3.106,0-8.53-2.33-10.859c-1.546-2.321-4.652-2.321-9.301-2.321h-13.955v20.156H262.22V424.32h29.461
		c6.198,0,11.625,0,15.509,2.323c3.873,2.328,6.974,6.205,6.974,12.408c0,8.526-5.425,13.179-9.303,14.732
		C308.738,455.329,311.063,456.884,311.838,458.435z M365.338,435.946h-30.242v10.08h29.463v10.857h-29.463v10.856h30.242v11.629
		H321.92v-55.048h43.418V435.946z M397.899,479.369h-24.812V467.74h24.812c2.322,0,3.876,0,5.43-1.553
		c0.776-0.777,1.546-2.325,1.546-3.877c0-1.554-0.771-3.098-1.546-3.875c-0.778-0.774-2.332-1.551-4.657-1.551
		c-12.406-0.776-27.136,0-27.136-17.055c0-7.754,4.652-16.284,18.609-16.284h25.585v13.179h-24.034c-2.325,0-3.878,0-5.43,0.776
		c-1.546,0.777-1.546,2.33-1.546,3.878c0,2.327,1.546,3.103,3.098,3.872c1.554,0.777,3.103,0.777,4.652,0.777h6.979
		c6.979,0,11.63,1.551,14.73,4.653c2.327,2.327,3.878,6.204,3.878,11.63C418.056,473.938,411.078,479.369,397.899,479.369z
		 M464.576,473.938c-3.098,3.105-8.527,5.431-16.284,5.431h-24.804V467.74h24.804c2.327,0,3.881,0,5.43-1.553
		c0.773-0.777,1.551-2.325,1.551-3.877c0-1.554-0.778-3.098-1.551-3.875c-0.776-0.774-2.325-1.551-4.652-1.551
		c-12.401-0.776-27.136,0-27.136-17.055c0-7.37,4.216-14.025,14.614-16.003c1.244-0.171,2.557-0.282,3.995-0.282h25.587v13.179
		h-17.06h-6.2h-0.776c-2.327,0-3.876,0-5.425,0.776c-0.781,0.777-1.556,2.33-1.556,3.878c0,2.327,0.776,3.103,3.105,3.872
		c1.549,0.777,3.1,0.777,4.652,0.777h0.771h6.205c3.388,0,5.951,0.418,8.295,1.242c2.147,0.777,9.257,3.958,10.847,12.258
		c0.138,0.87,0.24,1.777,0.24,2.783C469.228,466.964,467.676,470.84,464.576,473.938z"/>
</g>
<image style="display:none;overflow:visible;" width="64" height="39" xlink:href="../american.png"  transform="matrix(8.9063 0 0 9.0625 -49 220.4514)">
</image>
</svg>
