<?xml version="1.0" encoding="iso-8859-1"?>
<!-- Generator: Adobe Illustrator 19.0.0, SVG Export Plug-In . SVG Version: 6.00 Build 0)  -->
<svg version="1.1" id="Layer_1" xmlns="http://www.w3.org/2000/svg" xmlns:xlink="http://www.w3.org/1999/xlink" x="0px" y="0px"
	 viewBox="-49 220.451 570 353.098" style="enable-background:new -49 220.451 570 353.098;" xml:space="preserve">
<path style="fill:#084D95;" d="M521,543.282c0,16.716-15.085,30.267-33.693,30.267H-15.307C-33.915,573.55-49,559.997-49,543.282
	V250.717c0-16.715,15.085-30.266,33.693-30.266h502.613c18.609,0,33.693,13.551,33.693,30.266L521,543.282L521,543.282z"/>
<g>
	<path style="fill:#FFFFFF;" d="M172.759,333.372c0,19.84,12.161,36.481,29.442,42.879v-85.758
		C184.92,296.892,172.759,313.533,172.759,333.372L172.759,333.372z M172.759,333.372"/>
	<path style="fill:#FFFFFF;" d="M234.838,290.493v85.758c17.281-6.398,29.441-23.679,29.441-42.879
		C264.279,313.533,252.119,296.892,234.838,290.493L234.838,290.493z M234.838,290.493"/>
	<path style="fill:#FFFFFF;" d="M234.838,376.251c17.281-6.398,29.441-23.679,29.441-42.879"/>
	<path style="fill:#FFFFFF;" d="M255.959,254.013h-37.121c-44.161,0-80,32.641-80,80c0,43.52,35.839,78.719,80,78.719h37.121
		c43.519,0,83.199-35.199,83.199-78.719C338.517,286.654,298.838,254.013,255.959,254.013L255.959,254.013z M218.838,405.693
		c-40.321,0-72.321-32.641-72.321-72.321c0-40.32,32.641-72.961,72.321-72.961c40.32,0,72.961,32.641,72.961,72.961
		C291.158,373.693,258.517,405.693,218.838,405.693L218.838,405.693z M218.838,405.693"/>
	<path style="fill:#FFFFFF;" d="M56.92,467.134c0,6.399,4.48,7.039,8.961,7.039c17.918,0,24.32-13.441,24.32-26.238
		c0-16-10.242-26.883-26.242-26.883c-3.2,0-5.121,0-6.399,0.641v45.441H56.92z M48.599,427.454c0-7.679-3.84-7.043-7.679-7.043
		v-1.918h24.32c21.758,0,33.277,14.719,33.277,29.442c0,8.316-5.117,29.437-34.558,29.437h-23.68v-1.918
		c5.121-0.64,7.68-0.64,7.68-6.402v-41.598H48.599z M48.599,427.454"/>
	<path style="fill:#FFFFFF;" d="M111.318,425.533c-1.918,0-3.84-1.918-3.84-4.481c0-1.918,1.922-3.84,3.84-3.84
		c1.922,0,3.84,1.922,3.84,3.84C115.158,423.615,113.24,425.533,111.318,425.533 M102.357,474.814h1.922c2.559,0,3.84,0,3.84-2.563
		v-23.039c0-3.84-1.281-4.48-4.481-5.758v-1.281c3.84-1.281,8.321-2.558,8.961-3.199c0.641-0.641,1.282-0.641,1.282-0.641
		c0.636,0,0.636,0.641,0.636,1.282v32c0,2.558,1.922,2.558,4.481,2.558h1.281v1.918h-17.922V474.814z M102.357,474.814"/>
	<path style="fill:#FFFFFF;" d="M127.959,449.853c0-3.199-0.641-3.84-5.121-5.762v-1.277c3.839-1.281,7.043-2.563,10.882-3.84
		c0,0,0.637,0,0.637,0.641v5.757c4.481-3.199,8.961-6.398,14.723-6.398c7.039,0,9.597,5.117,9.597,11.519v21.758
		c0,2.563,1.922,2.563,4.481,2.563h1.281v1.918h-17.922v-1.918h1.282c2.558,0,3.839,0,3.839-2.563v-21.758
		c0-4.48-3.199-7.039-7.679-7.039c-2.559,0-7.039,1.918-9.602,3.84v24.957c0,2.563,1.922,2.563,4.481,2.563h1.281v1.918h-17.918
		v-1.918h1.918c2.558,0,3.84,0,3.84-2.563V449.853z M127.959,449.853"/>
	<path style="fill:#FFFFFF;" d="M185.56,451.134c1.918,0,2.559-1.281,2.559-1.922c0-4.48-2.559-7.679-7.039-7.679
		c-5.121,0-8.961,3.839-9.602,9.601H185.56z M170.838,453.693v5.121c0.64,7.679,5.761,14.719,12.16,14.719
		c4.48,0,8.32-2.559,11.519-5.758l1.282,1.277c-3.84,5.121-8.961,9.602-15.36,9.602c-13.441,0-16-12.801-16-18.563
		c0-16.637,10.879-21.117,16.641-21.117c7.039,0,14.078,4.48,14.078,13.437v1.282H170.838z M170.838,453.693"/>
	<path style="fill:#FFFFFF;" d="M197.08,474.814h2.558c2.563,0,3.84,0,3.84-2.563v-23.679c0-2.559-3.199-3.2-4.48-3.84v-1.278
		c6.402-2.562,9.601-4.48,10.242-4.48c0.641,0,0.641,0,0.641,1.277v7.684c1.918-3.203,5.757-8.32,10.878-8.32
		c1.918,0,4.481,1.277,4.481,4.476c0,2.563-1.281,4.481-3.84,4.481c-2.562,0-2.562-1.918-5.762-1.918
		c-1.281,0-6.398,1.918-6.398,7.039v19.84c0,2.558,1.918,2.558,3.84,2.558h4.48v1.922h-21.761v-3.199H197.08z M197.08,474.814"/>
	<path style="fill:#FFFFFF;" d="M229.72,465.212c1.278,5.762,4.481,10.242,10.879,10.242c5.121,0,7.039-3.203,7.039-5.761
		c0-9.602-18.558-6.399-18.558-20.481c0-4.48,3.84-10.879,12.801-10.879c2.558,0,6.398,0.641,9.597,2.559l0.641,8.32h-1.918
		c-0.641-5.121-3.844-8.32-8.961-8.32c-3.199,0-6.402,1.922-6.402,5.762c0,9.597,19.203,7.039,19.203,19.839
		c0,5.758-4.481,11.52-14.723,11.52c-3.199,0-7.039-1.281-10.238-2.559l-0.641-9.601L229.72,465.212z M229.72,465.212"/>
	<path style="fill:#FFFFFF;" d="M329.56,433.212h-1.922c-1.281-9.597-8.32-13.437-17.918-13.437
		c-9.601,0-23.679,6.398-23.679,26.879c0,16.64,12.16,28.8,24.957,28.8c8.32,0,15.359-5.761,16.64-14.722l1.922,0.64l-1.922,12.161
		c-3.839,1.921-12.8,4.48-18.558,4.48c-19.84,0-32-12.801-32-31.359c0-17.282,15.359-29.442,32-29.442
		c7.039,0,13.437,1.922,19.84,4.481L329.56,433.212z M329.56,433.212"/>
	<path style="fill:#FFFFFF;" d="M332.759,474.814h1.282c2.558,0,3.84,0,3.84-2.563v-46.718c0-5.758-1.282-5.758-4.481-6.399v-1.281
		c3.199-1.281,7.039-2.559,8.957-3.84c0.641-0.641,1.281-0.641,1.922-0.641s0.641,0.641,0.641,1.282v58.238
		c0,2.562,1.918,2.562,4.48,2.562h1.277v1.918h-17.918V474.814z M332.759,474.814"/>
	<path style="fill:#FFFFFF;" d="M386.517,472.251c0,1.282,0.641,1.282,2.563,1.282h3.199v1.921
		c-3.84,0.637-10.238,1.918-12.16,2.559h-0.641v-7.039c-5.121,3.84-8.961,7.039-14.719,7.039c-4.48,0-8.96-3.199-8.96-10.238
		v-21.762c0-1.922-0.641-4.48-5.122-4.48v-1.282c3.204,0,9.602-0.636,10.883-0.636c0.641,0,0.641,0.636,0.641,2.558v21.762
		c0,2.558,0,9.598,7.039,9.598c2.559,0,6.398-1.918,10.238-5.122v-22.398c0-1.922-3.84-2.559-7.039-3.199v-1.281
		c7.68-0.641,12.16-1.282,12.801-1.282c0.641,0,0.641,0.641,0.641,1.282v30.718H386.517z M386.517,472.251"/>
	<path style="fill:#FFFFFF;" d="M403.158,467.134c0,3.199,3.199,8.32,8.961,8.32c8.961,0,12.801-8.961,12.801-16
		c0-8.961-7.039-16.64-13.442-16.64c-3.199,0-5.758,1.918-7.679,3.84v20.48H403.158z M403.158,444.732
		c3.199-2.559,7.68-5.758,12.801-5.758c9.601,0,15.359,8.32,15.359,17.918c0,10.883-8.32,21.762-19.84,21.762
		c-6.398,0-9.597-1.922-11.519-3.2l-2.559,1.918l-1.922-0.64c0.641-5.117,1.281-9.598,1.281-14.719v-35.84
		c0-5.762-1.281-5.762-4.48-6.398v-1.282c3.199-1.281,7.039-2.558,8.961-3.839c0.641-0.641,1.277-0.641,1.918-0.641
		s0.641,0.641,0.641,1.281v29.438H403.158z M403.158,444.732"/>
	<path style="fill:#FFFFFF;" d="M40.92,525.372h0.64c1.918,0,3.199,0,3.199-2.558v-23.68c0-2.562-1.921-2.562-3.199-2.562h-0.64
		v-1.278h14.078v1.278h-0.641c-1.918,0-3.199,0-3.199,2.562v23.68c0,2.558,1.281,2.558,3.199,2.558h0.641v1.282H41.56v-1.282H40.92z
		 M40.92,525.372"/>
	<path style="fill:#FFFFFF;" d="M54.998,526.654v-1.282h-0.641c-1.918,0-3.84,0-3.84-2.558v-23.68c0-2.562,1.922-2.562,3.84-2.562
		h0.641v-1.278H41.56v1.278h0.641c1.918,0,3.84,0,3.84,2.562v23.68c0,2.558-1.922,2.558-3.84,2.558H41.56v1.282H54.998
		 M54.998,527.294H41.56v-1.922h0.641c1.918,0,3.199,0,3.199-2.558v-23.68c0-2.562-1.281-2.562-3.199-2.562H40.92v-1.278h14.078
		v1.278h-0.641c-1.918,0-3.199,0-3.199,2.562v23.68c0,2.558,1.281,2.558,3.199,2.558h0.641V527.294z M54.998,527.294"/>
	<path style="fill:#FFFFFF;" d="M86.357,517.693v-17.282c0-3.839-2.558-4.476-3.84-4.476H81.24v-1.281H93.4v1.281h-0.641
		c-1.921,0-3.839,0.637-3.839,5.758v24.961h-1.922l-23.68-26.243v18.563c0,3.84,0.641,5.117,4.481,5.117h0.64v1.281h-12.16h0.641
		c3.199,0,3.839-1.918,3.839-5.757v-19.204c0-2.558-1.921-3.839-3.839-3.839v-1.278h8.961L86.357,517.693z M86.357,517.693"/>
	<path style="fill:#FFFFFF;" d="M86.357,517.693L86.357,517.693z M86.357,517.693L86.357,517.693z M86.998,527.294h1.281v-24.961
		c0-5.761,2.559-5.761,4.48-5.761H93.4v-1.278H81.881v1.278h0.636c1.282,0,4.481,0.64,4.481,4.48v17.281l-20.481-23.039H57.56v1.278
		h0.641c1.918,0,4.476,1.921,4.476,4.48v19.199c0,3.84-1.277,5.762-4.476,5.762H57.56v1.281h11.52v-1.281h-1.281
		c-3.84,0-4.481-1.281-4.481-5.762v-19.199L86.998,527.294z M88.92,527.935h-1.922l-23.039-25.602v18.559
		c0,3.84,0.64,5.121,3.84,5.121h1.281v1.281H56.92v-1.922h0.64c3.199,0,3.84-1.918,3.84-5.757v-19.204
		c0-2.558-1.922-3.839-3.84-3.839h-1.281v-1.278h9.602l19.839,22.399v-16.641c0-3.84-2.562-3.84-3.839-3.84H81.24v-1.277H93.4v1.277
		h-0.641c-1.921,0-3.839,0-3.839,5.762V527.935z M88.92,527.935"/>
	<path style="fill:#FFFFFF;" d="M100.439,497.212c-3.199,0-3.84,0.641-4.48,3.84h-1.282c0-1.277,0.641-2.559,0.641-3.84v-3.84h1.281
		c0.641,1.282,1.282,1.282,2.559,1.282h23.68c1.281,0,2.562,0,2.562-1.282h1.277c0,1.282-0.636,2.563-0.636,3.84v3.84l-1.282,0.641
		c0-1.918,0-4.481-3.199-4.481h-7.679v24.321c0,3.199,1.277,3.839,3.839,3.839h0.637v1.282h-15.359v-1.282h0.64
		c2.563,0,3.84,0,3.84-3.839v-24.321H100.439z M100.439,497.212"/>
	<path style="fill:#FFFFFF;" d="M118.357,527.294h-15.359v-1.922h0.64c2.563,0,3.84,0,3.84-3.839v-24.321h-7.039h7.68v24.321
		c0,3.839-1.281,3.839-3.84,3.839h-0.641v1.282h7.68C113.24,526.654,116.439,526.654,118.357,527.294v-1.281h-0.637
		c-1.921,0-3.839-0.641-3.839-3.84v-24.32h7.679c3.199,0,3.199,2.558,3.84,4.48l1.277-0.64v-3.84c0-1.281,0-2.559,0.641-3.199
		h-0.641c0,1.281-1.277,1.281-2.558,1.281h-23.68c-1.281,0-2.558,0-2.558-1.281h-1.922v3.839c0,1.282-0.641,2.559-0.641,3.84h1.281
		c0.641-3.199,1.282-4.48,4.481-3.84c-3.199,0-3.199,0.641-3.84,3.84h-2.563c0-1.281,0.641-2.558,0.641-3.84v-3.839h1.281
		c0,1.281,1.282,1.281,2.559,1.281h23.68c1.281,0,1.921,0,2.562-1.281h1.277c0,1.281-0.636,2.558-0.636,3.839v3.84h-1.922
		c0-1.922,0-4.48-3.199-4.48h-7.039v24.32c0,3.199,1.277,3.84,3.839,3.84h1.278L118.357,527.294z M118.357,527.294"/>
	<path style="fill:#FFFFFF;" d="M127.959,525.372h0.64c1.918,0,3.2,0,3.2-2.558v-23.68c0-2.562-1.918-2.562-3.2-2.562h-0.64v-1.278
		h23.039v7.039h-1.278c0-3.199-0.64-5.121-5.761-5.121h-6.399v12.16h5.758c2.563,0,3.199-1.281,3.84-3.839h1.281v10.242h-1.281
		c0-2.563-0.641-4.481-3.84-4.481h-5.758v10.879c0,3.199,2.559,3.199,5.758,3.199c5.762,0,7.68-0.64,9.602-5.757h1.281
		c-0.641,2.558-1.281,5.117-1.281,7.039h-24.321v-1.282H127.959z M127.959,525.372"/>
	<path style="fill:#FFFFFF;" d="M152.279,526.654c0.641-2.563,0.641-4.481,1.281-7.039h-0.64c-1.282,5.117-3.84,5.757-9.602,5.757
		c-2.559,0-5.758,0-5.758-3.199v-10.879h5.758c3.199,0,3.199,1.918,3.84,4.481h1.281v-10.242h-1.281c0,2.558-1.277,3.839-3.84,3.839
		h-5.758v-12.16h6.399c4.48,0,5.761,2.563,5.761,5.121h1.278v-6.398h-22.399v1.277h0.641c1.918,0,3.84,0,3.84,2.563v23.679
		c0,2.559-1.922,2.559-3.84,2.559h-0.641v1.281h12.16C143.959,526.654,149.08,526.654,152.279,526.654 M152.279,527.294h-24.32
		v-1.922h0.64c1.918,0,3.2,0,3.2-2.558v-23.68c0-1.922-1.282-2.562-3.2-2.562h-0.64v-1.278h23.039v7.039l-1.278,0.641
		c0-3.199-0.64-5.121-5.121-5.121h-6.398v11.519h5.117c2.563,0,3.199-1.281,3.199-3.839h1.282v10.242h-1.282
		c0-2.563-0.636-4.481-3.199-4.481h-5.117v10.239c0,2.558,2.558,2.558,5.117,2.558c5.762,0,7.68,0,8.961-5.117l1.281,0.641
		C153.56,522.173,152.92,524.732,152.279,527.294L152.279,527.294z M152.279,527.294"/>
	<path style="fill:#FFFFFF;" d="M165.72,510.654h1.918c4.481,0,7.039-1.922,7.039-7.039c0-3.84-2.558-6.403-6.398-6.403h-2.559
		V510.654z M159.959,499.775c0-3.203-1.918-3.203-3.2-3.203h-0.64v-1.278h14.082c5.758,0,10.879,1.278,10.879,8.321
		c0,3.839-2.563,6.398-6.403,8.32l7.68,11.519c1.281,1.918,1.922,2.559,4.481,2.559v1.281h-8.957
		c-3.204-4.48-6.403-9.601-9.602-14.722h-3.199v9.601c0,3.199,1.918,3.84,3.84,3.84h0.64v1.281h-14.082v-1.922h0.641
		c1.922,0,3.199-0.64,3.199-2.558v-23.039H159.959z M159.959,499.775"/>
	<path style="fill:#FFFFFF;" d="M168.279,510.654c4.48,0,7.039-1.282,7.039-7.039c0-3.84-2.559-6.403-6.398-6.403h-2.563v13.442
		H168.279z M165.72,510.654v-14.082h2.559c3.84,0,7.039,2.562,7.039,7.043c0,5.757-2.559,7.039-7.039,7.039H165.72z M165.72,511.935
		h3.2c3.199,5.117,5.757,10.238,9.597,14.719h8.961v-1.282c-1.918,0-3.199-0.64-4.48-2.558l-7.68-12.16
		c3.84-1.282,6.402-3.84,6.402-7.68c0-6.402-5.121-7.68-10.882-7.68h-14.079v1.278h0.641c1.277,0,3.199,0,3.199,3.839v23.043
		c0,1.918-1.922,2.559-3.199,2.559h-1.281v1.281h14.082v-1.281h-0.641c-1.922,0-3.84,0-3.84-3.84V511.935z M187.478,527.294h-8.961
		c-3.199-4.48-6.398-9.601-9.597-14.722h-2.563v9.601c0,3.199,1.281,3.199,3.844,3.199h1.277v1.282H157.4v-1.282h0.641
		c1.918,0,3.199-0.64,3.199-2.558v-23.039c0-3.203-1.922-3.203-3.199-3.203h-1.922v-1.278h14.082c5.758,0,10.879,1.918,10.879,8.321
		c0,3.839-2.563,6.398-6.403,8.32l7.68,11.519c1.281,1.918,1.922,2.559,4.481,2.559L187.478,527.294z M187.478,527.294"/>
	<path style="fill:#FFFFFF;" d="M218.201,517.693v-17.282c0-3.839-2.563-4.476-3.844-4.476h-1.277v-1.281h12.16v1.281h-0.641
		c-1.922,0-3.84,0.637-3.84,5.758v24.961h-1.921l-23.68-26.243v18.563c0,3.84,0.641,5.117,4.48,5.117h1.282v1.281h-12.161h0.641
		c3.199,0,3.84-1.918,3.84-5.757v-19.204c0-2.558-1.922-3.839-4.481-3.839h-0.64v-1.278h8.961L218.201,517.693z M218.201,517.693"/>
	<path style="fill:#FFFFFF;" d="M218.201,517.693L218.201,517.693z M218.201,517.693L218.201,517.693z M218.838,527.294h1.281
		v-24.961c0-5.761,2.558-5.761,4.48-5.761h0.641v-1.278h-11.52v1.278h0.637c1.281,0,4.481,0.64,4.481,4.48v17.281l-20.481-23.039
		H189.4v1.278h0.641c1.918,0,4.476,1.921,4.476,4.48v19.199c0,3.84-1.277,5.762-4.476,5.762H189.4v1.281h11.52v-1.281h-0.641
		c-3.84,0-4.48-1.281-4.48-5.762v-19.199L218.838,527.294z M220.759,527.935h-1.921l-23.039-25.602v18.559
		c0,3.84,0.64,5.121,3.839,5.121h1.282v1.281h-12.161v-1.922h0.641c3.199,0,3.84-1.918,3.84-5.757v-19.204
		c0-2.558-1.922-3.839-3.84-3.839h-1.281v-1.278h9.601l19.84,22.399v-16.641c0-3.84-2.562-3.84-3.84-3.84h-1.281v-1.277h12.16v1.277
		h-0.64c-1.918,0-3.84,0-3.84,5.762v20.48C220.759,524.732,220.759,526.013,220.759,527.935L220.759,527.935z M220.759,527.935"/>
	<path style="fill:#FFFFFF;" d="M239.318,500.411l-4.48,12.801h8.32L239.318,500.411z M232.92,520.251
		c-0.641,1.282-1.282,2.563-1.282,3.84c0,1.281,1.922,1.281,3.2,1.281h0.64v1.282h-10.879v-1.282c1.918,0,3.2-1.281,3.84-3.199
		l7.039-21.121l1.922-5.758c1.277-0.64,3.199-1.281,4.481-1.922h0.636c0,0.641,0,0.641,0.641,1.282l8.961,24.32
		c0.64,1.277,1.281,3.199,1.922,4.48c0.636,1.278,1.277,1.918,3.199,1.918v1.282h-13.441v-1.282h0.64c1.281,0,2.559,0,2.559-1.281
		c0-0.637-0.641-1.918-0.641-3.199l-1.918-5.117h-10.238L232.92,520.251z M232.92,520.251"/>
	<path style="fill:#FFFFFF;" d="M239.318,500.411L239.318,500.411z M235.478,513.212h8.321l-4.481-12.801L235.478,513.212z
		 M234.838,513.212l4.48-13.437l4.481,13.437H234.838z M243.799,526.654h12.8v-1.282c-1.281,0-2.558-0.64-3.199-1.918
		c-0.641-0.64-1.281-2.562-1.281-4.48l-8.32-23.68c0-0.64,0-0.64-0.641-1.281c-0.641,0.641-2.559,1.281-3.84,1.922
		c0,1.918-1.277,3.84-1.918,5.758l-7.043,21.121c-0.637,1.918-2.558,3.199-4.476,3.199v1.281h9.597v-1.281
		c-1.277,0-3.84,0-3.84-1.922c0-0.637,0.641-1.918,1.282-3.84l1.281-5.117h10.879l1.918,5.117c0.64,1.282,0.64,2.563,0.64,3.203
		c0,1.278-1.918,1.278-3.199,1.278v1.922H243.799z M257.24,527.294h-13.441v-1.922h0.64c1.281,0,2.559,0,2.559-1.281
		c0-0.637-0.641-1.918-0.641-3.199l-1.918-5.117h-10.238l-1.281,4.476c-0.641,1.282-1.282,2.563-1.282,3.203
		c0,1.278,1.922,1.278,3.2,1.278h0.64v1.281h-10.879v-0.641c1.918,0,3.2-1.281,3.84-2.558l7.039-21.121l1.922-5.758
		c1.277-0.641,3.199-1.281,3.84-1.922h1.277c0,0.641,0,0.641,0.641,1.281l8.961,23.68c0.64,1.918,1.281,3.199,1.922,4.48
		c0.636,1.278,1.277,1.918,2.558,1.918h0.641V527.294z M257.24,527.294"/>
	<path style="fill:#FFFFFF;" d="M259.158,497.212c-3.199,0-3.84,0.641-4.481,3.84H253.4c0-1.277,0.641-2.559,0.641-3.84v-3.84h1.277
		c0.641,1.282,1.281,1.282,2.563,1.282h23.679c1.278,0,2.559,0,2.559-1.282h1.281c0,1.282-0.641,2.563-0.641,3.84v3.84l-1.281,0.641
		c0-1.918-0.64-4.481-3.199-4.481h-7.68v24.321c0,3.199,1.282,3.839,3.84,3.839h0.641v1.282h-15.36v-1.282h0.637
		c2.563,0,3.844,0,3.844-3.839v-24.321H259.158z M259.158,497.212"/>
	<path style="fill:#FFFFFF;" d="M277.08,527.294h-15.36v-1.922h0.637c2.563,0,3.203,0,3.844-3.839v-24.321h-7.043h7.68v24.321
		c0,3.839-1.278,3.839-3.84,3.839h-0.641v1.282h7.684C271.959,526.654,275.158,526.654,277.08,527.294v-1.281h-0.641
		c-1.922,0-3.84-0.641-3.84-3.84v-24.32h7.68c3.199,0,3.199,2.558,3.84,4.48l1.281-0.64v-3.84c0-1.281,0-2.559,0.641-3.199H285.4
		c0,1.281-1.281,1.281-2.562,1.281h-23.68c-1.277,0-1.918,0-2.559-1.281h-0.64v3.839c0,1.282-0.641,2.559-0.641,3.84h1.281
		c0.641-3.199,1.282-4.48,4.481-3.84c-3.199,0-3.199,0.641-3.84,3.84h-1.922c0-1.281,0.641-2.558,0.641-3.84v-3.839h1.281
		c0,1.281,1.277,1.281,2.559,1.281h23.679c1.281,0,1.922,0,2.563-1.281h1.277c0,1.281-0.641,2.558-0.641,3.839v3.84l-1.918,0.641
		c0-1.922,0-4.481-3.199-4.481h-7.043v24.321c0,3.199,1.282,3.84,3.84,3.84h1.281L277.08,527.294z M277.08,527.294"/>
	<path style="fill:#FFFFFF;" d="M286.677,525.372c2.563,0,3.84,0,3.84-2.558v-23.68c0-2.562-1.918-2.562-3.199-2.562h-0.641v-1.278
		h14.082v1.278h-0.64c-1.918,0-3.199,0-3.199,2.562v23.68c0,2.558,1.918,2.558,3.199,2.558h0.64v1.282h-13.441v-1.282H286.677z
		 M286.677,525.372"/>
	<path style="fill:#FFFFFF;" d="M300.759,526.654v-1.282h-0.64c-1.918,0-3.84,0-3.84-2.558v-23.68c0-2.562,1.922-2.562,3.84-2.562
		h0.64v-1.278h-13.441v1.278h0.641c1.922,0,3.84,0,3.84,2.562v23.68c0,2.558-1.918,2.558-3.84,2.558h-0.641v1.282H300.759
		 M300.759,527.294h-13.441v-1.922h0.641c1.922,0,3.199,0,3.199-2.558v-23.68c0-1.922-1.277-2.562-3.199-2.562h-0.641v-1.278H301.4
		v1.278h-0.641c-1.921,0-3.199,0-3.199,2.562v23.68c0,1.918,1.278,2.558,3.199,2.558h0.641L300.759,527.294z M300.759,527.294"/>
	<path style="fill:#FFFFFF;" d="M319.959,525.372c8.961,0,10.242-7.679,10.242-14.718c0-6.403-3.844-14.719-10.883-14.719
		c-8.32,0-10.238,7.039-10.238,13.437C308.439,517.693,312.279,525.372,319.959,525.372 M319.318,494.654
		c9.602,0,17.281,5.757,17.281,16c0,10.238-7.679,17.281-17.281,17.281c-9.598,0-17.277-6.402-17.277-16.641
		C302.041,501.693,309.72,494.654,319.318,494.654"/>
	<path style="fill:#FFFFFF;" d="M308.439,509.372c0-6.398,2.559-13.437,10.879-13.437c7.68,0,11.52,8.316,11.52,14.719
		c0,6.398-1.278,14.718-10.879,14.718c8.961,0,10.242-7.679,10.242-14.078c0-6.402-3.844-14.722-10.883-14.722
		C310.998,496.572,309.08,503.615,308.439,509.372c0.641,8.321,3.84,16,11.52,16C312.279,526.013,308.439,517.693,308.439,509.372
		 M302.041,511.294c0-9.601,7.679-17.281,17.277-17.281C309.72,494.654,302.677,501.693,302.041,511.294
		c0.636,9.598,7.679,16,17.277,16c9.602,0,17.281-7.043,17.281-17.281c0-9.602-7.679-15.359-17.281-15.359
		c9.602,0,17.922,6.398,17.922,16c0,10.879-7.68,17.918-17.281,17.918C309.72,527.935,302.041,521.533,302.041,511.294"/>
	<path style="fill:#FFFFFF;" d="M367.318,517.693v-17.282c0-3.839-2.559-4.476-3.84-4.476h-1.277v-1.281h12.156v1.281h-0.637
		c-1.921,0-3.839,0.637-3.839,5.758v24.961h-1.922l-23.68-26.243v18.563c0,3.84,0.641,5.117,4.48,5.117h0.641v1.281h-12.16h0.641
		c3.199,0,3.839-1.918,3.839-5.757v-19.204c0-2.558-1.921-3.839-3.839-3.839h-0.641v-1.278h8.961L367.318,517.693z M367.318,517.693
		"/>
	<path style="fill:#FFFFFF;" d="M367.318,517.693L367.318,517.693z M367.318,517.693L367.318,517.693z M367.959,527.294h1.281
		v-24.961c0-5.761,2.559-5.761,4.48-5.761h0.637v-1.278h-11.519v1.278h0.64c1.281,0,4.481,0.64,4.481,4.48v17.281l-20.481-23.039
		h-8.961v1.278h0.641c1.922,0,4.48,1.921,4.48,4.48v19.199c0,3.84-1.281,5.762-4.48,5.762h-0.641v1.281h11.524v-1.281H349.4
		c-3.84,0-4.48-1.281-4.48-5.762v-19.199L367.959,527.294z M369.881,527.935h-1.922l-23.039-25.602v18.559
		c0,3.84,0.64,5.121,3.839,5.121h1.282v1.281h-12.16v-1.922h0.636c3.203,0,3.84-1.918,3.84-5.757v-19.204
		c0-2.558-1.918-3.839-3.84-3.839h-0.636v-1.278h9.597l19.84,22.399v-16.641c0-3.84-2.559-3.84-3.84-3.84h-1.277v-1.277h12.156
		v1.277h-0.637c-1.921,0-3.839,0-3.839,5.762V527.935z M369.881,527.935"/>
	<path style="fill:#FFFFFF;" d="M388.439,500.411l-4.48,12.801h8.961L388.439,500.411z M382.041,520.251
		c-0.641,1.282-1.282,2.563-1.282,3.84c0,1.281,1.918,1.281,3.2,1.281h0.64v1.282H373.72v-1.282c1.918,0,3.2-1.281,3.84-3.199
		l7.039-21.121l1.918-5.758c1.282-0.64,3.203-1.281,4.481-1.922h0.64c0,0.641,0,0.641,0.641,1.282l8.32,23.679
		c0.641,1.282,1.282,3.2,1.918,4.481c0.641,2.558,1.922,2.558,3.203,2.558v1.282h-13.441v-1.282h0.641c1.281,0,2.558,0,2.558-1.281
		c0-0.637-0.64-1.918-0.64-3.199l-1.918-5.117h-10.243L382.041,520.251z M382.041,520.251"/>
	<path style="fill:#FFFFFF;" d="M388.439,500.411L388.439,500.411z M384.599,513.212h7.68l-3.84-12.16L384.599,513.212z
		 M383.959,513.212l4.48-13.437l4.481,13.437H383.959z M392.92,526.654h12.8v-1.282c-1.281,0-2.562-0.64-3.203-1.918
		c-0.636-1.281-1.277-3.203-1.918-4.48l-8.32-23.68c0-0.64,0-0.64-0.641-1.281c-0.64,0.641-2.558,1.281-3.839,1.922
		c0,1.918-1.282,3.84-1.918,5.758l-7.043,21.121c-0.637,1.918-2.559,3.199-3.84,3.199v1.281h9.601v-1.281
		c-1.281,0-3.84,0-3.84-1.922c0-0.637,0.641-1.918,1.282-3.84l1.277-5.117h10.883l1.918,5.117c0.64,1.282,0.64,2.563,0.64,3.203
		c0,1.278-1.921,1.278-3.199,1.278v1.922H392.92z M406.357,527.294H392.92v-1.922h0.64c1.278,0,2.559,0,2.559-1.281
		c0-0.637-0.641-1.918-0.641-3.199l-1.918-5.117h-10.242l-1.277,4.476c-0.641,1.282-1.282,2.563-1.282,3.203
		c0,1.278,1.918,1.278,3.2,1.278h0.64v1.281H373.72v-0.641c1.918,0,3.2-1.281,3.84-2.558l7.039-21.121l1.918-5.758
		c1.282-0.641,3.203-1.281,4.481-1.922h1.281c0,0.641,0,0.641,0.641,1.281l8.32,23.68c0.641,1.918,1.277,3.199,1.918,4.48
		c0.641,1.278,1.281,1.918,2.562,1.918h0.637V527.294z M406.357,527.294"/>
	<path style="fill:#FFFFFF;" d="M417.881,522.814c0,1.918,1.277,2.558,2.558,2.558h5.762c1.918,0,3.84-1.281,4.476-2.558
		c0.641-1.281,1.282-2.563,1.282-3.199h1.281l-1.922,7.679h-24.32v-1.922h0.64c1.922,0,3.2,0,3.2-3.199v-23.68
		c0-2.558-1.918-2.558-3.2-2.558h-0.64v-1.281h14.082v1.281h-1.281c-1.918,0-3.2,0-3.2,2.558v24.321H417.881z M417.881,522.814"/>
	<path style="fill:#FFFFFF;" d="M431.318,526.654c0.641-2.563,1.281-5.121,1.922-7.039h-0.641c0,1.277-0.64,1.918-1.281,3.199
		c-0.641,1.277-2.559,2.558-4.48,2.558h-5.758c-1.281,0-3.199-0.64-3.199-2.558v-23.68c0-2.562,1.277-2.562,3.199-2.562h0.64v-1.278
		h-14.082v1.278h0.641c1.922,0,3.84,0,3.84,2.562v23.68c0,3.199-1.918,3.199-3.84,3.199h-0.641v1.281h12.161
		C423.638,526.654,427.478,526.654,431.318,526.654 M431.959,527.294h-24.321v-1.922h0.641c1.922,0,3.199,0,3.199-2.558v-23.68
		c0-1.922-1.277-2.562-3.199-2.562h-0.641v-1.278h14.082v1.278h-1.281c-1.922,0-3.199,0-3.199,2.562v23.68
		c0,1.918,1.277,1.918,2.559,2.558h5.761c1.918,0,3.199-1.281,4.481-2.558c0.636-1.281,1.277-1.922,1.277-3.199h1.281
		C433.24,522.173,432.599,524.732,431.959,527.294L431.959,527.294z M431.959,527.294"/>
	<path style="fill:#FFFFFF;" d="M431.959,498.493c1.281,0,1.281-0.64,1.281-1.281c0-0.64-0.641-1.277-0.641-1.277h-0.64V498.493z
		 M430.677,501.052c0.641,0,0.641,0,0.641-0.641v-3.839c0-0.637,0-0.637-0.641-0.637h2.563c0.641,0,1.918,0.637,1.918,1.277
		c0,0.641-0.641,1.281-1.277,1.281l0.636,1.282c0.641,0.636,0.641,1.277,1.282,1.277h-0.641c-0.641,0-0.641-0.641-1.918-1.918
		h-0.641v1.277c0,0.641,0,0,0.641,0.641H430.677z M432.599,502.333c1.918,0,3.84-1.922,3.84-3.84c0-1.921-1.922-3.839-3.84-3.839
		c-1.922,0-3.84,1.918-3.84,3.839C429.4,500.411,430.677,502.333,432.599,502.333 M432.599,494.013c2.559,0,5.121,1.922,5.121,5.121
		c0,3.199-1.921,4.481-5.121,4.481c-3.199,0-5.121-1.922-5.121-4.481C427.478,496.572,430.041,494.013,432.599,494.013"/>
	<path style="fill:#FFFFFF;" d="M324.439,321.212c0-20.48-8.32-39.039-22.398-53.758c-13.442-8.32-29.442-13.441-46.082-13.441
		h-37.121c-44.161,0-80,32.641-80,80c0,19.84,7.679,37.762,19.839,51.84c12.801,8.961,28.161,15.359,44.801,17.922
		c-32.64-7.043-56.961-35.84-56.961-71.043c0-40.321,32.641-72.957,72.321-72.957c40.32,0,72.961,32.636,72.961,72.957
		c0,39.679-31.36,71.679-71.04,72.32h3.2C278.998,405.693,324.439,367.935,324.439,321.212L324.439,321.212z M324.439,321.212"/>
	<path style="fill:#FFFFFF;" d="M218.201,254.013c-44.16,0-80,32.641-80,80c0,19.199,7.039,37.121,19.199,50.559l1.918,1.921
		c12.801,8.961,27.52,14.719,44.16,17.918c-32.64-7.039-56.961-35.839-56.961-71.039c0-40.32,32.641-72.961,72.321-72.961
		c40.32,0,72.961,32.641,72.961,72.961c0,39.68-31.36,71.68-71.04,72.321h3.2c3.199,0,6.398,0,9.601-0.641
		c42.239-10.238,69.117-53.117,61.438-98.559c-3.84-21.121-14.078-39.039-28.797-51.839c-3.203-0.641-6.402-0.641-9.602-0.641
		H218.201z M218.201,254.013"/>
</g>
</svg>
