<?xml version="1.0" encoding="iso-8859-1"?>
<!-- Generator: Adobe Illustrator 19.0.0, SVG Export Plug-In . SVG Version: 6.00 Build 0)  -->
<svg version="1.1" id="Layer_1" xmlns="http://www.w3.org/2000/svg" xmlns:xlink="http://www.w3.org/1999/xlink" x="0px" y="0px"
	 viewBox="-49 220.451 570 353.098" style="enable-background:new -49 220.451 570 353.098;" xml:space="preserve">
<path style="fill:#004A98;" d="M521,543.282c0,16.716-15.085,30.267-33.693,30.267H-15.307C-33.915,573.55-49,559.997-49,543.282
	V250.717c0-16.715,15.085-30.266,33.693-30.266h502.613c18.609,0,33.693,13.551,33.693,30.266L521,543.282L521,543.282z"/>
<g>
	<path style="fill:#F58220;" d="M487.307,573.549c18.608,0,33.693-13.551,33.693-30.267h0V439.978
		c0,0-130.751,92.254-370.226,133.571H487.307z"/>
	<path style="fill:#E73530;" d="M475.06,535.708"/>
	
		<radialGradient id="SVGID_1_" cx="241.4365" cy="-96.3915" r="35.1388" gradientTransform="matrix(1 0 0 1 6.416 486.083)" gradientUnits="userSpaceOnUse">
		<stop  offset="0.0056" style="stop-color:#FFEEE0"/>
		<stop  offset="0.1096" style="stop-color:#FEE9D7"/>
		<stop  offset="0.2793" style="stop-color:#FDDBBF"/>
		<stop  offset="0.4935" style="stop-color:#FBC597"/>
		<stop  offset="0.744" style="stop-color:#F8A560"/>
		<stop  offset="1" style="stop-color:#F48120"/>
	</radialGradient>
	<path style="fill:url(#SVGID_1_);" d="M247.901,354.953c-19.646,0-35.583,15.347-35.583,34.287c0,20.136,15.246,35.19,35.583,35.19
		c19.829,0,35.486-15.252,35.486-34.794C283.387,370.209,267.835,354.953,247.901,354.953z"/>
	<g>
		<path style="fill:#FFFFFF;" d="M45.892,356.203h-19.13v66.722h19.03c10.097,0,17.399-2.393,23.805-7.698
			c7.6-6.304,12.108-15.808,12.108-25.63C81.704,369.898,66.988,356.203,45.892,356.203z M61.105,406.315
			c-4.113,3.712-9.408,5.315-17.824,5.315h-3.497v-44.128h3.497c8.416,0,13.508,1.502,17.824,5.4
			c4.502,4.002,7.186,10.199,7.186,16.6C68.291,395.914,65.607,402.329,61.105,406.315z"/>
		<rect x="87.712" y="356.203" style="fill:#FFFFFF;" width="13" height="66.722"/>
		<path style="fill:#FFFFFF;" d="M132.541,381.797c-7.815-2.895-10.113-4.805-10.113-8.393c0-4.205,4.093-7.404,9.705-7.404
			c3.902,0,7.104,1.599,10.516,5.39l6.793-8.889c-5.602-4.913-12.304-7.411-19.614-7.411c-11.794,0-20.805,8.207-20.805,19.102
			c0,9.212,4.199,13.91,16.408,18.324c5.106,1.792,7.701,2.987,9.004,3.802c2.601,1.701,3.907,4.094,3.907,6.895
			c0,5.409-4.306,9.405-10.117,9.405c-6.203,0-11.2-3.098-14.204-8.9l-8.394,8.113c5.99,8.791,13.195,12.706,23.11,12.706
			c13.506,0,23.006-9.017,23.006-21.918C151.744,392.013,147.353,387.207,132.541,381.797z"/>
		<path style="fill:#FFFFFF;" d="M155.844,389.597c0,19.63,15.412,34.833,35.228,34.833c5.602,0,10.404-1.106,16.313-3.898v-15.314
			c-5.21,5.207-9.813,7.302-15.719,7.302c-13.104,0-22.415-9.506-22.415-23.019c0-12.8,9.602-22.908,21.821-22.908
			c6.193,0,10.904,2.201,16.313,7.503v-15.314c-5.703-2.893-10.414-4.085-16.016-4.085
			C171.654,354.698,155.844,370.209,155.844,389.597z"/>
		<polygon style="fill:#FFFFFF;" points="312.834,401.023 295.023,356.203 280.815,356.203 309.14,424.629 316.138,424.629 
			344.959,356.203 330.855,356.203 		"/>
		<polygon style="fill:#FFFFFF;" points="350.873,422.925 387.789,422.925 387.789,411.629 363.88,411.629 363.88,393.609 
			386.874,393.609 386.874,382.31 363.88,382.31 363.88,367.502 387.789,367.502 387.789,356.203 350.873,356.203 		"/>
		<path style="fill:#FFFFFF;" d="M439.304,375.895c0-12.5-8.592-19.691-23.609-19.691h-19.313v66.722h13.02v-26.815h1.703
			l18.001,26.815h16.009l-21.024-28.105C433.91,392.813,439.304,386.107,439.304,375.895z M413.188,386.913h-3.786v-20.218h3.994
			c8.122,0,12.523,3.412,12.523,9.904C425.919,383.299,421.519,386.913,413.188,386.913z"/>
		<path style="fill:#FFFFFF;" d="M448.484,361.172c0-1.169-0.782-1.803-2.213-1.803h-1.894v5.877h1.392v-2.286l1.645,2.286h1.744
			l-1.953-2.429C448.027,362.599,448.484,361.991,448.484,361.172z M446.03,361.972h-0.261v-1.528h0.274
			c0.693,0,1.045,0.252,1.045,0.751C447.087,361.711,446.721,361.972,446.03,361.972z"/>
		<path style="fill:#FFFFFF;" d="M446.551,357.157c-2.846,0-5.131,2.288-5.131,5.134c0,2.847,2.297,5.135,5.131,5.135
			c2.789,0,5.068-2.311,5.068-5.135C451.619,359.478,449.34,357.157,446.551,357.157z M446.544,366.506
			c-2.279,0-4.113-1.877-4.113-4.201c0-2.347,1.822-4.212,4.113-4.212c2.214,0,4.041,1.901,4.041,4.212
			C450.585,364.613,448.759,366.506,446.544,366.506z"/>
	</g>
</g>
</svg>
