<?xml version="1.0" encoding="iso-8859-1"?>
<!-- Generator: Adobe Illustrator 19.0.0, SVG Export Plug-In . SVG Version: 6.00 Build 0)  -->
<svg version="1.1" id="Layer_1" xmlns="http://www.w3.org/2000/svg" xmlns:xlink="http://www.w3.org/1999/xlink" x="0px" y="0px"
	 viewBox="-49 220.451 570 353.098" style="enable-background:new -49 220.451 570 353.098;" xml:space="preserve">
<path style="fill:#0C489C;" d="M521,543.282c0,16.716-15.085,30.267-33.693,30.267H-15.307C-33.915,573.55-49,559.997-49,543.282
	V250.717c0-16.715,15.085-30.266,33.693-30.266h502.613c18.609,0,33.693,13.551,33.693,30.266L521,543.282L521,543.282z"/>
<g>
	<path style="fill:#FFFFFF;" d="M316.308,391.183h-0.227V372.37h20.813c0.136,0,0.227,0.046,0.352,0.046c0.136,0,0.273,0,0.397,0
		c0.137,0.045,0.227,0.045,0.364,0.045c0.125,0,0.261,0.034,0.397,0.034c0.091,0,0.171,0.046,0.261,0.046h0.091
		c0.137,0.045,0.273,0.045,0.353,0.091c0.136,0,0.273,0.045,0.397,0.091c0.137,0.046,0.227,0.091,0.363,0.091
		c0.125,0.046,0.262,0.091,0.398,0.137c0.091,0.034,0.216,0.079,0.352,0.125c0.137,0.045,0.273,0.136,0.398,0.182
		c0.137,0.045,0.227,0.091,0.364,0.17c0.125,0.046,0.261,0.137,0.398,0.182c0.091,0.091,0.216,0.182,0.352,0.227
		c0.136,0.08,0.216,0.171,0.352,0.261c0.137,0.091,0.273,0.182,0.398,0.273c0.136,0.079,0.227,0.17,0.364,0.306
		c0.125,0.091,0.261,0.216,0.398,0.307c0.136,0.136,0.216,0.273,0.352,0.398c0.136,0.136,0.261,0.273,0.398,0.409
		c0.136,0.171,0.227,0.307,0.352,0.477c0.136,0.182,0.272,0.363,0.363,0.579c0.125,0.227,0.261,0.443,0.398,0.67
		c0.136,0.261,0.216,0.579,0.352,0.841c0.182,0.398,0.272,0.841,0.397,1.284c0.137,0.67,0.227,1.42,0.227,2.181
		c0,0.75-0.091,1.465-0.227,2.17c-0.125,0.398-0.216,0.841-0.397,1.249c-0.091,0.307-0.216,0.568-0.352,0.887
		c-0.137,0.216-0.273,0.443-0.398,0.659c-0.091,0.182-0.227,0.364-0.363,0.534c-0.125,0.182-0.216,0.352-0.352,0.488
		c-0.137,0.182-0.262,0.307-0.398,0.443c-0.137,0.136-0.216,0.227-0.352,0.352c-0.137,0.136-0.272,0.227-0.398,0.364
		c-0.137,0.079-0.227,0.17-0.364,0.261c-0.125,0.091-0.261,0.227-0.398,0.306c-0.136,0.046-0.216,0.137-0.352,0.227
		c-0.137,0.091-0.261,0.137-0.352,0.227c-0.137,0.034-0.273,0.125-0.398,0.17c-0.136,0.045-0.227,0.136-0.364,0.182
		c-0.125,0.046-0.261,0.091-0.398,0.171c-0.091,0.045-0.216,0.091-0.352,0.137c-0.136,0.045-0.273,0.091-0.398,0.136l-0.363,0.091
		c-0.125,0.046-0.261,0.08-0.397,0.08c-0.08,0.045-0.216,0.045-0.353,0.091h-0.091c-0.091,0-0.17,0.045-0.261,0.045
		c-0.136,0-0.272,0.045-0.397,0.045c-0.136,0-0.227,0-0.364,0.045c-0.125,0-0.261,0-0.397,0c-0.125,0-0.216,0.045-0.352,0.045
		c-0.137,0-0.262,0-0.353,0h-20.233V391.183z M316.081,423.095h22.631c0.136,0,0.227,0,0.352,0c0.137-0.045,0.272-0.045,0.409-0.045
		c0.125,0,0.216,0,0.352-0.046c0.136,0,0.216,0,0.398,0c0.136-0.045,0.227-0.045,0.352-0.045c0.136-0.046,0.273-0.046,0.363-0.091
		c0.079,0,0.17,0,0.216-0.045l0.182-0.045c0.125,0,0.216-0.045,0.352-0.091c0.136-0.034,0.261-0.034,0.397-0.079
		c0.137-0.046,0.227-0.091,0.353-0.137c0.136-0.045,0.273-0.091,0.397-0.136c0.091-0.091,0.227-0.136,0.364-0.171
		c0.125-0.091,0.216-0.136,0.397-0.182c0.137-0.091,0.216-0.136,0.352-0.227c0.137-0.045,0.273-0.125,0.352-0.216
		c0.136-0.045,0.273-0.136,0.409-0.227c0.125-0.079,0.216-0.171,0.352-0.261c0.125-0.091,0.261-0.182,0.398-0.272
		c0.136-0.125,0.216-0.216,0.352-0.306c0.137-0.137,0.272-0.261,0.398-0.398c0.136-0.136,0.227-0.261,0.364-0.398
		c0.125-0.136,0.261-0.273,0.398-0.443c0.125-0.182,0.216-0.363,0.352-0.534c0.136-0.182,0.261-0.398,0.352-0.58
		c0.182-0.216,0.273-0.443,0.398-0.67c0.136-0.307,0.272-0.614,0.363-0.932c0.17-0.398,0.261-0.795,0.398-1.238
		c0.171-0.75,0.261-1.557,0.261-2.397c0-0.84-0.091-1.636-0.261-2.397c-0.137-0.398-0.227-0.841-0.398-1.238
		c-0.091-0.318-0.227-0.58-0.363-0.887c-0.125-0.227-0.216-0.488-0.398-0.716c-0.091-0.17-0.216-0.398-0.352-0.579
		c-0.137-0.171-0.227-0.352-0.352-0.523c-0.137-0.136-0.227-0.273-0.398-0.454c-0.136-0.125-0.227-0.261-0.364-0.398
		c-0.125-0.125-0.261-0.216-0.398-0.352c-0.136-0.136-0.216-0.216-0.352-0.307c-0.137-0.091-0.273-0.227-0.398-0.318
		c-0.136-0.079-0.227-0.17-0.352-0.261c-0.136-0.091-0.273-0.182-0.409-0.227c-0.079-0.079-0.216-0.171-0.352-0.216
		c-0.136-0.091-0.216-0.136-0.352-0.182c-0.182-0.045-0.273-0.125-0.397-0.171c-0.136-0.091-0.273-0.136-0.364-0.182
		c-0.125-0.045-0.261-0.136-0.397-0.182c-0.125-0.046-0.216-0.046-0.353-0.125c-0.136,0-0.261-0.046-0.397-0.091
		c-0.137-0.045-0.227-0.045-0.352-0.091l-0.182-0.045c-0.046,0-0.137-0.045-0.216-0.045c-0.091,0-0.227-0.045-0.363-0.045
		c-0.125,0-0.216-0.045-0.352-0.045c-0.182,0-0.261-0.034-0.398-0.034c-0.137,0-0.227,0-0.352,0
		c-0.137-0.046-0.272-0.046-0.409-0.046c-0.125,0-0.216,0-0.352-0.045h-22.631V423.095z M284.931,282.065h-56.985
		c-0.137,0-0.261,0-0.398,0h-0.352c-0.137,0-0.273,0.034-0.398,0.034c-0.136,0-0.227,0-0.363,0c-0.125,0-0.261,0.045-0.397,0.045
		c-0.091,0-0.216,0-0.353,0l-0.397,0.045c-0.091,0.045-0.227,0.045-0.352,0.045c-0.136,0-0.273,0.045-0.364,0.045l-0.397,0.045
		l-0.353,0.046c-0.136,0-0.273,0.045-0.397,0.045c-0.091,0-0.227,0.046-0.363,0.046c-0.125,0-0.216,0.045-0.353,0.045l-0.397,0.08
		l-0.352,0.045c-0.137,0.045-0.273,0.045-0.398,0.091c-0.091,0.045-0.227,0.045-0.363,0.091c-0.125,0-0.261,0.046-0.398,0.046
		l-0.352,0.091c-0.137,0.045-0.227,0.045-0.352,0.079c-0.137,0.045-0.273,0.045-0.398,0.091c-0.137,0.045-0.227,0.045-0.364,0.091
		c-0.125,0.045-0.261,0.045-0.352,0.091l-0.398,0.136c-0.137,0-0.227,0.046-0.352,0.08c-0.137,0.045-0.273,0.045-0.398,0.091
		c-0.136,0.045-0.227,0.091-0.364,0.136c-0.125,0.045-0.261,0.091-0.352,0.091l-0.398,0.125c-0.136,0.046-0.273,0.091-0.352,0.137
		c-0.137,0.045-0.273,0.091-0.398,0.137c-0.136,0.045-0.273,0.091-0.364,0.136c-0.125,0.046-0.261,0.08-0.398,0.125
		c-0.136,0.045-0.261,0.136-0.352,0.182c-0.136,0.045-0.273,0.091-0.397,0.136l-0.364,0.125c-0.125,0.091-0.261,0.137-0.397,0.182
		c-0.091,0.046-0.216,0.091-0.352,0.182c-0.137,0.046-0.261,0.08-0.353,0.125c-0.136,0.045-0.273,0.136-0.397,0.182
		c-0.137,0.045-0.273,0.136-0.363,0.182c-0.125,0.045-0.262,0.125-0.398,0.17l-0.352,0.227l-0.398,0.17
		c-0.137,0.045-0.227,0.136-0.352,0.182c-0.137,0.091-0.273,0.136-0.409,0.182c-0.079,0.079-0.216,0.17-0.352,0.216
		c-0.136,0.091-0.261,0.136-0.352,0.227c-0.137,0.046-0.273,0.125-0.398,0.216l-0.364,0.227c-0.125,0.046-0.261,0.137-0.398,0.216
		c-0.125,0.045-0.216,0.136-0.352,0.227c-0.136,0.091-0.261,0.17-0.398,0.216c-0.091,0.091-0.227,0.182-0.352,0.272
		c-0.136,0.091-0.273,0.171-0.364,0.261c-0.125,0.045-0.261,0.136-0.398,0.227c-0.125,0.091-0.261,0.171-0.352,0.261
		c-0.136,0.091-0.261,0.227-0.397,0.273c-0.137,0.08-0.227,0.216-0.353,0.307c-0.136,0.091-0.273,0.182-0.408,0.261
		c-0.125,0.091-0.216,0.182-0.352,0.318c-0.125,0.091-0.262,0.17-0.398,0.306c-0.091,0.091-0.216,0.182-0.352,0.307
		c-0.137,0.091-0.273,0.182-0.352,0.318c-0.136,0.091-0.273,0.17-0.409,0.306c-0.125,0.137-0.261,0.227-0.352,0.352
		c-0.137,0.091-0.261,0.227-0.398,0.318c-0.091,0.125-0.227,0.261-0.352,0.352l-0.398,0.398c-0.091,0.091-0.227,0.227-0.364,0.352
		c-0.125,0.137-0.261,0.272-0.352,0.409c-0.137,0.125-0.261,0.261-0.398,0.352c-0.136,0.171-0.273,0.261-0.352,0.398
		c-0.137,0.182-0.273,0.306-0.398,0.443c-0.091,0.136-0.227,0.261-0.364,0.398c-0.125,0.182-0.216,0.318-0.398,0.443
		c-0.091,0.136-0.216,0.318-0.352,0.443l-0.397,0.488c-0.091,0.182-0.227,0.318-0.364,0.488c-0.125,0.182-0.216,0.318-0.352,0.488
		c-0.136,0.182-0.261,0.352-0.398,0.534c-0.136,0.182-0.216,0.352-0.352,0.534c-0.136,0.182-0.273,0.352-0.397,0.534
		c-0.091,0.216-0.227,0.397-0.364,0.579c-0.125,0.216-0.261,0.397-0.352,0.613c-0.136,0.182-0.261,0.397-0.397,0.625
		c-0.137,0.227-0.227,0.443-0.352,0.671c-0.136,0.216-0.273,0.443-0.398,0.659c-0.091,0.227-0.227,0.488-0.363,0.716
		c-0.125,0.261-0.262,0.489-0.398,0.75c-0.091,0.272-0.216,0.534-0.352,0.795c-0.137,0.318-0.261,0.579-0.398,0.898
		c-0.091,0.261-0.227,0.568-0.352,0.886c-0.137,0.352-0.272,0.659-0.363,1.022c-0.125,0.352-0.261,0.704-0.398,1.057
		c-0.136,0.398-0.216,0.806-0.352,1.204c-0.137,0.443-0.273,0.886-0.398,1.374c-0.136,0.534-0.227,1.068-0.364,1.591
		c-0.522,2.533-0.795,5.191-0.795,7.862v50.588c0.273-0.227,0.534-0.443,0.795-0.67c0.137-0.079,0.273-0.17,0.364-0.261
		c0.125-0.091,0.261-0.227,0.398-0.307c0.136-0.091,0.216-0.182,0.352-0.273c0.137-0.091,0.273-0.216,0.398-0.307
		c0.091-0.091,0.227-0.136,0.363-0.272c0.125-0.046,0.261-0.125,0.352-0.216l0.398-0.272c0.136-0.08,0.216-0.171,0.352-0.261
		l0.398-0.227c0.136-0.079,0.227-0.17,0.363-0.261c0.125-0.045,0.261-0.136,0.398-0.227c0.125-0.079,0.216-0.125,0.352-0.216
		c0.136-0.045,0.261-0.136,0.397-0.227c0.137-0.034,0.227-0.125,0.352-0.216c0.136-0.045,0.273-0.136,0.364-0.182l0.397-0.216
		l0.352-0.182c0.137-0.091,0.262-0.136,0.398-0.216c0.137-0.046,0.227-0.137,0.352-0.182l0.364-0.182l0.397-0.216l0.352-0.182
		c0.137-0.045,0.273-0.136,0.398-0.17l0.364-0.182l0.398-0.182l0.352-0.125l0.398-0.182l0.352-0.136l0.364-0.171l0.398-0.136
		l0.352-0.182l0.398-0.125c0.091-0.045,0.227-0.091,0.352-0.136l0.409-0.137c0.08-0.091,0.216-0.136,0.352-0.182
		c0.136-0.034,0.261-0.079,0.352-0.125l0.398-0.091l0.352-0.182c0.136,0,0.273-0.045,0.408-0.08l0.353-0.136
		c0.136-0.046,0.261-0.091,0.397-0.137l0.352-0.136l0.398-0.08l0.364-0.136l0.352-0.091l0.398-0.136l0.352-0.091l0.398-0.125
		l0.364-0.091l0.398-0.091l0.443-0.136l0.352-0.079l0.398-0.091l0.364-0.091l0.398-0.091l0.704-0.17l0.398-0.046l0.363-0.091
		l0.398-0.091l0.352-0.091l0.397-0.091l0.353-0.046l0.408-0.079l0.352-0.091l0.353-0.045l0.397-0.091l0.364-0.045l0.398-0.045
		l0.352-0.079l0.398-0.046l0.352-0.091l0.409-0.045l0.704-0.091l0.398-0.091l0.352-0.045l0.409-0.046l0.704-0.079l0.398-0.046
		l0.363-0.045l0.398-0.046l0.352-0.045l0.397-0.045l0.716-0.091h0.398l0.352-0.045l0.397-0.045l0.353-0.034h0.363l0.397-0.045
		l0.353-0.046h0.397l0.352-0.045h0.364l0.397-0.046h0.352l0.398-0.045h0.352l0.409-0.045h0.704l0.398-0.045h0.761l0.352-0.045h1.863
		l0.398-0.045h6.35l0.352,0.045h2.261l0.397,0.045h1.113l0.353,0.045h0.761l0.397,0.045h0.352l0.398,0.045h0.716l0.398,0.046
		l0.352,0.045h0.398l0.716,0.091h0.398l0.352,0.034l0.398,0.045l0.363,0.045h0.398l0.352,0.045l0.398,0.045l0.716,0.091l0.398,0.046
		h0.352l0.397,0.045l0.364,0.046l0.398,0.045l0.704,0.08l0.397,0.045l0.363,0.045l0.398,0.045l0.352,0.045l0.352,0.091l0.398,0.046
		l0.364,0.045l0.398,0.046l0.352,0.034l0.398,0.091l0.352,0.045l0.409,0.045l0.352,0.045l0.352,0.091l0.398,0.046l0.363,0.045
		l0.398,0.034l0.352,0.091l0.397,0.046l0.353,0.091l0.397,0.046l0.363,0.091l0.353,0.045l0.397,0.08l0.352,0.045l0.409,0.091
		l0.352,0.045l0.352,0.091l0.398,0.045l0.352,0.091l0.409,0.045l0.704,0.17l0.398,0.045l0.364,0.091l0.398,0.091l0.352,0.046
		l0.398,0.079l0.352,0.091l0.409,0.045l0.352,0.091l0.397,0.091l0.353,0.091l0.397,0.08l0.364,0.045l0.352,0.091l0.397,0.091
		l0.352,0.091l0.398,0.091l0.364,0.08l0.398,0.091l0.352,0.091l0.398,0.091l0.352,0.091v16.325l-0.352-0.182l-0.398-0.17
		l-0.352-0.182l-0.398-0.17l-0.364-0.182l-0.398-0.227l-0.352-0.171l-0.397-0.182l-0.716-0.352l-0.397-0.137l-0.353-0.171
		l-0.397-0.182l-0.352-0.182l-0.409-0.125l-0.352-0.182l-0.398-0.182l-0.352-0.125l-0.398-0.182l-0.364-0.136l-0.398-0.17
		l-0.704-0.273l-0.409-0.17l-0.352-0.137l-0.398-0.136l-0.704-0.261l-0.409-0.136l-0.352-0.136l-0.397-0.125l-0.716-0.273
		l-0.397-0.091l-0.353-0.125l-0.397-0.137l-0.352-0.091l-0.398-0.136l-0.363-0.079l-0.398-0.137l-0.352-0.091l-0.352-0.137
		l-0.409-0.091l-0.352-0.079l-0.398-0.091l-0.352-0.091l-0.398-0.136l-0.364-0.079l-0.398-0.091l-0.704-0.182l-0.398-0.045
		l-0.363-0.091l-0.397-0.08l-0.353-0.045l-0.352-0.091l-0.398-0.091l-0.364-0.045l-0.397-0.091l-0.352-0.045l-0.398-0.08
		l-0.363-0.045l-0.352-0.091l-0.398-0.046l-0.352-0.045l-0.398-0.045l-0.363-0.045l-0.398-0.045l-0.352-0.08l-0.398-0.045
		l-0.352-0.046h-0.364l-0.398-0.045l-0.534,0.091l-0.398-0.046l-0.704-0.091h-0.409l-0.216-0.045h-0.534l-0.352-0.045h-0.397
		l-0.364-0.045h-0.75l-0.353-0.045h-3.022c-0.136,0-0.216,0-0.352,0.045c-0.137,0-0.273,0-0.398,0l-0.352,0.045h-0.363l-0.398,0.045
		h-0.352c-0.137,0-0.273,0.045-0.398,0.045c-0.136,0-0.227,0-0.364,0.046h-0.352l-0.398,0.045l-0.352,0.046l-0.398,0.045
		l-0.363,0.08l-0.352,0.045c-0.136,0-0.261,0.045-0.398,0.045c-0.136,0.045-0.261,0.045-0.352,0.091
		c-0.136,0-0.273,0.046-0.398,0.046c-0.136,0.045-0.273,0.045-0.364,0.091c-0.125,0-0.261,0.045-0.397,0.079
		c-0.137,0-0.216,0.045-0.353,0.045c-0.136,0.045-0.273,0.091-0.397,0.091l-0.363,0.091c-0.125,0.045-0.262,0.091-0.353,0.091
		c-0.125,0.045-0.261,0.091-0.397,0.091c-0.137,0.045-0.216,0.079-0.352,0.125l-0.398,0.091c-0.091,0.045-0.227,0.091-0.363,0.137
		c-0.125,0.045-0.261,0.045-0.398,0.091c-0.091,0.045-0.216,0.091-0.352,0.125c-0.137,0.045-0.261,0.091-0.352,0.136
		c-0.137,0.045-0.273,0.091-0.398,0.136c-0.137,0.045-0.227,0.091-0.364,0.136c-0.125,0.034-0.261,0.125-0.398,0.171
		c-0.091,0.046-0.216,0.091-0.352,0.137c-0.137,0.045-0.261,0.091-0.398,0.182c-0.091,0.034-0.227,0.079-0.352,0.125
		c-0.136,0.045-0.273,0.136-0.364,0.182c-0.125,0.045-0.261,0.137-0.398,0.182c-0.136,0.079-0.216,0.125-0.352,0.17
		c-0.136,0.091-0.272,0.136-0.398,0.227c-0.136,0.046-0.273,0.08-0.352,0.171c-0.136,0.045-0.273,0.136-0.409,0.227
		c-0.08,0.045-0.216,0.136-0.353,0.171c-0.136,0.091-0.261,0.182-0.352,0.227c-0.136,0.091-0.273,0.182-0.397,0.261
		c-0.136,0.091-0.273,0.136-0.364,0.227c-0.125,0.091-0.261,0.182-0.397,0.261c-0.091,0.091-0.216,0.182-0.352,0.273l-0.398,0.261
		c-0.091,0.091-0.227,0.182-0.352,0.273c-0.137,0.125-0.273,0.216-0.363,0.306c-0.125,0.136-0.262,0.227-0.398,0.307
		c-0.137,0.137-0.216,0.227-0.352,0.363c-0.137,0.08-0.261,0.216-0.398,0.307c-0.091,0.136-0.227,0.227-0.352,0.352
		c-0.137,0.137-0.272,0.272-0.363,0.352c-0.125,0.182-0.261,0.273-0.398,0.454c-0.136,0.125-0.216,0.261-0.352,0.398
		c-0.137,0.125-0.273,0.261-0.398,0.443c-0.091,0.125-0.227,0.261-0.364,0.443c-0.125,0.136-0.216,0.306-0.352,0.488
		c-0.125,0.171-0.261,0.307-0.398,0.488c-0.136,0.171-0.216,0.352-0.352,0.534c-0.137,0.216-0.273,0.398-0.398,0.614
		c-0.136,0.182-0.227,0.398-0.364,0.625c-0.125,0.227-0.261,0.443-0.398,0.671c-0.125,0.216-0.216,0.488-0.352,0.704
		c-0.136,0.272-0.261,0.534-0.397,0.795c-0.137,0.318-0.227,0.625-0.353,0.898c-0.136,0.306-0.273,0.659-0.408,1.011
		c-0.08,0.364-0.216,0.761-0.352,1.113c-0.125,0.443-0.262,0.886-0.353,1.375c-0.182,0.58-0.261,1.159-0.397,1.772
		c-0.137,0.897-0.273,1.784-0.352,2.715c-0.136,1.102-0.182,2.215-0.182,3.374c0,1.148,0.046,2.261,0.182,3.329
		c0.08,0.932,0.171,1.863,0.352,2.749c0.136,0.568,0.216,1.148,0.397,1.727c0.091,0.488,0.227,0.932,0.353,1.375
		c0.136,0.398,0.273,0.761,0.352,1.159c0.136,0.307,0.273,0.659,0.408,0.977c0.125,0.306,0.216,0.568,0.353,0.886
		c0.136,0.261,0.261,0.534,0.397,0.796c0.091,0.227,0.227,0.488,0.352,0.749c0.137,0.182,0.273,0.455,0.398,0.625
		c0.091,0.227,0.227,0.443,0.364,0.671c0.125,0.17,0.261,0.352,0.398,0.579c0.091,0.171,0.216,0.353,0.352,0.523
		c0.137,0.182,0.273,0.318,0.398,0.488c0.091,0.182,0.227,0.364,0.352,0.488c0.137,0.182,0.273,0.318,0.364,0.488
		c0.125,0.136,0.261,0.273,0.398,0.397c0.136,0.182,0.216,0.318,0.352,0.455c0.137,0.125,0.273,0.261,0.398,0.397
		c0.091,0.091,0.227,0.216,0.363,0.353c0.125,0.136,0.261,0.216,0.352,0.352c0.136,0.136,0.261,0.227,0.398,0.352
		c0.136,0.091,0.216,0.182,0.352,0.318c0.136,0.136,0.273,0.17,0.398,0.306c0.091,0.091,0.227,0.182,0.363,0.307
		c0.125,0.091,0.261,0.182,0.352,0.272c0.136,0.091,0.261,0.182,0.398,0.261c0.136,0.091,0.261,0.182,0.352,0.273
		c0.136,0.091,0.273,0.171,0.397,0.261c0.091,0.045,0.227,0.136,0.364,0.227c0.125,0.046,0.261,0.125,0.397,0.216
		c0.091,0.045,0.216,0.182,0.352,0.227c0.137,0.046,0.273,0.137,0.353,0.216c0.136,0.045,0.273,0.136,0.409,0.182
		c0.079,0.091,0.216,0.136,0.352,0.227c0.125,0.034,0.262,0.125,0.398,0.17c0.091,0.045,0.216,0.136,0.352,0.182
		c0.137,0.091,0.273,0.125,0.398,0.17c0.091,0.045,0.227,0.136,0.364,0.182c0.125,0.045,0.261,0.136,0.352,0.182
		c0.137,0.045,0.261,0.079,0.398,0.17c0.136,0.045,0.227,0.091,0.352,0.136c0.137,0.045,0.273,0.091,0.398,0.136
		c0.136,0.046,0.227,0.091,0.364,0.171c0.125,0.045,0.261,0.091,0.398,0.136c0.091,0,0.216,0.091,0.352,0.136
		c0.136,0,0.261,0.046,0.352,0.091c0.137,0.08,0.273,0.08,0.398,0.125c0.091,0.045,0.227,0.091,0.363,0.136
		c0.125,0,0.261,0.045,0.398,0.091c0.091,0.045,0.216,0.091,0.352,0.136c0.136,0,0.273,0.034,0.397,0.08
		c0.091,0,0.227,0.045,0.353,0.091l0.363,0.091c0.125,0.046,0.261,0.046,0.397,0.091c0.137,0.046,0.216,0.046,0.353,0.046
		c0.136,0.045,0.273,0.091,0.397,0.091c0.091,0.034,0.227,0.034,0.364,0.079c0.125,0,0.261,0.045,0.398,0.091
		c0.091,0,0.216,0.045,0.352,0.045c0.137,0,0.216,0.045,0.398,0.045c0.091,0.045,0.227,0.045,0.352,0.045l0.363,0.091l0.398,0.046
		l0.352,0.034l0.398,0.046l0.352,0.045c0.137,0,0.227,0.045,0.364,0.045c0.125,0,0.261,0,0.398,0l0.352,0.046l0.398,0.045h0.716
		c0.125,0,0.261,0,0.398,0.046h3.726l0.397-0.046h0.716l0.397-0.045h0.352l0.398-0.046h0.352l0.409-0.045l0.704-0.091h0.398
		l0.716-0.079l0.398-0.045l0.352-0.045l0.398-0.045l0.716-0.091l0.796-0.17l0.716-0.091l0.398-0.046l0.352-0.091l0.397-0.045
		l0.364-0.091l0.398-0.045l0.352-0.08l0.398-0.045l0.352-0.137l0.364-0.045l0.398-0.091l0.352-0.091l0.398-0.08l0.716-0.182
		l0.796-0.182l0.704-0.171l0.409-0.136l0.352-0.091l0.398-0.091l0.352-0.125l0.352-0.091l0.409-0.137l0.397-0.091l0.352-0.091
		l0.353-0.125l0.397-0.137l0.364-0.136l0.397-0.079l0.704-0.273l0.409-0.136l0.352-0.125l0.398-0.136l0.352-0.137l0.398-0.137
		l0.364-0.17l0.352-0.136l0.398-0.136l0.352-0.125l0.398-0.182l0.363-0.137l0.352-0.171l0.398-0.136l0.352-0.182l0.398-0.171
		l0.363-0.136l0.398-0.182l0.352-0.17l0.397-0.182l0.364-0.171l0.398-0.182l0.352-0.182l0.398-0.171l0.716-0.363l0.398-0.171
		l0.352-0.182l0.398-0.17l0.716-0.364l0.398-0.216v16.371l-0.398,0.091l-0.716,0.182l-0.398,0.08l-0.352,0.091l-0.398,0.091
		l-0.716,0.182l-0.398,0.079l-0.352,0.091l-0.534,0.273l-0.716,0.17l-0.398,0.091l-0.352,0.091l-0.398,0.045l-0.364,0.091
		l-0.398,0.091l-0.352,0.08l-0.398,0.045l-0.352,0.091l-0.364,0.046l-0.398,0.091l-0.352,0.045l-0.397,0.08l-0.352,0.091
		l-0.364,0.045l-0.398,0.091l-0.352,0.045l-0.397,0.091l-0.352,0.046l-0.364,0.079l-0.397,0.045l-0.353,0.091l-0.397,0.045
		l-0.352,0.091l-0.409,0.046l-0.352,0.045l-0.398,0.046l-0.352,0.079l-0.363,0.045l-0.398,0.045l-0.352,0.091l-0.398,0.045
		l-0.352,0.046l-0.409,0.091l-0.704,0.079l-0.398,0.045l-0.352,0.045l-0.409,0.091h-0.352l-0.397,0.091l-0.353,0.045l-0.397,0.045
		l-0.716,0.091l-0.397,0.034l-0.352,0.046l-0.398,0.045h-0.363l-0.352,0.045l-0.795,0.091l-0.364,0.046h-0.352l-0.398,0.045
		l-0.352,0.046l-0.398,0.045h-0.364l-0.352,0.046h-0.398l-0.352,0.034h-0.398l-0.363,0.045h-0.352l-0.398,0.045h-0.352l-0.398,0.045
		h-0.932l-0.182,0.045h-0.761l-0.352,0.045h-1.148l-0.364,0.045h-1.148l-0.352,0.045h-6.93l-0.398-0.045h-1.113l-0.352-0.045h-0.75
		l-0.398-0.045h-0.364l-0.397-0.045h-0.353l-0.352,0.045h-0.364l-0.398-0.045h-0.352l-0.397-0.045h-0.353l-0.363-0.045h-0.397
		l-0.353-0.045h-0.397l-0.352-0.034l-0.409-0.046h-0.352l-0.353-0.045l-0.397-0.046l-0.363-0.045l-0.398-0.046l-0.704-0.091
		l-0.398-0.045l-0.363-0.045l-0.398-0.046l-0.352-0.034l-0.398-0.045l-0.352-0.046l-0.364-0.091h-0.398l-0.352-0.091l-0.352-0.045
		l-0.398-0.045l-0.364-0.091l-0.398-0.034l-0.352-0.045l-0.398-0.091l-0.352-0.046l-0.409-0.091l-0.353-0.045l-0.352-0.091
		l-0.397-0.034l-0.364-0.091l-0.397-0.045l-0.352-0.091l-0.398-0.091l-0.352-0.091l-0.409-0.08l-0.704-0.182l-0.398-0.091
		l-0.352-0.091l-0.409-0.091l-0.352-0.08l-0.398-0.136l-0.352-0.091l-0.398-0.091l-0.364-0.125l-0.352-0.091l-0.398-0.091
		l-0.352-0.136l-0.398-0.125l-0.364-0.091l-0.397-0.091c-0.091-0.046-0.216-0.091-0.352-0.137c-0.137-0.045-0.273-0.091-0.353-0.137
		l-0.273-0.17l-0.397-0.136c-0.137-0.045-0.216-0.091-0.353-0.136c-0.136-0.034-0.273-0.08-0.397-0.125l-0.363-0.137
		c-0.125-0.045-0.262-0.136-0.398-0.136l-0.352-0.17l-0.398-0.137l-0.352-0.182l-0.363-0.125l-0.398-0.182l-0.352-0.182
		l-0.398-0.125l-0.716-0.364l-0.398-0.171c-0.136-0.091-0.216-0.136-0.352-0.182l-0.398-0.216l-0.364-0.182l-0.398-0.182
		c-0.125-0.08-0.216-0.125-0.352-0.171c-0.136-0.091-0.261-0.182-0.397-0.227l-0.353-0.17l-0.363-0.227l-0.397-0.136
		c-0.125-0.091-0.216-0.125-0.353-0.216c-0.136-0.045-0.261-0.136-0.352-0.182l-0.398-0.261c-0.136-0.046-0.227-0.137-0.364-0.227
		c-0.125-0.091-0.261-0.137-0.397-0.216L194,427.571c-0.136-0.091-0.273-0.182-0.397-0.261l-0.352-0.227
		c-0.136-0.091-0.273-0.216-0.409-0.261c-0.125-0.091-0.216-0.182-0.352-0.273c-0.137-0.091-0.261-0.17-0.352-0.261
		c-0.137-0.091-0.273-0.227-0.398-0.318c-0.137-0.08-0.227-0.171-0.363-0.261c-0.125-0.091-0.261-0.182-0.398-0.307
		c-0.261-0.227-0.534-0.443-0.795-0.67v89.249h57.689c0.091,0,0.227,0,0.352,0c0.136,0,0.227,0,0.364,0
		c0.125,0,0.261-0.046,0.398-0.046h0.352l0.398-0.045c0.091,0,0.227,0,0.352,0c0.136,0,0.227,0,0.363-0.045h0.398
		c0.136-0.045,0.216-0.045,0.352-0.045c0.136-0.045,0.261-0.045,0.398-0.045c0.136-0.045,0.227-0.045,0.352-0.045
		c0.136-0.045,0.273-0.045,0.408-0.045l0.353-0.045c0.136-0.045,0.261-0.045,0.397-0.079c0.137,0,0.227-0.046,0.352-0.046
		c0.137-0.045,0.227-0.045,0.398-0.091l0.364-0.045l0.352-0.091c0.137,0,0.262-0.046,0.398-0.091c0.137,0,0.227-0.045,0.352-0.045
		l0.409-0.08l0.352-0.091c0.125-0.045,0.261-0.091,0.398-0.091c0.091-0.045,0.216-0.091,0.352-0.136
		c0.136,0,0.227-0.045,0.398-0.091c0.091-0.045,0.227-0.045,0.363-0.08l0.352-0.136l0.398-0.091
		c0.136-0.045,0.227-0.091,0.352-0.136c0.136-0.045,0.227-0.045,0.397-0.08c0.136-0.045,0.227-0.091,0.364-0.136l0.352-0.137
		l0.398-0.136c0.136-0.045,0.227-0.08,0.352-0.125c0.136-0.046,0.273-0.137,0.397-0.182c0.137-0.045,0.227-0.091,0.364-0.136
		c0.125-0.045,0.261-0.091,0.397-0.125l0.705-0.364l0.397-0.125c0.137-0.091,0.273-0.137,0.363-0.182
		c0.125-0.091,0.262-0.136,0.398-0.182c0.136-0.079,0.216-0.125,0.352-0.216c0.137-0.045,0.273-0.091,0.398-0.182
		c0.137-0.045,0.227-0.137,0.364-0.17c0.125-0.091,0.261-0.137,0.352-0.227l0.398-0.182l0.352-0.171l0.398-0.227
		c0.136-0.091,0.227-0.125,0.364-0.17c0.125-0.091,0.261-0.182,0.352-0.227c0.182-0.091,0.261-0.182,0.398-0.216
		c0.136-0.091,0.227-0.182,0.352-0.227c0.137-0.091,0.273-0.182,0.398-0.261c0.136-0.091,0.227-0.182,0.363-0.227
		c0.125-0.091,0.261-0.182,0.398-0.216c0.136-0.091,0.216-0.182,0.352-0.273c0.136-0.091,0.273-0.182,0.397-0.261
		c0.137-0.091,0.227-0.182,0.364-0.273c0.125-0.091,0.261-0.17,0.352-0.261c0.125-0.091,0.261-0.182,0.397-0.272
		c0.137-0.125,0.262-0.216,0.398-0.307c0.091-0.091,0.227-0.182,0.352-0.261c0.137-0.091,0.227-0.227,0.364-0.318
		c0.125-0.125,0.261-0.171,0.398-0.306c0.125-0.137,0.216-0.227,0.352-0.307c0.137-0.136,0.261-0.227,0.398-0.363
		c0.137-0.091,0.227-0.17,0.352-0.307c0.137-0.136,0.273-0.227,0.364-0.352c0.125-0.136,0.261-0.227,0.398-0.363l0.398-0.352
		c0.091-0.136,0.216-0.261,0.352-0.398l0.352-0.352c0.137-0.136,0.272-0.272,0.409-0.398c0.125-0.136,0.216-0.273,0.352-0.409
		c0.136-0.125,0.261-0.261,0.398-0.397c0.091-0.17,0.227-0.307,0.352-0.443c0.136-0.125,0.272-0.307,0.352-0.443
		c0.136-0.171,0.273-0.306,0.409-0.489c0.125-0.125,0.216-0.307,0.352-0.443c0.136-0.171,0.261-0.306,0.397-0.488
		c0.091-0.17,0.227-0.352,0.353-0.534c0.136-0.125,0.272-0.307,0.363-0.488c0.125-0.17,0.261-0.352,0.398-0.534
		c0.125-0.216,0.216-0.397,0.397-0.568c0.091-0.182,0.216-0.398,0.352-0.58c0.137-0.182,0.227-0.398,0.352-0.625
		c0.136-0.17,0.273-0.398,0.409-0.614c0.125-0.227,0.216-0.454,0.352-0.67c0.137-0.227,0.261-0.443,0.398-0.671
		c0.091-0.216,0.216-0.488,0.352-0.75c0.137-0.227,0.273-0.488,0.352-0.75c0.137-0.272,0.273-0.534,0.409-0.806
		c0.125-0.307,0.216-0.579,0.352-0.886c0.137-0.306,0.261-0.579,0.398-0.932c0.136-0.306,0.227-0.671,0.352-1.022
		c0.137-0.352,0.273-0.75,0.398-1.102c0.136-0.409,0.227-0.806,0.363-1.25c0.125-0.488,0.261-0.932,0.352-1.42
		c0.182-0.579,0.261-1.147,0.398-1.727c0.136-0.761,0.261-1.557,0.352-2.306c0.227-1.648,0.318-3.284,0.318-4.976V282.065H284.931z
		 M177.982,282.065h-56.985c-0.137,0-0.261,0-0.398,0h-0.352c-0.137,0-0.273,0.034-0.363,0.034c-0.125,0-0.261,0-0.398,0
		c-0.125,0-0.216,0-0.352,0.045c-0.137,0-0.261,0-0.398,0l-0.352,0.045l-0.409,0.045c-0.079,0-0.216,0.045-0.352,0.045l-0.398,0.045
		l-0.352,0.046c-0.136,0-0.273,0-0.352,0.045c-0.136,0-0.273,0.046-0.409,0.046c-0.125,0-0.216,0.045-0.352,0.045l-0.397,0.08
		c-0.091,0-0.227,0.045-0.353,0.045c-0.136,0.045-0.273,0.045-0.397,0.091c-0.091,0.045-0.227,0.045-0.363,0.091l-0.398,0.046
		l-0.352,0.091c-0.137,0.045-0.261,0.079-0.398,0.079c-0.091,0.045-0.227,0.091-0.352,0.091c-0.137,0.045-0.273,0.045-0.363,0.091
		c-0.125,0.045-0.261,0.091-0.398,0.091l-0.352,0.136c-0.137,0-0.272,0.046-0.398,0.08c-0.136,0.045-0.227,0.091-0.352,0.091
		c-0.137,0.045-0.272,0.091-0.409,0.136c-0.079,0.045-0.216,0.091-0.352,0.137l-0.352,0.125l-0.398,0.136
		c-0.136,0.045-0.273,0.045-0.364,0.136c-0.125,0-0.261,0.046-0.398,0.091c-0.125,0.046-0.216,0.125-0.352,0.171l-0.306,0.136
		l-0.364,0.136l-0.397,0.171c-0.125,0.045-0.216,0.091-0.352,0.136c-0.137,0.046-0.261,0.137-0.398,0.182l-0.352,0.171
		c-0.137,0.045-0.273,0.091-0.409,0.182c-0.079,0.045-0.216,0.091-0.352,0.182c-0.125,0.034-0.216,0.08-0.352,0.171l-0.398,0.182
		c-0.137,0.045-0.227,0.136-0.352,0.216c-0.137,0.045-0.273,0.091-0.409,0.182c-0.079,0.046-0.216,0.137-0.352,0.182
		c-0.136,0.08-0.261,0.171-0.352,0.216c-0.137,0.091-0.272,0.137-0.398,0.227c-0.136,0.045-0.227,0.125-0.352,0.17l-0.409,0.227
		c-0.125,0.091-0.216,0.171-0.352,0.216c-0.136,0.091-0.261,0.182-0.398,0.273c-0.091,0.046-0.227,0.125-0.352,0.216
		c-0.136,0.091-0.273,0.182-0.364,0.227c-0.125,0.091-0.261,0.171-0.398,0.261c-0.125,0.091-0.216,0.182-0.352,0.273
		c-0.136,0.091-0.261,0.171-0.397,0.262l-0.353,0.272c-0.136,0.079-0.273,0.216-0.408,0.306c-0.125,0.091-0.216,0.182-0.352,0.261
		c-0.137,0.091-0.262,0.182-0.398,0.318c-0.137,0.091-0.216,0.171-0.352,0.261c-0.137,0.137-0.272,0.227-0.352,0.352
		c-0.136,0.091-0.273,0.182-0.409,0.318c-0.125,0.091-0.216,0.171-0.352,0.307c-0.137,0.091-0.261,0.227-0.398,0.307
		c-0.137,0.136-0.227,0.227-0.352,0.364c-0.137,0.125-0.272,0.216-0.398,0.352l-0.364,0.352c-0.125,0.136-0.261,0.273-0.398,0.398
		c-0.136,0.136-0.216,0.227-0.352,0.364c-0.136,0.125-0.261,0.261-0.352,0.397c-0.137,0.125-0.273,0.261-0.398,0.398
		c-0.136,0.137-0.273,0.261-0.364,0.398c-0.125,0.182-0.261,0.307-0.398,0.443c-0.136,0.137-0.261,0.273-0.352,0.443
		c-0.136,0.137-0.273,0.318-0.397,0.443c-0.136,0.136-0.273,0.318-0.364,0.443c-0.125,0.182-0.261,0.364-0.397,0.488
		c-0.08,0.182-0.216,0.364-0.352,0.534c-0.137,0.136-0.262,0.306-0.398,0.488c-0.091,0.182-0.227,0.352-0.352,0.534
		c-0.136,0.182-0.273,0.397-0.364,0.579c-0.125,0.171-0.261,0.352-0.397,0.579c-0.125,0.171-0.261,0.398-0.352,0.568
		c-0.137,0.227-0.261,0.397-0.398,0.625c-0.137,0.227-0.273,0.443-0.352,0.671c-0.137,0.216-0.273,0.443-0.409,0.659
		c-0.079,0.227-0.216,0.488-0.352,0.716c-0.137,0.261-0.261,0.489-0.398,0.75c-0.091,0.272-0.227,0.534-0.352,0.795
		c-0.136,0.318-0.273,0.579-0.352,0.852c-0.137,0.307-0.273,0.614-0.409,0.932c-0.125,0.307-0.216,0.659-0.352,0.977l-0.398,1.102
		c-0.136,0.398-0.227,0.806-0.352,1.204c-0.136,0.443-0.273,0.886-0.398,1.374c-0.136,0.534-0.273,1.068-0.364,1.591
		c-0.534,2.579-0.795,5.191-0.795,7.862v95.451c0.261,0.137,0.534,0.272,0.795,0.398l0.364,0.182l0.398,0.182l0.352,0.17
		l0.398,0.182l0.352,0.171l0.409,0.182l0.704,0.352l0.398,0.136l0.352,0.182l0.409,0.171l0.352,0.182l0.398,0.137l0.352,0.17
		l0.397,0.136l0.716,0.352l0.398,0.136l0.352,0.137l0.397,0.17l0.364,0.136l0.397,0.136l0.352,0.125l0.398,0.182l0.364,0.136
		l0.398,0.137l0.704,0.261l0.398,0.136l0.364,0.125l0.398,0.136l0.352,0.091l0.398,0.136l0.352,0.125l0.409,0.136l0.352,0.091
		l0.352,0.137l0.398,0.079l0.352,0.136l0.408,0.091l0.353,0.136l0.397,0.091l0.352,0.08l0.398,0.091l0.364,0.137l0.352,0.091
		l0.398,0.079l0.352,0.091l0.409,0.091l0.352,0.091l0.398,0.091l0.704,0.171l0.409,0.091l0.352,0.046l0.398,0.091l0.704,0.182
		l0.409,0.034l0.352,0.045l0.398,0.091l0.352,0.045l0.397,0.091l0.364,0.045l0.397,0.045l0.705,0.079l0.397,0.091l0.364,0.045
		l0.397,0.046l0.352,0.045h0.398l0.716,0.091h0.398l0.352,0.046l0.398,0.045l0.364,0.046h0.75l0.398,0.034h1.511l0.352,0.045h1.114
		l0.397-0.045c0.091,0,0.227,0,0.352,0c0.137,0,0.273,0,0.398,0c0.091,0,0.227,0,0.364-0.034c0.125,0,0.261,0,0.398,0
		c0.091,0,0.216,0,0.352-0.046c0.137,0,0.273,0,0.352-0.045l0.409-0.046c0.125,0,0.216,0,0.352-0.045c0.125,0,0.261,0,0.398-0.046
		l0.352-0.045c0.136,0,0.273-0.046,0.352-0.046c0.137-0.045,0.273-0.091,0.409-0.091c0.125-0.046,0.261-0.046,0.352-0.079
		c0.136,0,0.261-0.046,0.398-0.046c0.136-0.045,0.227-0.091,0.352-0.091c0.136-0.045,0.273-0.091,0.397-0.136
		c0.091-0.045,0.227-0.045,0.364-0.091c0.125-0.045,0.261-0.079,0.352-0.079c0.136-0.046,0.261-0.091,0.398-0.137
		c0.136-0.045,0.272-0.091,0.352-0.136c0.136-0.046,0.273-0.091,0.397-0.137c0.137-0.046,0.227-0.08,0.364-0.125
		c0.125-0.046,0.261-0.091,0.397-0.137l0.352-0.182c0.137-0.045,0.273-0.091,0.398-0.17c0.091-0.046,0.227-0.091,0.364-0.182
		c0.125-0.045,0.216-0.091,0.352-0.182c0.137-0.034,0.262-0.125,0.398-0.17c0.136-0.091,0.216-0.137,0.352-0.227
		c0.137-0.045,0.273-0.125,0.398-0.17c0.091-0.091,0.227-0.137,0.364-0.227c0.125-0.091,0.261-0.182,0.398-0.216
		c0.091-0.091,0.216-0.182,0.352-0.273c0.136-0.091,0.227-0.17,0.352-0.261c0.137-0.091,0.273-0.182,0.398-0.273
		c0.136-0.091,0.227-0.171,0.364-0.306c0.125-0.091,0.261-0.182,0.398-0.307c0.136-0.091,0.216-0.227,0.352-0.318
		c0.136-0.125,0.261-0.216,0.398-0.352c0.091-0.136,0.227-0.261,0.352-0.398c0.136-0.136,0.273-0.272,0.408-0.397
		c0.08-0.137,0.216-0.273,0.353-0.398c0.136-0.182,0.261-0.318,0.397-0.488c0.091-0.182,0.227-0.318,0.352-0.534
		c0.137-0.136,0.273-0.318,0.364-0.534c0.125-0.182,0.261-0.352,0.398-0.579c0.125-0.182,0.216-0.398,0.352-0.625
		c0.137-0.261,0.262-0.488,0.398-0.75c0.091-0.227,0.227-0.534,0.352-0.795c0.137-0.318,0.273-0.625,0.364-0.932
		c0.125-0.409,0.261-0.761,0.398-1.159c0.125-0.488,0.261-0.977,0.352-1.511c0.182-0.795,0.307-1.636,0.398-2.488
		c0.046-0.659,0.091-1.375,0.091-2.079v-44.863h33.241v44.863c0,1.283-0.091,2.567-0.182,3.862
		c-0.091,0.886-0.216,1.772-0.398,2.658c-0.091,0.579-0.227,1.159-0.352,1.727c-0.136,0.488-0.273,0.931-0.398,1.386
		c-0.091,0.398-0.227,0.795-0.364,1.147c-0.125,0.352-0.216,0.67-0.352,1.022c-0.136,0.261-0.261,0.579-0.397,0.886
		c-0.136,0.261-0.273,0.534-0.353,0.795c-0.136,0.273-0.273,0.488-0.397,0.761c-0.136,0.216-0.272,0.443-0.364,0.659
		c-0.125,0.227-0.261,0.443-0.397,0.625c-0.137,0.227-0.216,0.443-0.352,0.625c-0.137,0.171-0.273,0.352-0.398,0.534
		c-0.091,0.216-0.227,0.397-0.363,0.568c-0.125,0.182-0.216,0.318-0.352,0.488c-0.137,0.182-0.261,0.318-0.398,0.488
		c-0.091,0.136-0.216,0.272-0.352,0.443c-0.137,0.137-0.273,0.272-0.398,0.443c-0.091,0.136-0.227,0.272-0.364,0.409
		c-0.125,0.125-0.216,0.261-0.398,0.398c-0.091,0.125-0.216,0.216-0.352,0.352c-0.137,0.136-0.227,0.261-0.352,0.398
		c-0.137,0.091-0.273,0.227-0.398,0.318c-0.136,0.125-0.227,0.216-0.364,0.352c-0.125,0.125-0.261,0.216-0.398,0.307
		c-0.091,0.136-0.216,0.227-0.352,0.306c-0.136,0.091-0.227,0.227-0.397,0.318c-0.091,0.091-0.227,0.171-0.364,0.261
		c-0.125,0.136-0.216,0.182-0.352,0.273c-0.125,0.125-0.261,0.216-0.398,0.262c-0.136,0.091-0.216,0.227-0.352,0.272
		c-0.136,0.079-0.273,0.17-0.397,0.216c-0.136,0.136-0.227,0.227-0.364,0.273c-0.125,0.08-0.261,0.171-0.397,0.216
		c-0.091,0.091-0.216,0.182-0.352,0.227c-0.137,0.079-0.227,0.17-0.353,0.216c-0.136,0.091-0.273,0.182-0.397,0.227
		c-0.137,0.079-0.227,0.125-0.363,0.216c-0.125,0.045-0.262,0.136-0.398,0.182c-0.125,0.091-0.216,0.136-0.352,0.17
		c-0.137,0.091-0.261,0.136-0.398,0.227c-0.091,0.046-0.227,0.137-0.352,0.182c-0.137,0.034-0.273,0.08-0.363,0.171
		c-0.125,0.045-0.261,0.136-0.398,0.182l-0.352,0.17l-0.398,0.182c-0.136,0.045-0.227,0.091-0.352,0.182
		c-0.137,0.045-0.273,0.091-0.409,0.17l-0.352,0.136l-0.398,0.182c-0.136,0.046-0.227,0.079-0.352,0.125
		c-0.136,0.045-0.273,0.091-0.364,0.137c-0.125,0.091-0.261,0.136-0.398,0.182l-0.352,0.125c-0.136,0.045-0.261,0.091-0.397,0.136
		c-0.137,0.045-0.227,0.091-0.353,0.136l-0.408,0.137l-0.352,0.125c-0.137,0.045-0.262,0.091-0.398,0.091l-0.352,0.136l-0.398,0.091
		c-0.091,0.046-0.227,0.08-0.364,0.125l-0.352,0.136c-0.137,0.045-0.261,0.045-0.398,0.091l-0.352,0.091l-0.398,0.125
		c-0.136,0-0.227,0.045-0.364,0.091c-0.125,0.045-0.261,0.045-0.398,0.091l-0.352,0.091c-0.136,0.046-0.261,0.091-0.352,0.091
		c-0.137,0.046-0.273,0.091-0.398,0.091l-0.364,0.08c-0.125,0.045-0.261,0.045-0.398,0.091l-0.352,0.091l-0.397,0.046
		c-0.091,0.045-0.227,0.091-0.364,0.091l-0.352,0.079l-0.397,0.091l-0.353,0.045c-0.136,0.045-0.273,0.045-0.397,0.091
		c-0.091,0-0.227,0.045-0.364,0.045l-0.397,0.045c-0.091,0.045-0.216,0.091-0.352,0.091l-0.352,0.045l-0.398,0.08l-0.363-0.216
		c-0.125,0.045-0.261,0.045-0.398,0.091l-0.352,0.045l-0.398,0.034l-0.352,0.046l-0.409,0.045l-0.704,0.091l-0.398,0.045
		l-0.364,0.046l-0.398,0.045l-0.704,0.091l-0.398,0.046h-0.363l-0.398,0.034l-0.352,0.045h-0.397l-0.352,0.045h-0.409l-0.352,0.045
		h-0.398l-0.307,0.045l-0.364,0.045h-0.398l-0.352,0.045h-0.75l-0.408,0.045h-1.102l-0.352,0.045h-1.113l-0.398,0.046h-5.192
		l-0.398-0.046h-1.875l-0.352-0.045h-1.511l-0.352-0.045h-0.397l-0.704-0.091h-0.364l-0.398-0.045h-0.75l-0.364-0.045h-0.397
		l-0.352-0.045l-0.398-0.045h-0.352l-0.364-0.034h-0.397l-0.352-0.046h-0.398l-0.352-0.045l-0.409-0.046l-0.352-0.045h-0.352
		l-0.352-0.091h-0.364l-0.397-0.046l-0.352-0.045l-0.398-0.045h-0.352l-0.409-0.08h-0.352l-0.352-0.045l-0.398-0.046l-0.352-0.045
		l-0.409-0.045l-0.704-0.091l-0.398-0.045l-0.352-0.045l-0.409-0.045l-0.352-0.045l-0.398-0.034l-0.352-0.045l-0.364-0.091
		l-0.398-0.046l-0.352-0.045l-0.397-0.045l-0.353-0.045l-0.408-0.045l-0.352-0.08l-0.398-0.045l-0.704-0.091l-0.409-0.091
		l-0.352-0.045l-0.398-0.045l-0.352-0.091l-0.398-0.045l-0.364-0.034l-0.398-0.091l-0.352-0.045l-0.352-0.091l-0.398-0.045
		l-0.364-0.091l-0.398-0.045l-0.352-0.079l-0.397-0.091l-0.364-0.046l-0.397-0.091l-0.352-0.045l-0.398-0.091l-0.716-0.171
		l-0.397-0.045l-0.352-0.091l-0.398-0.091l-0.352-0.091l-0.409-0.045l-0.352-0.08l-0.398-0.091l-0.704-0.182l-0.409-0.091
		l-0.352-0.079l-0.398-0.091l-0.352-0.091l-0.398-0.091l-0.364-0.091c-0.534-0.17-0.795-0.216-0.795-0.216v81.478h57.552
		c0.136,0,0.273,0,0.364-0.045h0.397c0.091,0,0.216,0,0.353,0l0.397-0.045h0.352c0.137,0,0.273,0,0.364-0.045
		c0.125,0,0.261,0,0.397,0l0.352-0.045c0.137,0,0.273,0,0.398-0.045c0.091,0,0.227-0.045,0.364-0.045c0.125,0,0.216,0,0.398-0.045
		c0.091,0,0.216-0.045,0.352-0.045l0.352-0.034c0.137,0,0.273-0.046,0.398-0.046c0.137-0.045,0.227-0.045,0.364-0.091
		c0.125,0,0.261-0.045,0.398-0.045l0.352-0.091c0.136,0,0.261-0.046,0.398-0.046c0.091-0.045,0.227-0.091,0.352-0.091
		c0.136,0,0.227-0.046,0.364-0.08l0.398-0.091l0.352-0.091c0.136,0,0.261-0.045,0.398-0.091c0.091-0.045,0.227-0.045,0.352-0.091
		c0.136-0.045,0.273-0.091,0.408-0.091c0.08-0.034,0.216-0.079,0.353-0.125l0.397-0.091l0.352-0.136
		c0.137,0,0.273-0.045,0.398-0.091c0.091-0.034,0.227-0.079,0.364-0.125c0.125-0.045,0.216-0.091,0.352-0.136l0.398-0.136
		l0.352-0.125c0.137-0.045,0.272-0.091,0.409-0.136c0.125-0.046,0.216-0.091,0.352-0.137c0.125-0.045,0.261-0.091,0.398-0.136
		c0.136-0.079,0.216-0.125,0.352-0.17c0.137-0.046,0.273-0.091,0.398-0.182l0.363-0.136l0.352-0.171
		c0.136-0.045,0.261-0.136,0.398-0.182c0.136-0.045,0.227-0.136,0.352-0.17c0.136-0.091,0.273-0.137,0.398-0.182
		c0.136-0.046,0.227-0.137,0.363-0.182c0.125-0.091,0.261-0.125,0.397-0.216c0.125-0.045,0.216-0.136,0.353-0.182l0.352-0.17
		c0.136-0.091,0.273-0.137,0.397-0.227c0.136-0.091,0.227-0.136,0.364-0.182c0.125-0.08,0.261-0.171,0.397-0.216
		c0.137-0.091,0.216-0.136,0.352-0.227c0.137-0.045,0.273-0.125,0.398-0.216c0.137-0.045,0.227-0.136,0.352-0.227
		c0.137-0.091,0.273-0.17,0.364-0.216c0.125-0.091,0.261-0.182,0.397-0.272c0.137-0.045,0.261-0.125,0.352-0.216
		c0.137-0.091,0.273-0.182,0.398-0.272c0.137-0.091,0.227-0.125,0.364-0.216c0.125-0.091,0.261-0.182,0.398-0.273
		c0.125-0.08,0.216-0.216,0.352-0.261c0.136-0.091,0.261-0.227,0.352-0.306c0.137-0.091,0.273-0.182,0.398-0.272
		c0.136-0.091,0.273-0.182,0.364-0.307c0.125-0.091,0.261-0.182,0.398-0.318c0.136-0.08,0.216-0.171,0.352-0.261
		c0.136-0.136,0.261-0.227,0.398-0.352c0.136-0.091,0.227-0.182,0.352-0.318c0.136-0.125,0.273-0.216,0.363-0.352
		c0.125-0.091,0.261-0.216,0.398-0.352c0.136-0.091,0.216-0.227,0.352-0.307c0.136-0.182,0.272-0.272,0.397-0.409
		c0.091-0.125,0.227-0.216,0.364-0.352c0.125-0.136,0.261-0.261,0.397-0.398c0.08-0.136,0.216-0.261,0.353-0.352
		c0.136-0.182,0.261-0.273,0.397-0.398c0.091-0.182,0.227-0.318,0.352-0.443c0.137-0.137,0.273-0.273,0.364-0.455
		c0.125-0.125,0.261-0.261,0.398-0.443c0.125-0.125,0.216-0.261,0.352-0.443c0.137-0.171,0.261-0.307,0.398-0.488
		c0.091-0.171,0.227-0.307,0.352-0.488c0.137-0.17,0.273-0.307,0.363-0.488c0.125-0.171,0.262-0.352,0.398-0.522
		c0.125-0.182,0.261-0.364,0.352-0.534c0.137-0.227,0.261-0.397,0.398-0.579c0.091-0.182,0.227-0.398,0.352-0.58
		c0.137-0.182,0.272-0.398,0.409-0.579c0.079-0.216,0.216-0.443,0.352-0.613c0.136-0.227,0.261-0.443,0.352-0.716
		c0.137-0.171,0.273-0.443,0.398-0.659c0.136-0.227,0.273-0.488,0.352-0.716c0.137-0.261,0.273-0.534,0.409-0.795
		c0.08-0.227,0.216-0.534,0.352-0.806c0.136-0.261,0.261-0.568,0.352-0.841c0.137-0.352,0.273-0.614,0.398-0.977
		c0.136-0.306,0.273-0.659,0.363-0.977c0.125-0.398,0.261-0.75,0.398-1.148c0.125-0.397,0.216-0.806,0.352-1.249
		c0.136-0.443,0.261-0.932,0.397-1.42c0.137-0.568,0.227-1.148,0.353-1.727c0.136-0.75,0.273-1.556,0.409-2.352
		c0.17-1.602,0.307-3.238,0.307-4.93V282.065H177.982z M392.015,282.065h-57.121c-0.125,0-0.216,0-0.352,0h-0.352
		c-0.137,0-0.273,0-0.398,0.034c-0.136,0-0.272,0-0.364,0c-0.125,0-0.261,0-0.398,0.045h-0.352l-0.398,0.045
		c-0.136,0-0.227,0-0.352,0.045c-0.136,0-0.273,0-0.409,0.045h-0.352c-0.136,0.045-0.261,0.045-0.397,0.045
		c-0.137,0.046-0.227,0.046-0.352,0.046c-0.136,0.045-0.273,0.045-0.398,0.091c-0.091,0-0.227,0-0.363,0.045l-0.398,0.034
		c-0.091,0.045-0.216,0.045-0.352,0.091c-0.137,0-0.273,0.045-0.352,0.045c-0.136,0.045-0.273,0.045-0.409,0.091l-0.352,0.045
		l-0.398,0.091c-0.091,0.046-0.216,0.091-0.352,0.091c-0.137,0.034-0.272,0.034-0.352,0.08c-0.137,0.045-0.273,0.091-0.409,0.091
		l-0.352,0.091c-0.137,0.046-0.261,0.091-0.398,0.137c-0.136,0.045-0.261,0.045-0.352,0.091c-0.137,0.034-0.273,0.079-0.398,0.125
		c-0.136,0-0.227,0.045-0.363,0.091c-0.125,0.045-0.261,0.091-0.398,0.136l-0.352,0.091c-0.136,0.034-0.261,0.08-0.397,0.125
		c-0.137,0.045-0.227,0.091-0.352,0.136c-0.136,0.046-0.273,0.091-0.409,0.137c-0.125,0.045-0.216,0.091-0.352,0.125l-0.353,0.182
		l-0.397,0.136c-0.137,0.045-0.272,0.091-0.398,0.137c-0.091,0.034-0.227,0.125-0.364,0.171c-0.125,0.045-0.261,0.091-0.352,0.136
		c-0.137,0.091-0.261,0.137-0.398,0.171c-0.137,0.045-0.227,0.136-0.352,0.182c-0.137,0.045-0.273,0.136-0.398,0.182l-0.364,0.171
		c-0.125,0.091-0.216,0.136-0.352,0.227c-0.137,0.046-0.261,0.091-0.398,0.182c-0.136,0.034-0.227,0.125-0.397,0.171
		c-0.091,0.091-0.227,0.137-0.364,0.227c-0.125,0.045-0.216,0.125-0.352,0.17c-0.136,0.091-0.261,0.136-0.398,0.227
		c-0.136,0.091-0.216,0.136-0.352,0.216c-0.136,0.045-0.227,0.136-0.397,0.227c-0.136,0.045-0.227,0.136-0.364,0.216l-0.352,0.227
		c-0.136,0.091-0.261,0.182-0.397,0.261l-0.398,0.227l-0.352,0.261c-0.137,0.091-0.272,0.182-0.409,0.272l-0.352,0.261
		c-0.137,0.091-0.216,0.182-0.352,0.273c-0.137,0.08-0.261,0.171-0.398,0.261l-0.352,0.272l-0.409,0.307
		c-0.079,0.091-0.216,0.216-0.352,0.307c-0.136,0.091-0.216,0.182-0.352,0.318c-0.137,0.08-0.272,0.171-0.398,0.307
		c-0.136,0.091-0.227,0.216-0.398,0.307c-0.091,0.136-0.227,0.227-0.364,0.364c-0.125,0.079-0.216,0.216-0.352,0.306
		c-0.136,0.136-0.261,0.261-0.398,0.352c-0.136,0.136-0.227,0.273-0.352,0.352c-0.136,0.136-0.273,0.272-0.409,0.409
		c-0.125,0.125-0.216,0.261-0.353,0.352c-0.125,0.125-0.261,0.261-0.397,0.397c-0.091,0.137-0.216,0.261-0.352,0.398
		c-0.137,0.137-0.273,0.307-0.353,0.443c-0.136,0.137-0.272,0.273-0.408,0.398c-0.125,0.136-0.216,0.318-0.352,0.443
		c-0.137,0.182-0.262,0.318-0.398,0.443c-0.137,0.182-0.227,0.318-0.352,0.488c-0.137,0.136-0.273,0.318-0.352,0.488
		c-0.136,0.136-0.273,0.318-0.409,0.488c-0.125,0.182-0.261,0.318-0.352,0.488c-0.137,0.182-0.261,0.363-0.398,0.534
		c-0.137,0.227-0.227,0.398-0.352,0.579c-0.137,0.182-0.272,0.398-0.398,0.579c-0.136,0.171-0.227,0.398-0.364,0.58
		c-0.125,0.216-0.261,0.443-0.398,0.613c-0.136,0.227-0.216,0.443-0.352,0.67c-0.136,0.216-0.273,0.443-0.352,0.659
		c-0.137,0.273-0.272,0.488-0.398,0.761c-0.136,0.216-0.227,0.488-0.364,0.75c-0.17,0.273-0.261,0.488-0.398,0.807
		c-0.136,0.261-0.216,0.568-0.352,0.841c-0.136,0.306-0.273,0.613-0.397,0.932c-0.136,0.306-0.227,0.659-0.364,0.977
		c-0.125,0.352-0.261,0.704-0.352,1.057c-0.17,0.409-0.261,0.806-0.397,1.204c-0.137,0.488-0.262,0.931-0.353,1.374
		c-0.182,0.534-0.273,1.114-0.397,1.647c-0.534,2.522-0.807,5.192-0.807,7.85v40.16h56.712l0.364,0.045h0.352l0.398,0.046h0.761
		l0.216,0.045h0.137l0.398,0.046h0.352l0.352,0.045h0.409l0.352,0.046l0.398,0.034l0.352,0.045l0.397,0.045l0.364,0.045l0.397,0.045
		c0.091,0.045,0.216,0.045,0.352,0.091l0.353,0.045c0.136,0.045,0.273,0.045,0.409,0.091c0.125,0,0.216,0.045,0.352,0.079
		l0.398,0.045c0.136,0.045,0.216,0.091,0.352,0.091c0.137,0.045,0.273,0.091,0.398,0.091l0.364,0.091
		c0.125,0.045,0.261,0.091,0.398,0.091c0.125,0.034,0.216,0.079,0.352,0.125c0.136,0.045,0.261,0.091,0.352,0.136
		c0.137,0,0.273,0.045,0.398,0.091c0.136,0.045,0.227,0.091,0.364,0.136c0.125,0.034,0.261,0.08,0.398,0.125
		c0.125,0.045,0.216,0.091,0.352,0.136c0.136,0.045,0.261,0.091,0.398,0.136c0.136,0.046,0.227,0.091,0.352,0.125
		c0.136,0.091,0.272,0.136,0.408,0.182c0.08,0.045,0.216,0.091,0.353,0.182c0.136,0.045,0.261,0.079,0.397,0.125
		c0.137,0.091,0.227,0.136,0.352,0.227c0.137,0.046,0.273,0.091,0.398,0.182c0.091,0.034,0.227,0.125,0.364,0.171
		c0.125,0.091,0.261,0.137,0.352,0.227c0.137,0.045,0.262,0.125,0.398,0.216c0.137,0.045,0.273,0.136,0.352,0.227
		c0.137,0.091,0.272,0.125,0.398,0.216c0.091,0.092,0.227,0.182,0.364,0.273c0.125,0.045,0.216,0.125,0.398,0.216
		c0.091,0.136,0.216,0.227,0.352,0.318c0.137,0.079,0.227,0.17,0.398,0.261c0.091,0.091,0.227,0.227,0.363,0.307
		c0.125,0.136,0.216,0.227,0.352,0.364c0.136,0.079,0.261,0.216,0.398,0.352c0.136,0.091,0.216,0.216,0.352,0.352
		c0.136,0.137,0.273,0.272,0.398,0.398c0.091,0.136,0.227,0.273,0.363,0.397c0.125,0.137,0.261,0.318,0.397,0.455
		c0.125,0.17,0.216,0.306,0.353,0.477c0.136,0.182,0.261,0.364,0.397,0.534c0.091,0.182,0.227,0.364,0.352,0.579
		c0.136,0.182,0.273,0.398,0.364,0.625c0.125,0.216,0.261,0.489,0.397,0.704c0.137,0.272,0.216,0.579,0.352,0.852
		c0.137,0.352,0.262,0.704,0.398,1.011c0.137,0.443,0.273,0.898,0.352,1.341c0.182,0.75,0.318,1.499,0.409,2.26
		c0.045,0.613,0.079,1.238,0.079,1.863s-0.034,1.193-0.079,1.818c-0.091,0.75-0.227,1.466-0.409,2.215
		c-0.079,0.443-0.216,0.886-0.352,1.295c-0.136,0.352-0.261,0.704-0.398,1.011c-0.136,0.273-0.216,0.58-0.352,0.853
		c-0.136,0.261-0.273,0.534-0.397,0.75c-0.091,0.227-0.227,0.443-0.364,0.67c-0.125,0.171-0.261,0.398-0.352,0.568
		c-0.136,0.227-0.261,0.409-0.397,0.579c-0.137,0.136-0.227,0.318-0.353,0.488c-0.136,0.136-0.272,0.318-0.397,0.443
		c-0.137,0.182-0.227,0.318-0.363,0.443c-0.125,0.136-0.262,0.273-0.398,0.397c-0.137,0.137-0.216,0.273-0.352,0.409l-0.398,0.352
		c-0.137,0.091-0.227,0.216-0.352,0.307c-0.137,0.137-0.272,0.227-0.363,0.352c-0.125,0.091-0.261,0.182-0.398,0.318
		c-0.136,0.091-0.216,0.17-0.352,0.261c-0.137,0.091-0.272,0.182-0.398,0.273c-0.136,0.091-0.273,0.171-0.364,0.261
		c-0.125,0.091-0.261,0.182-0.398,0.272c-0.079,0.034-0.216,0.125-0.352,0.216c-0.136,0.091-0.261,0.137-0.398,0.227
		c-0.091,0.045-0.227,0.125-0.352,0.17c-0.136,0.091-0.273,0.182-0.364,0.227c-0.125,0.046-0.261,0.137-0.398,0.171
		c-0.125,0.091-0.216,0.136-0.352,0.182c-0.136,0.091-0.261,0.136-0.397,0.227c-0.137,0.034-0.227,0.079-0.353,0.125
		c-0.136,0.091-0.273,0.136-0.408,0.182c-0.125,0.045-0.216,0.091-0.352,0.182c-0.137,0.034-0.262,0.079-0.398,0.125
		c-0.137,0.045-0.227,0.091-0.352,0.136c-0.137,0.045-0.273,0.091-0.398,0.136c-0.137,0.046-0.227,0.091-0.364,0.125
		c-0.125,0-0.261,0.045-0.398,0.091c-0.091,0.045-0.216,0.091-0.352,0.137c-0.137,0.045-0.227,0.045-0.352,0.091
		c-0.137,0.045-0.273,0.091-0.398,0.091c-0.136,0.034-0.227,0.079-0.364,0.125c-0.125,0-0.261,0.045-0.398,0.045l-0.352,0.091
		c-0.136,0.045-0.273,0.045-0.398,0.091l-0.352,0.091c-0.136,0-0.273,0.045-0.409,0.045l-0.353,0.08l-0.352,0.045v0.443h0.352
		l0.398,0.045l0.716,0.091l0.796,0.091l0.352,0.045c0.137,0,0.273,0,0.364,0.046l0.398,0.045c0.125,0.034,0.216,0.034,0.352,0.08
		l0.398,0.045l0.352,0.091c0.136,0,0.273,0.045,0.364,0.045c0.125,0.045,0.261,0.045,0.398,0.091
		c0.125,0.045,0.261,0.045,0.397,0.091c0.091,0.045,0.216,0.045,0.353,0.079c0.136,0.046,0.272,0.046,0.352,0.091
		c0.136,0.045,0.272,0.091,0.408,0.091c0.125,0.045,0.216,0.091,0.398,0.136l0.352,0.091c0.091,0.046,0.227,0.08,0.352,0.125
		c0.137,0.045,0.273,0.091,0.398,0.136c0.137,0.045,0.227,0.045,0.364,0.091c0.125,0.045,0.261,0.137,0.398,0.137
		c0.091,0.034,0.216,0.079,0.352,0.125c0.137,0.045,0.273,0.091,0.352,0.182c0.137,0.045,0.272,0.091,0.398,0.136
		c0.137,0.046,0.227,0.125,0.364,0.171c0.125,0.045,0.261,0.091,0.398,0.136c0.091,0.091,0.216,0.136,0.352,0.182
		c0.137,0.045,0.273,0.125,0.398,0.17c0.136,0.091,0.227,0.137,0.363,0.227c0.125,0.045,0.216,0.125,0.398,0.17
		c0.091,0.045,0.216,0.136,0.352,0.182c0.136,0.091,0.216,0.182,0.352,0.227c0.136,0.08,0.273,0.125,0.398,0.216
		c0.136,0.091,0.227,0.182,0.363,0.227c0.125,0.079,0.261,0.17,0.397,0.261c0.125,0.045,0.216,0.136,0.353,0.227
		c0.136,0.08,0.261,0.171,0.397,0.261c0.137,0.091,0.227,0.182,0.352,0.261c0.136,0.091,0.273,0.227,0.409,0.318
		c0.079,0.091,0.216,0.171,0.352,0.307c0.137,0.091,0.261,0.182,0.352,0.306c0.137,0.091,0.262,0.227,0.398,0.318
		c0.137,0.137,0.227,0.261,0.352,0.352c0.137,0.136,0.273,0.273,0.409,0.398c0.125,0.137,0.216,0.272,0.352,0.398
		c0.182,0.136,0.261,0.273,0.398,0.409c0.136,0.171,0.227,0.307,0.352,0.443c0.137,0.17,0.273,0.352,0.398,0.522
		c0.136,0.136,0.227,0.318,0.363,0.488c0.125,0.227,0.261,0.409,0.398,0.58c0.136,0.227,0.216,0.443,0.352,0.625
		c0.136,0.261,0.273,0.488,0.397,0.704c0.091,0.318,0.227,0.579,0.364,0.852c0.125,0.306,0.261,0.613,0.352,0.977
		c0.17,0.398,0.261,0.796,0.397,1.193c0.137,0.625,0.262,1.238,0.353,1.909c0.136,0.75,0.182,1.602,0.182,2.397
		c0,0.886-0.046,1.681-0.182,2.488c-0.091,0.659-0.216,1.33-0.353,1.954c-0.136,0.443-0.227,0.84-0.397,1.283
		c-0.091,0.307-0.227,0.659-0.352,0.977c-0.136,0.306-0.227,0.579-0.364,0.84c-0.125,0.261-0.261,0.534-0.397,0.75
		c-0.137,0.227-0.216,0.443-0.352,0.67c-0.137,0.182-0.273,0.398-0.398,0.579c-0.137,0.171-0.227,0.352-0.363,0.534
		c-0.125,0.171-0.261,0.352-0.398,0.534c-0.125,0.171-0.216,0.307-0.352,0.488c-0.137,0.125-0.261,0.261-0.398,0.443
		c-0.091,0.125-0.227,0.261-0.352,0.398c-0.137,0.125-0.273,0.216-0.409,0.398c-0.125,0.136-0.216,0.216-0.352,0.352
		c-0.136,0.136-0.216,0.227-0.398,0.352c-0.091,0.091-0.216,0.182-0.352,0.318c-0.136,0.125-0.273,0.216-0.352,0.306
		c-0.136,0.091-0.273,0.182-0.409,0.307c-0.125,0.091-0.216,0.182-0.352,0.272c-0.136,0.091-0.261,0.171-0.397,0.261
		c-0.137,0.091-0.227,0.182-0.353,0.272c-0.136,0.091-0.272,0.171-0.397,0.216c-0.137,0.091-0.227,0.182-0.363,0.272
		c-0.125,0.046-0.262,0.125-0.398,0.216c-0.137,0.045-0.216,0.136-0.352,0.182c-0.137,0.091-0.261,0.17-0.352,0.216
		c-0.182,0.045-0.273,0.136-0.398,0.182c-0.137,0.091-0.227,0.136-0.363,0.227c-0.125,0.034-0.261,0.125-0.398,0.171
		c-0.136,0.046-0.216,0.137-0.352,0.182c-0.137,0.046-0.272,0.137-0.398,0.171c-0.136,0.045-0.227,0.091-0.364,0.182
		c-0.125,0.045-0.261,0.091-0.398,0.136c-0.079,0.045-0.216,0.125-0.352,0.171c-0.136,0.045-0.261,0.091-0.352,0.137
		c-0.137,0.045-0.273,0.091-0.398,0.136c-0.136,0.046-0.227,0.091-0.364,0.137c-0.125,0.034-0.261,0.079-0.398,0.125l-0.352,0.136
		c-0.136,0-0.261,0.045-0.352,0.091c-0.136,0.045-0.273,0.091-0.398,0.091c-0.136,0.045-0.273,0.079-0.408,0.125
		c-0.08,0.045-0.216,0.045-0.352,0.091c-0.137,0.045-0.262,0.045-0.353,0.091c-0.136,0.045-0.273,0.045-0.397,0.091l-0.398,0.091
		c-0.091,0-0.227,0.034-0.364,0.079c-0.125,0-0.216,0.045-0.352,0.045l-0.398,0.091l-0.352,0.045
		c-0.137,0.045-0.273,0.045-0.398,0.045c-0.091,0.046-0.227,0.046-0.364,0.091c-0.125,0-0.261,0.046-0.352,0.046l-0.398,0.045
		c-0.136,0-0.273,0.034-0.398,0.034c-0.091,0-0.227,0-0.352,0h-0.364l-0.398,0.045h-0.352l-0.397,0.045l-0.488,0.045
		c-0.137,0-0.272,0-0.398,0c-0.136,0-0.227,0-0.364,0.045h-60.881v78.774h58.36c0.17,0,0.261,0,0.398,0
		c0.136,0,0.261-0.045,0.398-0.045h0.352c0.136,0,0.272-0.045,0.352-0.045c0.182,0,0.273,0,0.409-0.045c0.125,0,0.261,0,0.352-0.045
		c0.136,0,0.261,0,0.398,0c0.136,0,0.227-0.045,0.352-0.045c0.136,0,0.272-0.045,0.397-0.045c0.091,0,0.227-0.045,0.364-0.045
		l0.397-0.045l0.352-0.08l0.353-0.045c0.136,0,0.273-0.046,0.409-0.046c0.125-0.045,0.216-0.045,0.352-0.091l0.398-0.045
		l0.352-0.091c0.137-0.045,0.273-0.091,0.398-0.091c0.137-0.034,0.227-0.034,0.364-0.079l0.398-0.091l0.352-0.091l0.352-0.136
		c0.137,0,0.273-0.045,0.398-0.091c0.136-0.034,0.227-0.034,0.364-0.079c0.125-0.046,0.261-0.091,0.398-0.137l0.352-0.091
		c0.136-0.045,0.261-0.091,0.398-0.136l0.352-0.125c0.136-0.045,0.272-0.045,0.408-0.091c0.08-0.045,0.216-0.091,0.353-0.136
		c0.136-0.045,0.261-0.091,0.397-0.171l0.352-0.136c0.137-0.046,0.273-0.091,0.398-0.137c0.091-0.045,0.227-0.091,0.364-0.136
		c0.125-0.045,0.261-0.125,0.352-0.17c0.137-0.046,0.262-0.091,0.398-0.137c0.137-0.091,0.227-0.136,0.352-0.182
		c0.137-0.079,0.272-0.125,0.398-0.171l0.364-0.182l0.398-0.17c0.091-0.091,0.216-0.137,0.352-0.182
		c0.137-0.091,0.227-0.137,0.398-0.182c0.091-0.091,0.227-0.125,0.363-0.216c0.125-0.045,0.216-0.136,0.352-0.182
		c0.136-0.091,0.261-0.136,0.398-0.17c0.136-0.091,0.216-0.182,0.352-0.227c0.136-0.045,0.273-0.136,0.398-0.182
		c0.091-0.08,0.227-0.171,0.363-0.216l0.397-0.227c0.125-0.045,0.216-0.17,0.353-0.216c0.136-0.045,0.261-0.136,0.397-0.227
		c0.091-0.091,0.227-0.17,0.352-0.216c0.136-0.091,0.227-0.182,0.364-0.272c0.125-0.091,0.261-0.125,0.397-0.216
		c0.137-0.091,0.216-0.182,0.352-0.272c0.137-0.091,0.262-0.171,0.398-0.261c0.091-0.091,0.227-0.182,0.352-0.272
		c0.137-0.079,0.273-0.171,0.409-0.261c0.125-0.091,0.216-0.182,0.352-0.261c0.137-0.091,0.261-0.227,0.398-0.318
		c0.091-0.091,0.227-0.17,0.352-0.261c0.137-0.136,0.273-0.227,0.398-0.318c0.091-0.125,0.227-0.216,0.363-0.306
		c0.125-0.137,0.261-0.216,0.352-0.353c0.136-0.091,0.261-0.182,0.398-0.318c0.136-0.125,0.227-0.216,0.352-0.352
		c0.136-0.091,0.273-0.216,0.409-0.352c0.125-0.091,0.216-0.227,0.352-0.352c0.125-0.136,0.261-0.227,0.397-0.363
		c0.091-0.125,0.216-0.261,0.353-0.352l0.352-0.398c0.136-0.136,0.273-0.261,0.409-0.397c0.125-0.137,0.216-0.273,0.352-0.398
		c0.136-0.136,0.261-0.273,0.397-0.443c0.137-0.137,0.227-0.273,0.352-0.443c0.137-0.137,0.273-0.273,0.398-0.443
		c0.137-0.136,0.227-0.318,0.363-0.443c0.125-0.182,0.261-0.318,0.353-0.488c0.136-0.182,0.261-0.318,0.397-0.488
		c0.137-0.182,0.227-0.364,0.352-0.534c0.182-0.182,0.273-0.363,0.398-0.534c0.137-0.182,0.227-0.352,0.364-0.534
		c0.125-0.182,0.261-0.398,0.398-0.579c0.136-0.171,0.216-0.398,0.352-0.579c0.137-0.216,0.273-0.398,0.352-0.614
		c0.137-0.227,0.272-0.443,0.398-0.625c0.136-0.227,0.227-0.443,0.364-0.704c0.125-0.227,0.261-0.454,0.398-0.67
		c0.136-0.273,0.216-0.534,0.352-0.75c0.136-0.273,0.272-0.534,0.398-0.807c0.136-0.261,0.227-0.534,0.363-0.841
		c0.125-0.306,0.261-0.579,0.398-0.886c0.125-0.307,0.216-0.67,0.352-0.977c0.136-0.353,0.261-0.716,0.352-1.068
		c0.136-0.352,0.272-0.75,0.397-1.147c0.136-0.443,0.273-0.898,0.364-1.341c0.125-0.522,0.261-1.011,0.352-1.545
		c0.182-0.625,0.261-1.295,0.398-1.954c0.182-0.932,0.306-1.954,0.397-2.931c0.091-1.113,0.137-2.261,0.137-3.419v-193.3h-0.796
		V282.065z M392.015,282.065"/>
</g>
</svg>
