<?xml version="1.0" encoding="iso-8859-1"?>
<!-- Generator: Adobe Illustrator 19.0.0, SVG Export Plug-In . SVG Version: 6.00 Build 0)  -->
<svg version="1.1" id="Layer_1" xmlns="http://www.w3.org/2000/svg" xmlns:xlink="http://www.w3.org/1999/xlink" x="0px" y="0px"
	 viewBox="-1014 -26.098 570 353.098" style="enable-background:new -1014 -26.098 570 353.098;" xml:space="preserve">
<path style="fill:#13457C;" d="M-444,296.733c0,16.716-15.085,30.267-33.693,30.267h-502.614
	c-18.608,0.001-33.693-13.552-33.693-30.267V4.168c0-16.715,15.085-30.266,33.693-30.266h502.613
	c18.609,0,33.693,13.551,33.693,30.266L-444,296.733L-444,296.733z"/>
<g>
	<path style="fill:#F7981D;" d="M-523.801,150.863c0,66.559-53.758,120.961-120.961,120.961
		c-66.558,0-120.957-54.402-120.957-120.961c0-66.563,53.758-120.961,120.321-120.961C-577.559,29.902-523.801,84.3-523.801,150.863
		L-523.801,150.863z"/>
	<path style="fill:#F7981D;" d="M-644.762,29.902c66.563,0,120.961,54.398,120.961,120.961c0,66.559-53.758,120.961-120.961,120.961
		c-66.558,0-120.957-54.402-120.957-120.961"/>
	<path style="fill:#CB2026;" d="M-807.32,29.902C-873.238,30.543-927,84.3-927,150.863c0,66.559,53.762,120.961,120.961,120.961
		c31.359,0,59.519-12.16,81.277-31.363c4.481-3.84,8.321-8.321,12.16-12.797h-24.957c-3.203-3.84-6.402-8.321-8.961-12.16h42.879
		c2.563-3.84,5.121-8.321,7.039-12.801h-56.957c-1.921-3.84-3.839-8.321-5.121-12.801h66.559c3.84-12.16,6.402-24.961,6.402-38.398
		c0-8.961-1.281-17.282-2.562-25.602h-74.239c0.641-4.48,1.918-8.32,3.2-12.801h66.558c-1.277-4.48-3.199-8.961-5.117-12.801h-56.32
		c1.918-4.476,4.48-8.32,7.039-12.796h42.879c-2.559-4.481-5.758-8.961-9.598-12.801h-23.68c3.84-4.481,7.68-8.321,12.161-12.16
		c-21.122-19.84-49.922-31.36-81.282-31.36C-806.68,29.902-806.68,29.902-807.32,29.902L-807.32,29.902z"/>
	<path style="fill:#CB2026;" d="M-806.039,271.824c31.359,0,59.519-12.16,81.277-31.363c4.481-3.84,8.321-8.321,12.16-12.797
		h-24.957c-3.203-3.84-6.402-8.321-8.961-12.16h42.879c2.563-3.84,5.121-8.321,7.039-12.801h-56.957
		c-1.921-3.84-3.839-8.321-5.121-12.801h66.559c3.84-12.16,6.402-24.961,6.402-38.398c0-8.961-1.281-17.282-2.562-25.602h-74.239
		c0.641-4.48,1.918-8.32,3.2-12.801h66.558c-1.277-4.48-3.199-8.961-5.117-12.801h-56.32c1.918-4.476,4.48-8.32,7.039-12.796h42.879
		c-2.559-4.481-5.758-8.961-9.598-12.801h-23.68c3.84-4.481,7.68-8.321,12.161-12.16c-21.122-19.84-49.922-31.36-81.282-31.36h-0.64
		"/>
	<path style="fill:#FFFFFF;" d="M-763.16,181.582l1.922-10.879c-0.641,0-1.922,0.64-3.203,0.64c-4.481,0-5.118-2.562-4.481-3.839
		l3.844-22.403h7.039l1.918-12.16h-6.399l1.282-7.68h-12.801c0,0-7.68,42.243-7.68,47.36c0,7.679,4.481,10.883,10.239,10.883
		C-767.641,183.504-764.441,182.222-763.16,181.582L-763.16,181.582z"/>
	<path style="fill:#FFFFFF;" d="M-758.68,161.101c0,17.922,12.16,22.403,22.399,22.403c9.601,0,13.441-1.922,13.441-1.922
		l2.559-12.16c0,0-7.039,3.199-13.438,3.199c-14.082,0-11.519-10.239-11.519-10.239H-719c0,0,1.922-8.32,1.922-11.519
		c0-8.32-4.481-18.563-18.563-18.563C-749.078,131.023-758.68,145.101-758.68,161.101L-758.68,161.101z M-736.281,142.543
		c7.043,0,5.761,8.32,5.761,8.961h-14.082C-744.602,150.863-743.32,142.543-736.281,142.543L-736.281,142.543z"/>
	<path style="fill:#FFFFFF;" d="M-655,181.582l2.559-14.078c0,0-6.399,3.199-10.879,3.199c-8.961,0-12.801-7.039-12.801-14.723
		c0-15.359,7.68-23.68,16.641-23.68c6.402,0,11.519,3.84,11.519,3.84l1.922-13.437c0,0-7.68-3.199-14.723-3.199
		c-14.718,0-29.437,12.796-29.437,37.117c0,16,7.679,26.883,23.039,26.883C-662.039,183.504-655,181.582-655,181.582L-655,181.582z"
		/>
	<path style="fill:#FFFFFF;" d="M-833.559,131.023c-8.961,0-15.363,2.559-15.363,2.559l-1.918,10.879c0,0,5.762-2.559,14.078-2.559
		c4.481,0,8.321,0.641,8.321,4.48c0,2.559-0.637,3.2-0.637,3.2h-5.762c-10.879,0-23.039,4.48-23.039,19.199
		c0,11.519,7.68,14.082,12.16,14.082c8.957,0,12.797-5.762,13.438-5.762l-0.641,5.121h11.524l5.117-35.199
		C-816.281,131.664-829.078,131.023-833.559,131.023L-833.559,131.023z M-831,159.824c0,1.918-1.281,12.156-8.961,12.156
		c-3.84,0-5.117-3.199-5.117-5.117c0-3.199,1.918-7.68,11.519-7.68C-831.641,159.824-831,159.824-831,159.824L-831,159.824z"/>
	<path style="fill:#FFFFFF;" d="M-804.121,182.863c3.199,0,19.199,0.641,19.199-16.641c0-16-15.359-12.8-15.359-19.199
		c0-3.199,2.562-4.48,7.043-4.48c1.918,0,8.957,0.64,8.957,0.64l1.922-11.519c0,0-4.481-1.282-12.161-1.282
		c-9.601,0-19.199,3.84-19.199,16.641c0,14.719,16,13.438,16,19.199c0,3.84-4.48,4.481-7.679,4.481
		c-5.762,0-11.524-1.922-11.524-1.922l-1.918,11.519C-818.199,181.582-815,182.863-804.121,182.863L-804.121,182.863z"/>
	<path style="fill:#FFFFFF;" d="M-548.762,120.781l-2.558,17.281c0,0-5.121-6.398-12.16-6.398c-11.52,0-21.758,14.078-21.758,30.718
		c0,10.239,5.117,21.122,16,21.122c7.679,0,12.16-5.122,12.16-5.122l-0.641,4.481h12.797l9.602-61.441L-548.762,120.781z
		 M-554.52,154.703c0,7.039-3.199,16-10.242,16c-4.476,0-7.039-3.84-7.039-10.242c0-10.239,4.481-16.637,10.242-16.637
		C-557.078,143.824-554.52,147.023-554.52,154.703L-554.52,154.703z"/>
	<path style="fill:#FFFFFF;" d="M-903.32,182.222l7.679-46.082l1.282,46.082h8.961l16.636-46.082l-7.039,46.082h13.442
		l10.238-61.441h-21.117l-12.801,37.762l-0.641-37.762h-18.558l-10.242,61.441H-903.32z"/>
	<path style="fill:#FFFFFF;" d="M-704.922,182.222c3.844-21.121,4.481-38.398,13.442-35.199c1.281-8.32,3.199-11.519,4.48-14.723
		h-2.559c-5.761,0-10.242,7.68-10.242,7.68l1.281-7.039h-12.16l-8.32,49.922h14.078V182.222z"/>
	<path style="fill:#FFFFFF;" d="M-625.559,131.023c-8.961,0-15.363,2.559-15.363,2.559l-1.918,10.879c0,0,5.762-2.559,14.078-2.559
		c4.481,0,8.321,0.641,8.321,4.48c0,2.559-0.637,3.2-0.637,3.2h-5.762c-10.879,0-23.039,4.48-23.039,19.199
		c0,11.519,7.68,14.082,12.16,14.082c8.957,0,12.797-5.762,13.438-5.762l-0.641,5.121h11.524l5.117-35.199
		C-607.641,131.664-621.078,131.023-625.559,131.023L-625.559,131.023z M-622.359,159.824c0,1.918-1.282,12.156-8.961,12.156
		c-3.84,0-5.121-3.199-5.121-5.117c0-3.199,1.921-7.68,11.519-7.68C-623,159.824-623,159.824-622.359,159.824L-622.359,159.824z"/>
	<path style="fill:#FFFFFF;" d="M-597.398,182.222c3.839-21.121,4.476-38.398,13.437-35.199c1.281-8.32,3.199-11.519,4.481-14.723
		h-2.559c-5.762,0-10.242,7.68-10.242,7.68l1.281-7.039h-12.16l-8.32,49.922h14.082V182.222z"/>
</g>
</svg>
