<?xml version="1.0" encoding="iso-8859-1"?>
<!-- Generator: Adobe Illustrator 19.0.0, SVG Export Plug-In . SVG Version: 6.00 Build 0)  -->
<svg version="1.1" id="Layer_1" xmlns="http://www.w3.org/2000/svg" xmlns:xlink="http://www.w3.org/1999/xlink" x="0px" y="0px"
	 viewBox="-49 220.451 570 353.098" style="enable-background:new -49 220.451 570 353.098;" xml:space="preserve">
<path style="fill:#3957A7;" d="M521,543.282c0,16.716-15.085,30.267-33.693,30.267H-15.307C-33.915,573.55-49,559.997-49,543.282
	V250.717c0-16.715,15.085-30.266,33.693-30.266h502.613c18.609,0,33.693,13.551,33.693,30.266L521,543.282L521,543.282z"/>
<g>
	<path style="fill:#FFFFFF;" d="M190.627,326.667l-21.055,131.02h33.658l21.041-131.02H190.627z M292.141,380.038
		c-11.76-5.805-18.971-9.731-18.971-15.669c0.14-5.399,6.095-10.931,19.391-10.931c10.931-0.275,18.963,2.295,25.064,4.851
		l3.055,1.362l4.571-27.409c-6.643-2.57-17.188-5.406-30.204-5.406c-33.229,0-56.63,17.278-56.777,41.991
		c-0.273,18.239,16.751,28.356,29.494,34.429c13.023,6.228,17.454,10.264,17.454,15.797c-0.147,8.496-10.53,12.414-20.213,12.414
		c-13.424,0-20.64-2.015-31.586-6.747l-4.43-2.022l-4.704,28.489c7.905,3.51,22.445,6.607,37.533,6.762
		c35.314,0,58.299-17.019,58.587-43.353C320.519,400.146,311.539,389.082,292.141,380.038L292.141,380.038z M411.527,327.075
		h-26.032c-8.025,0-14.125,2.302-17.594,10.538l-49.987,120.075h35.314l9.731-25.996h39.512l5.041,26.102h31.151L411.527,327.075z
		 M372.752,405.454c0.681,0.07,13.55-42.433,13.55-42.433l10.257,42.433H372.752z M141.455,326.667l-32.97,89.015l-3.595-17.551
		c-6.095-20.256-25.211-42.273-46.54-53.204l30.195,112.627h35.603l52.915-130.873h-35.608V326.667z M141.455,326.667"/>
	<path style="fill:#EAA200;" d="M93.797,343.565c-2.568-9.989-10.762-16.729-21.889-16.87H19.694l-0.541,2.421
		c40.734,10.04,74.926,40.939,86.01,70.005L93.797,343.565z M93.797,343.565"/>
</g>
</svg>
