<?xml version="1.0" encoding="utf-8"?>
<!-- Generator: Adobe Illustrator 19.0.0, SVG Export Plug-In . SVG Version: 6.00 Build 0)  -->
<svg version="1.1" id="Layer_1" xmlns="http://www.w3.org/2000/svg" xmlns:xlink="http://www.w3.org/1999/xlink" x="0px" y="0px"
	 viewBox="0 0 160 45" style="enable-background:new 0 0 160 45;" xml:space="preserve">
<style type="text/css">
	.st0{fill:#CADDEA;}
	.st1{fill:none;}
	.st2{fill:#01668B;}
</style>
<g id="XMLID_88_">
	<g id="XMLID_87_">
		<path id="XMLID_2_" class="st0" d="M46.3,19.3V5.1h5c1.7,0,3,0.3,3.9,1c0.9,0.7,1.3,1.6,1.3,2.9c0,0.7-0.2,1.3-0.5,1.8
			c-0.4,0.5-0.9,0.9-1.5,1.2c0.7,0.2,1.3,0.6,1.7,1.1c0.4,0.6,0.6,1.2,0.6,2c0,1.4-0.4,2.4-1.3,3.1s-2.1,1.1-3.7,1.1H46.3z M49.3,11
			h2.2c1.5,0,2.2-0.6,2.2-1.8c0-0.6-0.2-1.1-0.6-1.4c-0.4-0.3-1-0.4-1.8-0.4h-2.1V11z M49.3,13.1V17h2.5c0.7,0,1.2-0.2,1.6-0.5
			c0.4-0.3,0.6-0.8,0.6-1.4c0-1.3-0.7-2-2-2H49.3z"/>
		<path id="XMLID_6_" class="st0" d="M67.7,13.1h-5.6V17h6.6v2.4h-9.6V5.1h9.5v2.4h-6.6v3.4h5.6V13.1z"/>
		<path id="XMLID_8_" class="st0" d="M77.8,15.6c0-0.6-0.2-1-0.6-1.3c-0.4-0.3-1.1-0.6-2.1-0.9c-1-0.3-1.8-0.7-2.4-1
			c-1.6-0.9-2.4-2.1-2.4-3.5c0-0.8,0.2-1.5,0.7-2.1c0.4-0.6,1.1-1.1,1.9-1.4c0.8-0.3,1.7-0.5,2.7-0.5c1,0,1.9,0.2,2.7,0.6
			C79,5.8,79.6,6.3,80.1,7c0.4,0.7,0.7,1.4,0.7,2.3h-2.9c0-0.7-0.2-1.2-0.6-1.5c-0.4-0.4-1-0.5-1.7-0.5c-0.7,0-1.3,0.2-1.7,0.5
			s-0.6,0.7-0.6,1.2c0,0.5,0.2,0.9,0.7,1.2s1.2,0.6,2.1,0.9c1.7,0.5,2.9,1.1,3.7,1.9c0.8,0.7,1.1,1.7,1.1,2.8c0,1.2-0.5,2.2-1.4,2.9
			c-0.9,0.7-2.2,1.1-3.8,1.1c-1.1,0-2.1-0.2-3-0.6c-0.9-0.4-1.6-1-2.1-1.7c-0.5-0.7-0.7-1.5-0.7-2.4h2.9c0,1.6,0.9,2.4,2.8,2.4
			c0.7,0,1.2-0.1,1.6-0.4C77.6,16.5,77.8,16.1,77.8,15.6z"/>
		<path id="XMLID_10_" class="st0" d="M93.5,7.4h-4.4v11.9h-2.9V7.4h-4.3V5.1h11.6V7.4z"/>
		<path id="XMLID_12_" class="st0" d="M106.4,15.2l1.9-10.1h2.9l-3.2,14.3h-3l-2.3-9.5l-2.3,9.5h-3L94.4,5.1h2.9l1.9,10.1l2.4-10.1
			h2.5L106.4,15.2z"/>
		<path id="XMLID_14_" class="st0" d="M118.4,11.4c-0.4-0.1-0.7-0.1-1-0.1c-1.1,0-1.8,0.4-2.1,1.1v6.9h-2.8V8.7h2.7l0.1,1.3
			c0.6-1,1.4-1.5,2.4-1.5c0.3,0,0.6,0,0.9,0.1L118.4,11.4z"/>
		<path id="XMLID_16_" class="st0" d="M119.8,6c0-0.4,0.1-0.8,0.4-1s0.7-0.4,1.2-0.4c0.5,0,0.9,0.1,1.2,0.4c0.3,0.3,0.4,0.6,0.4,1
			c0,0.4-0.1,0.8-0.4,1.1c-0.3,0.3-0.7,0.4-1.2,0.4c-0.5,0-0.9-0.1-1.2-0.4C119.9,6.8,119.8,6.4,119.8,6z M122.8,19.3h-2.8V8.7h2.8
			V19.3z"/>
		<path id="XMLID_19_" class="st0" d="M128.5,6.1v2.6h1.8v2.1h-1.8v5.3c0,0.4,0.1,0.7,0.2,0.8s0.4,0.3,0.9,0.3c0.3,0,0.6,0,0.8-0.1
			v2.1c-0.6,0.2-1.1,0.3-1.7,0.3c-2,0-3-1-3-3v-5.7h-1.5V8.7h1.5V6.1H128.5z"/>
		<path id="XMLID_21_" class="st0" d="M131.8,6c0-0.4,0.1-0.8,0.4-1s0.7-0.4,1.2-0.4c0.5,0,0.9,0.1,1.2,0.4c0.3,0.3,0.4,0.6,0.4,1
			c0,0.4-0.1,0.8-0.4,1.1c-0.3,0.3-0.7,0.4-1.2,0.4c-0.5,0-0.9-0.1-1.2-0.4C132,6.8,131.8,6.4,131.8,6z M134.9,19.3H132V8.7h2.8
			V19.3z"/>
		<path id="XMLID_24_" class="st0" d="M139.8,8.7l0.1,1.2c0.8-0.9,1.8-1.4,3-1.4c1.1,0,2,0.3,2.5,1s0.8,1.6,0.8,3v6.8h-2.8v-6.8
			c0-0.6-0.1-1-0.4-1.3c-0.3-0.3-0.7-0.4-1.3-0.4c-0.8,0-1.4,0.3-1.8,1v7.5h-2.8V8.7H139.8z"/>
		<path id="XMLID_26_" class="st0" d="M148,13.9c0-1.6,0.4-2.9,1.2-3.9c0.8-1,1.8-1.5,3.1-1.5c1.2,0,2.1,0.4,2.7,1.2l0.1-1h2.6V19
			c0,0.9-0.2,1.7-0.6,2.4c-0.4,0.7-1,1.2-1.8,1.6c-0.8,0.4-1.7,0.5-2.7,0.5c-0.8,0-1.5-0.2-2.3-0.5c-0.7-0.3-1.3-0.7-1.7-1.2
			l1.3-1.7c0.7,0.8,1.6,1.2,2.6,1.2c0.8,0,1.3-0.2,1.8-0.6c0.4-0.4,0.6-1,0.6-1.7v-0.6c-0.7,0.7-1.5,1.1-2.6,1.1
			c-1.3,0-2.3-0.5-3.1-1.5c-0.8-1-1.2-2.3-1.2-4V13.9z M150.8,14.1c0,1,0.2,1.7,0.6,2.3c0.4,0.5,0.9,0.8,1.6,0.8
			c0.9,0,1.5-0.3,1.9-1v-4.5c-0.4-0.6-1-1-1.8-1c-0.7,0-1.2,0.3-1.6,0.8C151,12.2,150.8,13,150.8,14.1z"/>
		<path id="XMLID_29_" class="st0" d="M57.9,38.1H55V32h-5.7v6.1h-2.9V23.8h2.9v5.8H55v-5.8h2.9V38.1z"/>
		<path id="XMLID_31_" class="st0" d="M69.1,31.9h-5.6v3.8h6.6v2.4h-9.6V23.8H70v2.4h-6.6v3.4h5.6V31.9z"/>
		<path id="XMLID_33_" class="st0" d="M74.7,35.7H81v2.4h-9.2V23.8h2.9V35.7z"/>
		<path id="XMLID_35_" class="st0" d="M85.6,33v5h-2.9V23.8h5.6c1.1,0,2,0.2,2.8,0.6c0.8,0.4,1.4,0.9,1.9,1.7s0.7,1.5,0.7,2.5
			c0,1.4-0.5,2.5-1.4,3.3c-1,0.8-2.3,1.2-4,1.2H85.6z M85.6,30.7h2.6c0.8,0,1.4-0.2,1.8-0.5s0.6-0.9,0.6-1.6c0-0.7-0.2-1.3-0.6-1.7
			c-0.4-0.4-1-0.7-1.7-0.7h-2.7V30.7z"/>
		<path id="XMLID_38_" class="st0" d="M91.6,36.7c0-0.5,0.2-0.8,0.5-1.1c0.3-0.3,0.7-0.4,1.1-0.4c0.5,0,0.8,0.1,1.2,0.4
			c0.3,0.3,0.5,0.6,0.5,1.1c0,0.4-0.2,0.8-0.5,1.1c-0.3,0.3-0.7,0.4-1.2,0.4c-0.5,0-0.8-0.1-1.1-0.4C91.7,37.5,91.6,37.1,91.6,36.7z
			"/>
		<path id="XMLID_40_" class="st0" d="M96.7,34c0-0.8,0.2-1.5,0.5-2.1s0.7-1.1,1.3-1.4c0.6-0.3,1.2-0.5,2-0.5c1.1,0,1.9,0.3,2.6,1
			s1.1,1.5,1.1,2.7l0,0.5c0,1.2-0.3,2.2-1,2.9c-0.7,0.7-1.6,1.1-2.7,1.1c-1.1,0-2.1-0.4-2.7-1.1S96.7,35.4,96.7,34L96.7,34z
			 M98.8,34.2c0,0.8,0.1,1.3,0.4,1.7s0.7,0.6,1.2,0.6c0.5,0,0.9-0.2,1.2-0.6c0.3-0.4,0.4-1,0.4-1.9c0-0.7-0.1-1.3-0.4-1.7
			c-0.3-0.4-0.7-0.6-1.2-0.6c-0.5,0-0.9,0.2-1.2,0.6S98.8,33.3,98.8,34.2z"/>
		<path id="XMLID_43_" class="st0" d="M109.9,32.1c-0.3,0-0.5-0.1-0.8-0.1c-0.8,0-1.3,0.3-1.6,0.8v5.2h-2.1v-7.9h2l0.1,0.9
			c0.4-0.7,1-1.1,1.8-1.1c0.2,0,0.5,0,0.7,0.1L109.9,32.1z"/>
		<path id="XMLID_45_" class="st0" d="M110.5,34c0-1.2,0.3-2.2,0.9-2.9c0.6-0.7,1.4-1.1,2.3-1.1c0.9,0,1.5,0.3,2,0.9l0.1-0.7h1.9
			v7.7c0,0.7-0.2,1.3-0.5,1.8c-0.3,0.5-0.8,0.9-1.3,1.2c-0.6,0.3-1.2,0.4-2,0.4c-0.6,0-1.1-0.1-1.7-0.3c-0.6-0.2-1-0.5-1.3-0.9
			l0.9-1.3c0.5,0.6,1.2,0.9,1.9,0.9c0.6,0,1-0.1,1.3-0.5s0.5-0.7,0.5-1.3v-0.4c-0.5,0.6-1.1,0.8-1.9,0.8c-1,0-1.7-0.4-2.3-1.1
			S110.5,35.4,110.5,34L110.5,34z M112.6,34.2c0,0.7,0.1,1.3,0.4,1.7c0.3,0.4,0.7,0.6,1.2,0.6c0.6,0,1.1-0.2,1.4-0.7v-3.3
			c-0.3-0.5-0.7-0.7-1.4-0.7c-0.5,0-0.9,0.2-1.2,0.6C112.7,32.7,112.6,33.4,112.6,34.2z"/>
	</g>
	<g id="XMLID_74_">
		<path id="XMLID_86_" class="st1" d="M19.4,15.1c0,1-0.9,1.9-1.9,1.9H4.8c-0.2,0.6-0.3,1.3-0.4,1.9h13.1c1,0,1.9,0.9,1.9,1.9
			c0,1-0.9,1.9-1.9,1.9H4.4c0.1,0.7,0.2,1.3,0.4,1.9h12.8c1,0,1.9,0.9,1.9,1.9c0,1-0.9,1.9-1.9,1.9H6.2c2.7,5.1,8.1,8.6,14.4,8.6
			c9,0,16.3-7.3,16.3-16.3c0-9-7.3-16.3-16.3-16.3c-6.2,0-11.6,3.5-14.4,8.6h11.3C18.6,13.2,19.4,14.1,19.4,15.1z"/>
		<path id="XMLID_85_" class="st0" d="M17.5,19H4.4H1.3c-0.1,0.6-0.1,1.3-0.1,1.9s0,1.3,0.1,1.9h3.1h13.1c1,0,1.9-0.9,1.9-1.9
			C19.4,19.8,18.6,19,17.5,19z"/>
		<path id="XMLID_84_" class="st0" d="M20.6,1.5c-8,0-14.8,4.8-17.8,11.7c-0.5,1.2-0.9,2.5-1.2,3.8h3.2h12.8c1,0,1.9-0.9,1.9-1.9
			c0-1-0.9-1.9-1.9-1.9H6.2c2.7-5.1,8.1-8.6,14.4-8.6c9,0,16.3,7.3,16.3,16.3c0,9-7.3,16.3-16.3,16.3c-6.2,0-11.6-3.5-14.4-8.6h11.3
			c1,0,1.9-0.9,1.9-1.9c0-1-0.9-1.9-1.9-1.9H4.8H1.6c0.3,1.3,0.7,2.6,1.2,3.8c3,6.9,9.8,11.7,17.8,11.7c10.7,0,19.4-8.7,19.4-19.4
			S31.3,1.5,20.6,1.5z"/>
		<path id="XMLID_83_" class="st2" d="M30.9,21c0,0,0,0.1-0.1,0.1C30.8,21.1,30.9,21.1,30.9,21z"/>
		<path id="XMLID_82_" class="st2" d="M30.9,20.9c0,0,0,0.1,0,0.1C30.9,20.9,30.9,20.9,30.9,20.9z"/>
		<path id="XMLID_81_" class="st2" d="M30.9,20.7C30.9,20.7,30.9,20.7,30.9,20.7C30.9,20.7,30.9,20.7,30.9,20.7z"/>
		<path id="XMLID_80_" class="st2" d="M30.8,20.5C30.8,20.5,30.8,20.5,30.8,20.5C30.8,20.5,30.8,20.5,30.8,20.5
			C30.8,20.5,30.8,20.5,30.8,20.5z"/>
		<path id="XMLID_79_" class="st2" d="M30.8,20.5c0,0,0,0.1,0.1,0.1C30.9,20.6,30.8,20.6,30.8,20.5z"/>
		<path id="XMLID_78_" class="st2" d="M30.9,20.8c0,0,0,0.1,0,0.1C30.9,20.8,30.9,20.8,30.9,20.8z"/>
		<path id="XMLID_77_" class="st2" d="M30.9,21C30.9,21,30.9,21,30.9,21C30.9,21,30.9,21,30.9,21z"/>
		<path id="XMLID_76_" class="st0" d="M30.9,21c0,0,0-0.1,0-0.1s0-0.1,0-0.1c0,0,0,0,0-0.1c0,0,0-0.1-0.1-0.1c0,0,0,0,0,0
			c0,0,0,0,0,0l0,0l0,0c0,0-0.1-0.1-0.1-0.1l-2.9-2h0l-6.5-4.6c-0.3-0.2-0.6-0.1-0.8,0.1c-0.2,0.3-0.1,0.6,0.1,0.8l5.8,4.1
			c-0.5,0.6-0.8,1.3-0.8,2.2c0,0.8,0.2,1.4,0.6,2l-5.7,4c-0.3,0.2-0.3,0.5-0.1,0.8c0.2,0.3,0.5,0.3,0.8,0.1l9.4-6.6
			c0,0,0.1-0.1,0.1-0.1c0,0,0,0,0,0c0,0,0,0,0,0C30.8,21.1,30.9,21.1,30.9,21C30.9,21,30.9,21,30.9,21z"/>
		<path id="XMLID_75_" class="st2" d="M30.8,21.2C30.8,21.2,30.8,21.2,30.8,21.2C30.8,21.2,30.8,21.2,30.8,21.2
			C30.8,21.2,30.8,21.2,30.8,21.2z"/>
	</g>
</g>
<g id="XMLID_1_">
</g>
<g id="XMLID_48_">
</g>
<g id="XMLID_49_">
</g>
<g id="XMLID_50_">
</g>
<g id="XMLID_51_">
</g>
<g id="XMLID_52_">
</g>
</svg>
