<?xml version="1.0" encoding="utf-8"?>
<!-- Generator: Adobe Illustrator 19.0.0, SVG Export Plug-In . SVG Version: 6.00 Build 0)  -->
<svg version="1.1" id="Layer_1" xmlns="http://www.w3.org/2000/svg" xmlns:xlink="http://www.w3.org/1999/xlink" x="0px" y="0px"
	 viewBox="0 0 160 45" style="enable-background:new 0 0 160 45;" xml:space="preserve">
<style type="text/css">
	.st0{fill:#1B7FD0;}
	.st1{fill:none;}
	.st2{fill:#01668B;}
</style>
<g id="XMLID_88_">
	<g id="XMLID_87_">
		<path id="XMLID_2_" class="st0" d="M46.3,19.8V5.5h5c1.7,0,3,0.3,3.9,1c0.9,0.7,1.3,1.6,1.3,2.9c0,0.7-0.2,1.3-0.5,1.8
			c-0.4,0.5-0.9,0.9-1.5,1.2c0.7,0.2,1.3,0.6,1.7,1.1c0.4,0.6,0.6,1.2,0.6,2c0,1.4-0.4,2.4-1.3,3.1s-2.1,1.1-3.7,1.1H46.3z
			 M49.3,11.5h2.2c1.5,0,2.2-0.6,2.2-1.8c0-0.6-0.2-1.1-0.6-1.4c-0.4-0.3-1-0.4-1.8-0.4h-2.1V11.5z M49.3,13.5v3.9h2.5
			c0.7,0,1.2-0.2,1.6-0.5c0.4-0.3,0.6-0.8,0.6-1.4c0-1.3-0.7-2-2-2H49.3z"/>
		<path id="XMLID_6_" class="st0" d="M67.7,13.6h-5.6v3.8h6.6v2.4h-9.6V5.5h9.5v2.4h-6.6v3.4h5.6V13.6z"/>
		<path id="XMLID_8_" class="st0" d="M77.8,16c0-0.6-0.2-1-0.6-1.3c-0.4-0.3-1.1-0.6-2.1-0.9c-1-0.3-1.8-0.7-2.4-1
			c-1.6-0.9-2.4-2.1-2.4-3.5c0-0.8,0.2-1.5,0.7-2.1c0.4-0.6,1.1-1.1,1.9-1.4c0.8-0.3,1.7-0.5,2.7-0.5c1,0,1.9,0.2,2.7,0.6
			c0.8,0.4,1.4,0.9,1.9,1.6c0.4,0.7,0.7,1.4,0.7,2.3h-2.9c0-0.7-0.2-1.2-0.6-1.5c-0.4-0.4-1-0.5-1.7-0.5c-0.7,0-1.3,0.2-1.7,0.5
			s-0.6,0.7-0.6,1.2c0,0.5,0.2,0.9,0.7,1.2s1.2,0.6,2.1,0.9c1.7,0.5,2.9,1.1,3.7,1.9c0.8,0.7,1.1,1.7,1.1,2.8c0,1.2-0.5,2.2-1.4,2.9
			c-0.9,0.7-2.2,1.1-3.8,1.1c-1.1,0-2.1-0.2-3-0.6c-0.9-0.4-1.6-1-2.1-1.7c-0.5-0.7-0.7-1.5-0.7-2.4h2.9c0,1.6,0.9,2.4,2.8,2.4
			c0.7,0,1.2-0.1,1.6-0.4C77.6,16.9,77.8,16.5,77.8,16z"/>
		<path id="XMLID_10_" class="st0" d="M93.5,7.9h-4.4v11.9h-2.9V7.9h-4.3V5.5h11.6V7.9z"/>
		<path id="XMLID_12_" class="st0" d="M106.4,15.6l1.9-10.1h2.9l-3.2,14.3h-3l-2.3-9.5l-2.3,9.5h-3L94.4,5.5h2.9l1.9,10.1l2.4-10.1
			h2.5L106.4,15.6z"/>
		<path id="XMLID_14_" class="st0" d="M118.4,11.8c-0.4-0.1-0.7-0.1-1-0.1c-1.1,0-1.8,0.4-2.1,1.1v6.9h-2.8V9.2h2.7l0.1,1.3
			c0.6-1,1.4-1.5,2.4-1.5c0.3,0,0.6,0,0.9,0.1L118.4,11.8z"/>
		<path id="XMLID_16_" class="st0" d="M119.8,6.4c0-0.4,0.1-0.8,0.4-1s0.7-0.4,1.2-0.4c0.5,0,0.9,0.1,1.2,0.4c0.3,0.3,0.4,0.6,0.4,1
			c0,0.4-0.1,0.8-0.4,1.1c-0.3,0.3-0.7,0.4-1.2,0.4c-0.5,0-0.9-0.1-1.2-0.4C119.9,7.2,119.8,6.8,119.8,6.4z M122.8,19.8h-2.8V9.2
			h2.8V19.8z"/>
		<path id="XMLID_19_" class="st0" d="M128.5,6.5v2.6h1.8v2.1h-1.8v5.3c0,0.4,0.1,0.7,0.2,0.8s0.4,0.3,0.9,0.3c0.3,0,0.6,0,0.8-0.1
			v2.1c-0.6,0.2-1.1,0.3-1.7,0.3c-2,0-3-1-3-3v-5.7h-1.5V9.2h1.5V6.5H128.5z"/>
		<path id="XMLID_21_" class="st0" d="M131.8,6.4c0-0.4,0.1-0.8,0.4-1s0.7-0.4,1.2-0.4c0.5,0,0.9,0.1,1.2,0.4c0.3,0.3,0.4,0.6,0.4,1
			c0,0.4-0.1,0.8-0.4,1.1c-0.3,0.3-0.7,0.4-1.2,0.4c-0.5,0-0.9-0.1-1.2-0.4C132,7.2,131.8,6.8,131.8,6.4z M134.9,19.8H132V9.2h2.8
			V19.8z"/>
		<path id="XMLID_24_" class="st0" d="M139.8,9.2l0.1,1.2c0.8-0.9,1.8-1.4,3-1.4c1.1,0,2,0.3,2.5,1s0.8,1.6,0.8,3v6.8h-2.8V13
			c0-0.6-0.1-1-0.4-1.3c-0.3-0.3-0.7-0.4-1.3-0.4c-0.8,0-1.4,0.3-1.8,1v7.5h-2.8V9.2H139.8z"/>
		<path id="XMLID_26_" class="st0" d="M148,14.4c0-1.6,0.4-2.9,1.2-3.9c0.8-1,1.8-1.5,3.1-1.5c1.2,0,2.1,0.4,2.7,1.2l0.1-1h2.6v10.2
			c0,0.9-0.2,1.7-0.6,2.4c-0.4,0.7-1,1.2-1.8,1.6c-0.8,0.4-1.7,0.5-2.7,0.5c-0.8,0-1.5-0.2-2.3-0.5c-0.7-0.3-1.3-0.7-1.7-1.2
			l1.3-1.7c0.7,0.8,1.6,1.2,2.6,1.2c0.8,0,1.3-0.2,1.8-0.6c0.4-0.4,0.6-1,0.6-1.7v-0.6c-0.7,0.7-1.5,1.1-2.6,1.1
			c-1.3,0-2.3-0.5-3.1-1.5c-0.8-1-1.2-2.3-1.2-4V14.4z M150.8,14.6c0,1,0.2,1.7,0.6,2.3c0.4,0.5,0.9,0.8,1.6,0.8
			c0.9,0,1.5-0.3,1.9-1v-4.5c-0.4-0.6-1-1-1.8-1c-0.7,0-1.2,0.3-1.6,0.8C151,12.6,150.8,13.5,150.8,14.6z"/>
		<path id="XMLID_29_" class="st0" d="M57.9,38.5H55v-6.1h-5.7v6.1h-2.9V24.2h2.9V30H55v-5.8h2.9V38.5z"/>
		<path id="XMLID_31_" class="st0" d="M69.1,32.3h-5.6v3.8h6.6v2.4h-9.6V24.2H70v2.4h-6.6V30h5.6V32.3z"/>
		<path id="XMLID_33_" class="st0" d="M74.7,36.1H81v2.4h-9.2V24.2h2.9V36.1z"/>
		<path id="XMLID_35_" class="st0" d="M85.6,33.5v5h-2.9V24.2h5.6c1.1,0,2,0.2,2.8,0.6c0.8,0.4,1.4,0.9,1.9,1.7s0.7,1.5,0.7,2.5
			c0,1.4-0.5,2.5-1.4,3.3c-1,0.8-2.3,1.2-4,1.2H85.6z M85.6,31.1h2.6c0.8,0,1.4-0.2,1.8-0.5c0.4-0.4,0.6-0.9,0.6-1.6
			c0-0.7-0.2-1.3-0.6-1.7c-0.4-0.4-1-0.7-1.7-0.7h-2.7V31.1z"/>
		<path id="XMLID_38_" class="st0" d="M91.6,37.1c0-0.5,0.2-0.8,0.5-1.1c0.3-0.3,0.7-0.4,1.1-0.4c0.5,0,0.8,0.1,1.2,0.4
			c0.3,0.3,0.5,0.6,0.5,1.1c0,0.4-0.2,0.8-0.5,1.1c-0.3,0.3-0.7,0.4-1.2,0.4c-0.5,0-0.8-0.1-1.1-0.4C91.7,37.9,91.6,37.5,91.6,37.1z
			"/>
		<path id="XMLID_40_" class="st0" d="M96.7,34.5c0-0.8,0.2-1.5,0.5-2.1c0.3-0.6,0.7-1.1,1.3-1.4c0.6-0.3,1.2-0.5,2-0.5
			c1.1,0,1.9,0.3,2.6,1c0.7,0.7,1.1,1.5,1.1,2.7l0,0.5c0,1.2-0.3,2.2-1,2.9c-0.7,0.7-1.6,1.1-2.7,1.1c-1.1,0-2.1-0.4-2.7-1.1
			C97,36.8,96.7,35.8,96.7,34.5L96.7,34.5z M98.8,34.6c0,0.8,0.1,1.3,0.4,1.7s0.7,0.6,1.2,0.6c0.5,0,0.9-0.2,1.2-0.6
			c0.3-0.4,0.4-1,0.4-1.9c0-0.7-0.1-1.3-0.4-1.7c-0.3-0.4-0.7-0.6-1.2-0.6c-0.5,0-0.9,0.2-1.2,0.6S98.8,33.8,98.8,34.6z"/>
		<path id="XMLID_43_" class="st0" d="M109.9,32.6c-0.3,0-0.5-0.1-0.8-0.1c-0.8,0-1.3,0.3-1.6,0.8v5.2h-2.1v-7.9h2l0.1,0.9
			c0.4-0.7,1-1.1,1.8-1.1c0.2,0,0.5,0,0.7,0.1L109.9,32.6z"/>
		<path id="XMLID_45_" class="st0" d="M110.5,34.5c0-1.2,0.3-2.2,0.9-2.9c0.6-0.7,1.4-1.1,2.3-1.1c0.9,0,1.5,0.3,2,0.9l0.1-0.7h1.9
			v7.7c0,0.7-0.2,1.3-0.5,1.8c-0.3,0.5-0.8,0.9-1.3,1.2c-0.6,0.3-1.2,0.4-2,0.4c-0.6,0-1.1-0.1-1.7-0.3c-0.6-0.2-1-0.5-1.3-0.9
			l0.9-1.3c0.5,0.6,1.2,0.9,1.9,0.9c0.6,0,1-0.2,1.3-0.5c0.3-0.3,0.5-0.7,0.5-1.3v-0.4c-0.5,0.6-1.1,0.8-1.9,0.8
			c-1,0-1.7-0.4-2.3-1.1S110.5,35.8,110.5,34.5L110.5,34.5z M112.6,34.6c0,0.7,0.1,1.3,0.4,1.7s0.7,0.6,1.2,0.6
			c0.6,0,1.1-0.2,1.4-0.7v-3.3c-0.3-0.5-0.7-0.7-1.4-0.7c-0.5,0-0.9,0.2-1.2,0.6C112.7,33.2,112.6,33.8,112.6,34.6z"/>
	</g>
	<g id="XMLID_74_">
		<path id="XMLID_86_" class="st1" d="M19.4,15.6c0,1-0.9,1.9-1.9,1.9H4.8c-0.2,0.6-0.3,1.3-0.4,1.9h13.1c1,0,1.9,0.9,1.9,1.9
			c0,1-0.9,1.9-1.9,1.9H4.4c0.1,0.7,0.2,1.3,0.4,1.9h12.8c1,0,1.9,0.9,1.9,1.9c0,1-0.9,1.9-1.9,1.9H6.2c2.7,5.1,8.1,8.6,14.4,8.6
			c9,0,16.3-7.3,16.3-16.3c0-9-7.3-16.3-16.3-16.3C14.3,5,8.9,8.5,6.2,13.7h11.3C18.6,13.7,19.4,14.5,19.4,15.6z"/>
		<path id="XMLID_85_" class="st0" d="M17.5,19.4H4.4H1.3c-0.1,0.6-0.1,1.3-0.1,1.9s0,1.3,0.1,1.9h3.1h13.1c1,0,1.9-0.9,1.9-1.9
			C19.4,20.2,18.6,19.4,17.5,19.4z"/>
		<path id="XMLID_84_" class="st0" d="M20.6,1.9c-8,0-14.8,4.8-17.8,11.7c-0.5,1.2-0.9,2.5-1.2,3.8h3.2h12.8c1,0,1.9-0.9,1.9-1.9
			c0-1-0.9-1.9-1.9-1.9H6.2C8.9,8.5,14.3,5,20.6,5c9,0,16.3,7.3,16.3,16.3c0,9-7.3,16.3-16.3,16.3c-6.2,0-11.6-3.5-14.4-8.6h11.3
			c1,0,1.9-0.9,1.9-1.9c0-1-0.9-1.9-1.9-1.9H4.8H1.6c0.3,1.3,0.7,2.6,1.2,3.8c3,6.9,9.8,11.7,17.8,11.7c10.7,0,19.4-8.7,19.4-19.4
			S31.3,1.9,20.6,1.9z"/>
		<path id="XMLID_83_" class="st2" d="M30.9,21.5c0,0,0,0.1-0.1,0.1C30.8,21.6,30.9,21.5,30.9,21.5z"/>
		<path id="XMLID_82_" class="st2" d="M30.9,21.3c0,0,0,0.1,0,0.1C30.9,21.4,30.9,21.3,30.9,21.3z"/>
		<path id="XMLID_81_" class="st2" d="M30.9,21.1C30.9,21.1,30.9,21.2,30.9,21.1C30.9,21.2,30.9,21.1,30.9,21.1z"/>
		<path id="XMLID_80_" class="st2" d="M30.8,21C30.8,20.9,30.8,20.9,30.8,21C30.8,20.9,30.8,21,30.8,21C30.8,21,30.8,21,30.8,21z"/>
		<path id="XMLID_79_" class="st2" d="M30.8,21c0,0,0,0.1,0.1,0.1C30.9,21.1,30.8,21,30.8,21z"/>
		<path id="XMLID_78_" class="st2" d="M30.9,21.2c0,0,0,0.1,0,0.1C30.9,21.3,30.9,21.2,30.9,21.2z"/>
		<path id="XMLID_77_" class="st2" d="M30.9,21.4C30.9,21.4,30.9,21.4,30.9,21.4C30.9,21.4,30.9,21.4,30.9,21.4z"/>
		<path id="XMLID_76_" class="st0" d="M30.9,21.4c0,0,0-0.1,0-0.1c0,0,0-0.1,0-0.1c0,0,0,0,0-0.1c0,0,0-0.1-0.1-0.1c0,0,0,0,0,0
			c0,0,0,0,0,0l0,0l0,0c0,0-0.1-0.1-0.1-0.1l-2.9-2h0l-6.5-4.6c-0.3-0.2-0.6-0.1-0.8,0.1c-0.2,0.3-0.1,0.6,0.1,0.8l5.8,4.1
			c-0.5,0.6-0.8,1.3-0.8,2.2c0,0.8,0.2,1.4,0.6,2l-5.7,4c-0.3,0.2-0.3,0.5-0.1,0.8c0.2,0.3,0.5,0.3,0.8,0.1l9.4-6.6
			c0,0,0.1-0.1,0.1-0.1c0,0,0,0,0,0c0,0,0,0,0,0C30.8,21.6,30.9,21.5,30.9,21.4C30.9,21.4,30.9,21.4,30.9,21.4z"/>
		<path id="XMLID_75_" class="st2" d="M30.8,21.6C30.8,21.6,30.8,21.6,30.8,21.6C30.8,21.6,30.8,21.6,30.8,21.6
			C30.8,21.6,30.8,21.6,30.8,21.6z"/>
	</g>
</g>
<g id="XMLID_1_">
</g>
<g id="XMLID_48_">
</g>
<g id="XMLID_49_">
</g>
<g id="XMLID_50_">
</g>
<g id="XMLID_51_">
</g>
<g id="XMLID_52_">
</g>
</svg>
