<?xml version="1.0" encoding="utf-8"?>
<!-- Generator: Adobe Illustrator 19.0.0, SVG Export Plug-In . SVG Version: 6.00 Build 0)  -->
<svg version="1.1" id="Layer_1" xmlns="http://www.w3.org/2000/svg" xmlns:xlink="http://www.w3.org/1999/xlink" x="0px" y="0px"
	 viewBox="0 0 583 80" style="enable-background:new 0 0 583 80;" xml:space="preserve">
<style type="text/css">
	.st0{fill:#1B7FD0;}
</style>
<g id="XMLID_3_">
	<path id="XMLID_9_" class="st0" d="M91.6,57.5V19.3H105c4.6,0,8.2,0.9,10.6,2.7c2.4,1.8,3.6,4.4,3.6,7.8c0,1.9-0.5,3.5-1.4,5
		c-1,1.4-2.3,2.5-4,3.1c2,0.5,3.5,1.5,4.6,3c1.1,1.5,1.7,3.3,1.7,5.5c0,3.7-1.2,6.5-3.5,8.4c-2.3,1.9-5.7,2.9-10,2.9H91.6z
		 M99.5,35.3h5.8c4-0.1,6-1.7,6-4.8c0-1.7-0.5-3-1.5-3.7c-1-0.8-2.6-1.1-4.8-1.1h-5.5V35.3z M99.5,40.9v10.3h6.8
		c1.9,0,3.3-0.4,4.3-1.3c1-0.9,1.6-2.1,1.6-3.7c0-3.5-1.8-5.3-5.4-5.3H99.5z"/>
	<path id="XMLID_23_" class="st0" d="M149,40.9h-15.1v10.3h17.8v6.3h-25.6V19.3h25.6v6.4h-17.7v9.1H149V40.9z"/>
	<path id="XMLID_25_" class="st0" d="M176.1,47.5c0-1.5-0.5-2.6-1.6-3.4c-1.1-0.8-2.9-1.6-5.7-2.5s-4.9-1.8-6.5-2.6
		c-4.3-2.3-6.5-5.5-6.5-9.5c0-2.1,0.6-3.9,1.7-5.5s2.8-2.9,5-3.8c2.2-0.9,4.6-1.4,7.3-1.4c2.7,0,5.2,0.5,7.3,1.5
		c2.1,1,3.8,2.4,5,4.2c1.2,1.8,1.8,3.9,1.8,6.1h-7.9c0-1.8-0.6-3.1-1.7-4.1c-1.1-1-2.7-1.5-4.7-1.5c-1.9,0-3.4,0.4-4.5,1.2
		c-1.1,0.8-1.6,1.9-1.6,3.2c0,1.2,0.6,2.3,1.9,3.1c1.3,0.8,3.1,1.6,5.5,2.4c4.5,1.3,7.8,3,9.8,5c2,2,3.1,4.5,3.1,7.5
		c0,3.3-1.3,5.9-3.8,7.8c-2.5,1.9-5.9,2.8-10.1,2.8c-2.9,0-5.6-0.5-8-1.6c-2.4-1.1-4.3-2.6-5.5-4.4c-1.3-1.9-1.9-4-1.9-6.5h7.9
		c0,4.2,2.5,6.3,7.6,6.3c1.9,0,3.3-0.4,4.4-1.1C175.5,49.9,176.1,48.9,176.1,47.5z"/>
	<path id="XMLID_27_" class="st0" d="M218.1,25.6h-11.7v31.9h-7.9V25.6h-11.6v-6.4h31.2V25.6z"/>
	<path id="XMLID_29_" class="st0" d="M252.8,46.5l5.2-27.2h7.9l-8.5,38.3h-7.9l-6.2-25.6l-6.2,25.6H229l-8.5-38.3h7.9l5.2,27.2
		l6.3-27.2h6.7L252.8,46.5z"/>
	<path id="XMLID_31_" class="st0" d="M285,36.2c-1-0.1-1.9-0.2-2.7-0.2c-2.9,0-4.8,1-5.6,2.9v18.6H269V29.1h7.2l0.2,3.4
		c1.5-2.6,3.6-3.9,6.3-3.9c0.8,0,1.6,0.1,2.4,0.3L285,36.2z"/>
	<path id="XMLID_33_" class="st0" d="M288.6,21.7c0-1.1,0.4-2.1,1.1-2.8c0.8-0.7,1.8-1.1,3.1-1.1c1.3,0,2.3,0.4,3.1,1.1
		c0.8,0.7,1.2,1.7,1.2,2.8c0,1.2-0.4,2.1-1.2,2.8s-1.8,1.1-3.1,1.1c-1.3,0-2.3-0.4-3.1-1.1C289,23.8,288.6,22.9,288.6,21.7z
		 M296.7,57.5H289V29.1h7.6V57.5z"/>
	<path id="XMLID_36_" class="st0" d="M312,22.1v7h4.9v5.6H312v14.2c0,1.1,0.2,1.8,0.6,2.3c0.4,0.5,1.2,0.7,2.3,0.7
		c0.8,0,1.6-0.1,2.2-0.2v5.8c-1.5,0.5-3,0.7-4.6,0.7c-5.3,0-8-2.7-8.1-8.1V34.7h-4.2v-5.6h4.2v-7H312z"/>
	<path id="XMLID_38_" class="st0" d="M321,21.7c0-1.1,0.4-2.1,1.1-2.8c0.8-0.7,1.8-1.1,3.1-1.1c1.3,0,2.3,0.4,3.1,1.1
		c0.8,0.7,1.2,1.7,1.2,2.8c0,1.2-0.4,2.1-1.2,2.8s-1.8,1.1-3.1,1.1c-1.3,0-2.3-0.4-3.1-1.1C321.4,23.8,321,22.9,321,21.7z
		 M329.1,57.5h-7.6V29.1h7.6V57.5z"/>
	<path id="XMLID_42_" class="st0" d="M342.4,29.1l0.2,3.3c2-2.5,4.8-3.8,8.2-3.8c3,0,5.3,0.9,6.7,2.7c1.5,1.8,2.2,4.4,2.3,7.9v18.4
		h-7.6V39.3c0-1.6-0.4-2.8-1.1-3.5c-0.7-0.7-1.9-1.1-3.5-1.1c-2.1,0-3.7,0.9-4.8,2.7v20.1h-7.6V29.1H342.4z"/>
	<path id="XMLID_50_" class="st0" d="M364.4,43.1c0-4.4,1-7.9,3.1-10.5c2.1-2.7,4.9-4,8.4-4c3.1,0,5.5,1.1,7.3,3.2l0.3-2.7h6.9v27.5
		c0,2.5-0.6,4.7-1.7,6.5c-1.1,1.8-2.7,3.2-4.8,4.2s-4.5,1.4-7.2,1.4c-2.1,0-4.1-0.4-6.1-1.2s-3.5-1.9-4.5-3.2l3.4-4.6
		c1.9,2.1,4.2,3.2,6.9,3.2c2,0,3.6-0.5,4.7-1.6s1.7-2.6,1.7-4.6v-1.5c-1.8,2-4.1,3-6.9,3c-3.4,0-6.2-1.3-8.3-4
		c-2.1-2.7-3.2-6.2-3.2-10.6V43.1z M372,43.6c0,2.6,0.5,4.6,1.6,6.1c1,1.5,2.5,2.2,4.3,2.2c2.3,0,4-0.9,5-2.6v-12
		c-1-1.7-2.7-2.6-4.9-2.6c-1.8,0-3.3,0.7-4.3,2.2C372.5,38.4,372,40.7,372,43.6z"/>
	<path id="XMLID_54_" class="st0" d="M427.9,57.5H420V41.1h-15.4v16.4h-7.9V19.3h7.9v15.5H420V19.3h7.9V57.5z"/>
	<path id="XMLID_56_" class="st0" d="M457.8,40.9h-15.1v10.3h17.8v6.3h-25.6V19.3h25.6v6.4h-17.7v9.1h15.1V40.9z"/>
	<path id="XMLID_58_" class="st0" d="M472.9,51.2h16.7v6.3H465V19.3h7.9V51.2z"/>
	<path id="XMLID_60_" class="st0" d="M502,44v13.5h-7.9V19.3h14.9c2.9,0,5.4,0.5,7.6,1.6c2.2,1.1,3.9,2.5,5,4.5
		c1.2,1.9,1.8,4.1,1.8,6.6c0,3.7-1.3,6.7-3.8,8.9C517,43,513.5,44,509,44H502z M502,37.7h7c2.1,0,3.7-0.5,4.8-1.5
		c1.1-1,1.6-2.4,1.6-4.2c0-1.9-0.6-3.4-1.7-4.5s-2.6-1.8-4.6-1.8H502V37.7z"/>
	<path id="XMLID_63_" class="st0" d="M518.2,53.8c0-1.2,0.4-2.2,1.2-2.9c0.8-0.8,1.8-1.1,3.1-1.1c1.2,0,2.3,0.4,3.1,1.1
		c0.8,0.8,1.2,1.7,1.2,2.9c0,1.2-0.4,2.2-1.2,2.9c-0.8,0.7-1.8,1.1-3.1,1.1c-1.2,0-2.3-0.4-3.1-1.1C518.6,56,518.2,55,518.2,53.8z"
		/>
	<path id="XMLID_65_" class="st0" d="M531.6,48.1c0-1.8,0.4-3.5,1.1-4.9c0.7-1.4,1.7-2.5,3-3.3c1.3-0.8,2.9-1.2,4.6-1.2
		c2.5,0,4.5,0.8,6.1,2.3c1.6,1.5,2.5,3.6,2.6,6.2l0,1.3c0,2.8-0.8,5.1-2.4,6.8c-1.6,1.7-3.7,2.6-6.4,2.6s-4.8-0.9-6.4-2.6
		c-1.6-1.7-2.4-4-2.4-7V48.1z M536.5,48.5c0,1.8,0.3,3.1,1,4c0.7,0.9,1.6,1.4,2.8,1.4c1.2,0,2.1-0.5,2.8-1.4c0.7-0.9,1-2.4,1-4.4
		c0-1.7-0.3-3-1-4c-0.7-0.9-1.6-1.4-2.8-1.4c-1.2,0-2.1,0.5-2.8,1.4C536.9,45.1,536.5,46.5,536.5,48.5z"/>
	<path id="XMLID_68_" class="st0" d="M562.5,43.7c-0.7-0.1-1.3-0.1-1.8-0.1c-1.9,0-3.1,0.6-3.7,1.9v12.1h-4.9V39.1h4.7l0.1,2.2
		c1-1.7,2.4-2.5,4.1-2.5c0.5,0,1.1,0.1,1.5,0.2L562.5,43.7z"/>
	<path id="XMLID_70_" class="st0" d="M563.8,48.2c0-2.8,0.7-5.1,2-6.8c1.3-1.7,3.2-2.6,5.4-2.6c2,0,3.6,0.7,4.7,2.1l0.2-1.7h4.5
		v17.8c0,1.6-0.4,3-1.1,4.2c-0.7,1.2-1.8,2.1-3.1,2.7c-1.3,0.6-2.9,0.9-4.7,0.9c-1.4,0-2.7-0.3-4-0.8c-1.3-0.5-2.3-1.2-2.9-2.1
		l2.2-3c1.2,1.4,2.7,2.1,4.5,2.1c1.3,0,2.3-0.3,3.1-1s1.1-1.7,1.1-3v-1c-1.1,1.3-2.6,1.9-4.5,1.9c-2.2,0-4-0.9-5.4-2.6
		c-1.4-1.7-2.1-4-2.1-6.9V48.2z M568.7,48.5c0,1.7,0.3,3,1,3.9c0.7,1,1.6,1.4,2.8,1.4c1.5,0,2.6-0.6,3.2-1.7v-7.8
		c-0.7-1.1-1.7-1.7-3.2-1.7c-1.2,0-2.1,0.5-2.8,1.5S568.7,46.6,568.7,48.5z"/>
</g>
<path id="XMLID_12_" class="st0" d="M34.2,36.1H7.1H0.6c-0.1,1.3-0.2,2.6-0.2,3.9c0,1.3,0.1,2.6,0.2,3.9h6.5h27.1
	c2.2,0,3.9-1.8,3.9-3.9C38.1,37.8,36.4,36.1,34.2,36.1z"/>
<path id="XMLID_4_" class="st0" d="M40.4,0C23.9,0,9.8,10,3.7,24.3c-1.1,2.5-1.9,5.1-2.4,7.8h6.6h26.4c2.2,0,3.9-1.8,3.9-3.9
	c0-2.2-1.8-3.9-3.9-3.9H10.8C16.4,13.6,27.6,6.4,40.4,6.4C59,6.4,74,21.4,74,40c0,18.6-15,33.6-33.6,33.6c-12.9,0-24-7.2-29.7-17.9
	h23.4c2.2,0,3.9-1.8,3.9-3.9c0-2.2-1.8-3.9-3.9-3.9H7.8H1.2c0.5,2.7,1.4,5.3,2.4,7.8C9.8,70,23.9,80,40.4,80c22.1,0,40-17.9,40-40
	S62.5,0,40.4,0z"/>
<path id="XMLID_39_" class="st0" d="M61.7,40.4c0,0.1-0.1,0.2-0.1,0.3C61.7,40.6,61.7,40.5,61.7,40.4z"/>
<path id="XMLID_43_" class="st0" d="M61.8,40c0,0.1,0,0.2,0,0.2C61.8,40.2,61.8,40.1,61.8,40z"/>
<path id="XMLID_44_" class="st0" d="M61.7,39.6c0,0,0,0.1,0.1,0.1C61.8,39.7,61.8,39.7,61.7,39.6z"/>
<path id="XMLID_46_" class="st0" d="M61.6,39.3C61.6,39.3,61.6,39.3,61.6,39.3C61.6,39.3,61.6,39.3,61.6,39.3
	C61.6,39.3,61.6,39.3,61.6,39.3z"/>
<path id="XMLID_47_" class="st0" d="M61.6,39.3c0.1,0.1,0.1,0.2,0.1,0.3C61.7,39.5,61.7,39.4,61.6,39.3z"/>
<path id="XMLID_48_" class="st0" d="M61.8,39.8c0,0.1,0,0.2,0,0.2C61.8,39.9,61.8,39.8,61.8,39.8z"/>
<path id="XMLID_49_" class="st0" d="M61.8,40.2c0,0,0,0.1-0.1,0.1C61.8,40.3,61.8,40.3,61.8,40.2z"/>
<path id="XMLID_2_" class="st0" d="M61.8,40.2c0-0.1,0-0.2,0-0.2s0-0.2,0-0.2c0,0,0-0.1-0.1-0.1c0-0.1-0.1-0.2-0.1-0.3c0,0,0,0,0,0
	c0,0-0.1,0-0.1-0.1l0,0l0,0c-0.1-0.1-0.1-0.2-0.2-0.2l-5.9-4.2h0l-13.5-9.5c-0.5-0.4-1.3-0.2-1.6,0.3S40,27,40.6,27.3l12,8.4
	c-1,1.2-1.6,2.8-1.6,4.5c0,1.6,0.5,3,1.3,4.2l-11.7,8.2c-0.5,0.4-0.7,1.1-0.3,1.6s1.1,0.7,1.6,0.3L61.3,41c0.1-0.1,0.1-0.1,0.2-0.2
	c0,0,0.1,0,0.1-0.1c0,0,0,0,0,0c0.1-0.1,0.1-0.2,0.1-0.3C61.8,40.3,61.8,40.3,61.8,40.2z"/>
<path id="XMLID_51_" class="st0" d="M61.6,40.7C61.6,40.7,61.6,40.7,61.6,40.7C61.6,40.7,61.6,40.7,61.6,40.7
	C61.6,40.7,61.6,40.7,61.6,40.7z"/>
<g id="XMLID_1_">
</g>
<g id="XMLID_73_">
</g>
<g id="XMLID_74_">
</g>
<g id="XMLID_75_">
</g>
<g id="XMLID_76_">
</g>
<g id="XMLID_77_">
</g>
</svg>
