<?xml version="1.0" encoding="utf-8"?>
<!-- Generator: Adobe Illustrator 19.0.0, SVG Export Plug-In . SVG Version: 6.00 Build 0)  -->
<svg version="1.1" id="Layer_1" xmlns="http://www.w3.org/2000/svg" xmlns:xlink="http://www.w3.org/1999/xlink" x="0px" y="0px"
	 viewBox="0 0 80 80" style="enable-background:new 0 0 80 80;" xml:space="preserve">
<style type="text/css">
	.st0{fill:#1B7FD0;}
</style>
<g id="XMLID_17_">
	<path id="XMLID_12_" class="st0" d="M33.8,36.1H6.7H0.2C0.1,37.4,0,38.7,0,40c0,1.3,0.1,2.6,0.2,3.9h6.5h27.1
		c2.2,0,3.9-1.8,3.9-3.9C37.7,37.8,35.9,36.1,33.8,36.1z"/>
	<path id="XMLID_4_" class="st0" d="M40,0C23.5,0,9.3,10,3.2,24.3c-1.1,2.5-1.9,5.1-2.4,7.8h6.6h26.4c2.2,0,3.9-1.8,3.9-3.9
		c0-2.2-1.8-3.9-3.9-3.9H10.3C16,13.6,27.1,6.4,40,6.4c18.6,0,33.6,15,33.6,33.6c0,18.6-15,33.6-33.6,33.6c-12.9,0-24-7.2-29.7-17.9
		h23.4c2.2,0,3.9-1.8,3.9-3.9c0-2.2-1.8-3.9-3.9-3.9H7.4H0.8c0.5,2.7,1.4,5.3,2.4,7.8C9.3,70,23.5,80,40,80c22.1,0,40-17.9,40-40
		S62.1,0,40,0z"/>
	<path id="XMLID_39_" class="st0" d="M61.3,40.4c0,0.1-0.1,0.2-0.1,0.3C61.2,40.6,61.3,40.5,61.3,40.4z"/>
	<path id="XMLID_43_" class="st0" d="M61.4,40c0,0.1,0,0.2,0,0.2C61.4,40.2,61.4,40.1,61.4,40z"/>
	<path id="XMLID_44_" class="st0" d="M61.3,39.6c0,0,0,0.1,0.1,0.1C61.3,39.7,61.3,39.7,61.3,39.6z"/>
	<path id="XMLID_46_" class="st0" d="M61.2,39.3C61.1,39.3,61.1,39.3,61.2,39.3C61.1,39.3,61.1,39.3,61.2,39.3
		C61.2,39.3,61.2,39.3,61.2,39.3z"/>
	<path id="XMLID_47_" class="st0" d="M61.2,39.3c0.1,0.1,0.1,0.2,0.1,0.3C61.3,39.5,61.2,39.4,61.2,39.3z"/>
	<path id="XMLID_48_" class="st0" d="M61.4,39.8c0,0.1,0,0.2,0,0.2C61.4,39.9,61.4,39.8,61.4,39.8z"/>
	<path id="XMLID_49_" class="st0" d="M61.4,40.2c0,0,0,0.1-0.1,0.1C61.3,40.3,61.3,40.3,61.4,40.2z"/>
	<path id="XMLID_2_" class="st0" d="M61.4,40.2c0-0.1,0-0.2,0-0.2s0-0.2,0-0.2c0,0,0-0.1-0.1-0.1c0-0.1-0.1-0.2-0.1-0.3c0,0,0,0,0,0
		c0,0-0.1,0-0.1-0.1l0,0l0,0C61,39.2,61,39.1,60.9,39l-5.9-4.2h0l-13.5-9.5c-0.5-0.4-1.3-0.2-1.6,0.3s-0.2,1.3,0.3,1.6l12,8.4
		c-1,1.2-1.6,2.8-1.6,4.5c0,1.6,0.5,3,1.3,4.2l-11.7,8.2c-0.5,0.4-0.7,1.1-0.3,1.6s1.1,0.7,1.6,0.3L60.9,41c0.1-0.1,0.1-0.1,0.2-0.2
		c0,0,0.1,0,0.1-0.1c0,0,0,0,0,0c0.1-0.1,0.1-0.2,0.1-0.3C61.3,40.3,61.3,40.3,61.4,40.2z"/>
	<path id="XMLID_51_" class="st0" d="M61.2,40.7C61.2,40.7,61.2,40.7,61.2,40.7C61.1,40.7,61.1,40.7,61.2,40.7
		C61.1,40.7,61.1,40.7,61.2,40.7z"/>
</g>
<g id="XMLID_18_">
</g>
<g id="XMLID_19_">
</g>
<g id="XMLID_20_">
</g>
<g id="XMLID_21_">
</g>
<g id="XMLID_22_">
</g>
<g id="XMLID_23_">
</g>
</svg>
