<?xml version="1.0" encoding="utf-8"?>
<!-- Generator: Adobe Illustrator 19.0.0, SVG Export Plug-In . SVG Version: 6.00 Build 0)  -->
<svg version="1.1" id="Layer_1" xmlns="http://www.w3.org/2000/svg" xmlns:xlink="http://www.w3.org/1999/xlink" x="0px" y="0px"
	 viewBox="0 0 50 29" style="enable-background:new 0 0 50 29;" xml:space="preserve">
<style type="text/css">
	.st0{fill-rule:evenodd;clip-rule:evenodd;fill:#FFFFFF;}
</style>
<g id="XMLID_7_">
	<path id="XMLID_6_" class="st0" d="M43.7,18c-0.1,2.1,2.6,5.2,6.3,6.9c-5.3,0-9.5-1.2-12.8-2.8c2.6-2.4,4.2-5.4,4.2-8.8
		c0-4.2-2.6-7.9-6.4-10.5c-1.7-1.2-3.6-2.1-5.6-2.7c0.7-0.1,1.4-0.1,2-0.1c4.5-0.1,8.5,1.2,11.4,3.2c2.9,1.9,4.7,4.7,4.7,7.7
		C47.5,13.6,46.1,16.1,43.7,18L43.7,18z"/>
	<path id="XMLID_9_" class="st0" d="M33.4,4.7c-3.2-2.2-7.7-3.6-12.7-3.6c-5,0-9.4,1.4-12.7,3.6c-3.3,2.3-5.3,5.3-5.3,8.7
		c0,3.1,1.6,5.9,4.3,8c0,2.3-2.9,5.8-7.1,7.6c6.7,0,12-1.7,15.8-3.8c1.6,0.3,3.2,0.5,4.9,0.5c5,0,9.5-1.4,12.7-3.6
		c3.3-2.2,5.3-5.2,5.3-8.7C38.7,9.9,36.7,6.9,33.4,4.7z M11.8,15.8c-1.2,0-2.2-1-2.2-2.2c0-1.2,1-2.1,2.2-2.1c1.2,0,2.2,0.9,2.2,2.1
		C14,14.9,13,15.8,11.8,15.8z M20.2,15.8c-1.2,0-2.2-1-2.2-2.2c0-1.2,1-2.1,2.2-2.1c1.2,0,2.2,0.9,2.2,2.1
		C22.4,14.9,21.4,15.8,20.2,15.8z M28.6,15.8c-1.2,0-2.2-1-2.2-2.2c0-1.2,1-2.1,2.2-2.1c1.2,0,2.2,0.9,2.2,2.1
		C30.8,14.9,29.8,15.8,28.6,15.8z"/>
</g>
<g id="XMLID_34_">
</g>
<g id="XMLID_35_">
</g>
<g id="XMLID_36_">
</g>
<g id="XMLID_37_">
</g>
<g id="XMLID_38_">
</g>
<g id="XMLID_39_">
</g>
</svg>
