<?xml version="1.0" encoding="utf-8"?>
<!-- Generator: Adobe Illustrator 19.0.0, SVG Export Plug-In . SVG Version: 6.00 Build 0)  -->
<svg version="1.1" id="Layer_1" xmlns="http://www.w3.org/2000/svg" xmlns:xlink="http://www.w3.org/1999/xlink" x="0px" y="0px"
	 viewBox="0 0 110 110" style="enable-background:new 0 0 110 110;" xml:space="preserve">
<style type="text/css">
	.st0{fill:#CADDEA;}
	.st1{fill:#1B7FD0;}
</style>
<circle id="XMLID_1_" class="st0" cx="55" cy="55" r="55"/>
<g id="XMLID_23_">
	<path id="XMLID_27_" class="st1" d="M62.1,27.6c0-3.9-3.2-7.1-7.1-7.1c-3.9,0-7.1,3.2-7.1,7.1h-7.1v7.1h28.4v-7.1H62.1z M55,31.9
		c-2,0-3.5-1.6-3.5-3.5c0-2,1.6-3.5,3.5-3.5c2,0,3.5,1.6,3.5,3.5C58.5,30.3,57,31.9,55,31.9z"/>
	<path id="XMLID_24_" class="st1" d="M72.7,27.6v10.6H37.3V27.6h-7.1v57.9h49.7V27.6H72.7z M51.3,75.8L48.5,73L37.2,61.7l5.6-5.6
		l8.5,8.5l16.1-16.1l5.6,5.6L51.3,75.8z"/>
</g>
<g id="XMLID_3_">
</g>
<g id="XMLID_4_">
</g>
<g id="XMLID_5_">
</g>
<g id="XMLID_6_">
</g>
<g id="XMLID_7_">
</g>
<g id="XMLID_8_">
</g>
</svg>
