<?xml version="1.0" encoding="utf-8"?>
<!-- Generator: Adobe Illustrator 19.0.0, SVG Export Plug-In . SVG Version: 6.00 Build 0)  -->
<svg version="1.1" id="Layer_1" xmlns="http://www.w3.org/2000/svg" xmlns:xlink="http://www.w3.org/1999/xlink" x="0px" y="0px"
	 viewBox="0 0 110 110" style="enable-background:new 0 0 110 110;" xml:space="preserve">
<style type="text/css">
	.st0{fill:#1B7FD0;}
	.st1{fill:#CADDEA;}
</style>
<circle id="XMLID_1_" class="st0" cx="55" cy="55" r="55"/>
<g id="XMLID_2_">
	<path id="XMLID_30_" class="st1" d="M66.8,59.2c0.9-0.1,1.5-0.9,1.4-1.8c-0.1-0.9-0.9-1.5-1.7-1.4L65,56.2c-0.2-1.5-0.6-3-1.1-4.4
		l1.4-0.6c0.8-0.4,1.2-1.3,0.8-2.1c-0.4-0.8-1.3-1.2-2.1-0.8l-1.4,0.6c-0.7-1.4-1.5-2.6-2.4-3.8l1.1-1c0.7-0.6,0.7-1.6,0.1-2.3
		c-0.6-0.7-1.6-0.7-2.3-0.1l-1.1,1c-1.1-1.1-2.3-2-3.5-2.9l0.8-1.3c0.4-0.8,0.2-1.7-0.6-2.2c-0.8-0.4-1.7-0.2-2.2,0.6l-0.8,1.3
		c-1.3-0.7-2.8-1.2-4.2-1.6l0.3-1.5c0.2-0.9-0.4-1.7-1.2-1.9s-1.7,0.4-1.9,1.2L44.4,36c-1.5-0.2-3-0.3-4.5-0.2l-0.2-1.6
		c-0.1-0.9-0.9-1.5-1.8-1.4c-0.9,0.1-1.5,0.9-1.4,1.8l0.2,1.6c-1.4,0.2-2.7,0.6-4,1l-0.6-1.3c-0.3-0.8-1.3-1.2-2.1-0.8
		c-0.8,0.3-1.2,1.3-0.8,2.1l0.6,1.3c-1.3,0.7-2.6,1.5-3.8,2.4l-1-1.1c-0.6-0.7-1.6-0.7-2.3-0.1C22,40.3,22,41.3,22.5,42l1,1.1
		c-1.1,1.1-2,2.2-2.8,3.5l-1.3-0.8c-0.8-0.5-1.7-0.2-2.2,0.6c-0.4,0.8-0.2,1.7,0.6,2.2l1.3,0.8c-0.7,1.3-1.2,2.7-1.6,4.2L16,53.3
		c-0.9-0.2-1.7,0.4-1.9,1.2c-0.2,0.9,0.4,1.7,1.2,1.9l1.5,0.3c-0.2,1.5-0.3,3-0.2,4.5L15,61.4c-0.9,0.1-1.5,0.9-1.4,1.7
		c0.1,0.9,0.9,1.5,1.7,1.4l1.6-0.2c0.3,1.5,0.6,2.9,1.2,4.3l-1.4,0.6c-0.8,0.4-1.2,1.3-0.8,2.1c0.4,0.8,1.3,1.2,2.1,0.8l1.5-0.6
		c0.7,1.3,1.5,2.6,2.4,3.7l-1.2,1.1c-0.7,0.6-0.7,1.6-0.1,2.3c0.6,0.7,1.6,0.7,2.3,0.1l1.2-1.1c1.1,1,2.2,2,3.5,2.8l-0.8,1.4
		c-0.4,0.8-0.2,1.7,0.6,2.2c0.8,0.4,1.7,0.2,2.2-0.6l0.8-1.4c1.3,0.7,2.7,1.2,4.2,1.6L34.1,85c-0.2,0.9,0.4,1.7,1.2,1.9
		c0.9,0.2,1.7-0.4,1.9-1.2l0.3-1.5c1.5,0.2,3,0.3,4.5,0.2l0.2,1.6c0.1,0.9,0.9,1.5,1.8,1.4c0.9-0.1,1.5-0.9,1.4-1.8L45.2,84
		c1.3-0.2,2.5-0.5,3.7-0.9l0.7,1.6c0.3,0.8,1.3,1.2,2.1,0.8c0.8-0.3,1.2-1.3,0.8-2.1l-0.7-1.5c1.3-0.7,2.6-1.5,3.8-2.4l1.1,1.3
		c0.6,0.7,1.6,0.7,2.3,0.1s0.7-1.6,0.2-2.3L58,77.4c1.1-1.1,2-2.2,2.9-3.4l1.4,0.8c0.8,0.5,1.7,0.2,2.2-0.6c0.5-0.8,0.2-1.7-0.6-2.2
		l-1.4-0.8c0.7-1.3,1.3-2.7,1.7-4.2l1.6,0.3c0.9,0.2,1.7-0.4,1.9-1.2c0.2-0.9-0.4-1.7-1.2-1.9L65,63.9c0.2-1.5,0.3-3,0.3-4.5
		L66.8,59.2z M38.7,39.8c4.6-0.5,9.1,0.6,12.8,2.8c-1.6,2.3-3.3,4.5-4.9,6.7c-2.1-1.1-4.5-1.6-7-1.3c-0.3,0-0.7,0.1-1,0.2
		c-0.9-2.6-1.8-5.2-2.7-7.9C36.8,40.1,37.8,39.9,38.7,39.8z M49.3,59.1c0.5,4.6-2.8,8.7-7.4,9.2s-8.7-2.8-9.2-7.4s2.8-8.7,7.4-9.2
		C44.6,51.2,48.8,54.5,49.3,59.1z M32,41.8c1,2.6,2,5.2,3.1,7.8c-2.9,1.7-5.1,4.5-5.8,7.8c-2.8-0.2-5.5-0.5-8.3-0.7
		C22,50.2,26.1,44.6,32,41.8z M27,74.9c-3.4-3.2-5.8-7.6-6.3-12.6c-0.1-0.5-0.1-1-0.1-1.5c2.8,0.1,5.6,0.2,8.3,0.4
		c0,0.1,0,0.1,0,0.2c0.3,2.7,1.5,5.2,3.3,7C30.5,70.6,28.8,72.7,27,74.9z M43.2,80.3c-4.6,0.5-9.1-0.6-12.8-2.8
		c1.6-2.3,3.3-4.5,4.9-6.7c2.1,1.1,4.5,1.6,7,1.3c0.3,0,0.7-0.1,1-0.2c0.9,2.6,1.8,5.2,2.7,7.9C45.1,80,44.2,80.2,43.2,80.3z
		 M49.9,78.3c-1-2.6-2.1-5.2-3.1-7.8c2.9-1.7,5.1-4.5,5.8-7.8c2.8,0.2,5.5,0.5,8.3,0.7C59.9,69.9,55.8,75.5,49.9,78.3z M61.3,59.3
		c-2.8-0.1-5.6-0.2-8.3-0.4c0-0.1,0-0.1,0-0.2c-0.3-2.7-1.5-5.2-3.3-7c1.7-2.2,3.4-4.4,5.2-6.5c3.4,3.2,5.8,7.6,6.3,12.6
		C61.2,58.3,61.3,58.8,61.3,59.3z"/>
	<path id="XMLID_21_" class="st1" d="M95.4,42.2c0.5,0,0.9-0.4,0.9-0.9s-0.4-0.9-0.9-0.9h-0.9c0-0.9-0.2-1.7-0.4-2.6l0.9-0.3
		c0.5-0.2,0.8-0.7,0.6-1.1c-0.1-0.5-0.7-0.8-1.1-0.6l-0.8,0.3c-0.3-0.8-0.7-1.6-1.1-2.3l0.7-0.5c0.4-0.3,0.5-0.9,0.2-1.3
		c-0.3-0.4-0.9-0.5-1.3-0.2l-0.7,0.5c-0.5-0.7-1.2-1.3-1.8-1.9l0.5-0.7c0.3-0.4,0.2-1-0.2-1.3c-0.4-0.3-1-0.2-1.3,0.2l-0.5,0.7
		c-0.7-0.5-1.5-0.9-2.3-1.2l0.3-0.8c0.2-0.5-0.1-1-0.6-1.2s-1,0.1-1.2,0.6l-0.3,0.8c-0.8-0.2-1.7-0.3-2.6-0.4v-0.9
		c0-0.5-0.4-0.9-0.9-0.9s-0.9,0.4-0.9,0.9v0.9c-0.8,0.1-1.6,0.2-2.3,0.3l-0.2-0.8c-0.1-0.5-0.7-0.8-1.1-0.6
		c-0.5,0.1-0.8,0.7-0.6,1.1l0.2,0.8c-0.8,0.3-1.6,0.7-2.3,1.1l-0.5-0.7c-0.3-0.4-0.9-0.5-1.3-0.2s-0.5,0.9-0.2,1.3l0.5,0.7
		c-0.7,0.5-1.3,1.1-1.8,1.8l-0.7-0.5c-0.4-0.3-1-0.2-1.3,0.2s-0.2,1,0.2,1.3l0.7,0.5c-0.5,0.7-0.9,1.5-1.2,2.3L67,35.4
		c-0.5-0.2-1,0.1-1.2,0.6s0.1,1,0.6,1.2l0.8,0.3c-0.2,0.8-0.4,1.7-0.4,2.5h-0.9c-0.5,0-0.9,0.4-0.9,0.9s0.4,0.9,0.9,0.9h0.9
		c0.1,0.9,0.2,1.7,0.4,2.5l-0.9,0.3c-0.5,0.1-0.8,0.7-0.6,1.1c0.1,0.5,0.7,0.8,1.1,0.6l0.9-0.3c0.3,0.8,0.7,1.6,1.1,2.3l-0.7,0.5
		c-0.4,0.3-0.5,0.9-0.2,1.3c0.3,0.4,0.9,0.5,1.3,0.2l0.7-0.5c0.5,0.7,1.1,1.3,1.8,1.8l-0.5,0.7c-0.3,0.4-0.2,1,0.2,1.3
		c0.4,0.3,1,0.2,1.3-0.2l0.5-0.7c0.7,0.5,1.5,0.8,2.3,1.2l-0.3,0.9c-0.2,0.5,0.1,1,0.6,1.2s1-0.1,1.2-0.6l0.3-0.9
		c0.8,0.2,1.7,0.3,2.5,0.4v0.9c0,0.5,0.4,0.9,0.9,0.9s0.9-0.4,0.9-0.9v-0.9c0.7,0,1.5-0.1,2.1-0.3l0.3,0.9c0.1,0.5,0.7,0.8,1.1,0.6
		c0.5-0.1,0.8-0.7,0.6-1.1l-0.3-0.9c0.8-0.3,1.6-0.7,2.3-1.1l0.5,0.8c0.3,0.4,0.9,0.5,1.3,0.2s0.5-0.9,0.2-1.3L89.3,52
		c0.7-0.5,1.3-1.1,1.9-1.8l0.8,0.6c0.4,0.3,1,0.2,1.3-0.2s0.2-1-0.2-1.3l-0.7-0.6c0.5-0.7,0.9-1.5,1.2-2.3l0.9,0.3
		c0.5,0.2,1-0.1,1.2-0.6s-0.1-1-0.6-1.2l-0.9-0.3c0.2-0.8,0.4-1.7,0.5-2.5L95.4,42.2z M80.7,29.4c2.7,0,5.1,0.9,7.1,2.4
		c-1.1,1.2-2.1,2.4-3.2,3.5c-1.1-0.8-2.5-1.2-3.9-1.2c-0.2,0-0.4,0-0.6,0c-0.4-1.6-0.7-3.1-1-4.7C79.6,29.4,80.1,29.4,80.7,29.4z
		 M85.4,41.1c0,2.6-2.2,4.8-4.8,4.8c-2.6,0-4.8-2.2-4.8-4.8s2.2-4.8,4.8-4.8C83.3,36.3,85.4,38.4,85.4,41.1z M76.7,30.1
		c0.4,1.5,0.8,3.1,1.2,4.6c-1.8,0.8-3.2,2.2-3.8,4.1c-1.6-0.3-3.1-0.6-4.7-0.9C70.5,34.2,73.2,31.3,76.7,30.1z M71.8,48.6
		C70,46.6,69,43.9,69,41c0-0.3,0-0.6,0-0.8c1.6,0.2,3.1,0.5,4.7,0.7V41c0,1.6,0.5,3,1.4,4.2C74,46.4,72.9,47.5,71.8,48.6z
		 M80.6,52.7c-2.7,0-5.1-0.9-7.1-2.4c1.1-1.2,2.1-2.4,3.2-3.5c1.1,0.8,2.5,1.2,3.9,1.2c0.2,0,0.4,0,0.6,0c0.4,1.6,0.7,3.1,1.1,4.7
		C81.7,52.7,81.2,52.7,80.6,52.7z M84.6,52c-0.4-1.5-0.8-3.1-1.2-4.6c1.8-0.8,3.2-2.2,3.8-4.1c1.6,0.3,3.1,0.6,4.7,0.9
		C90.8,47.9,88.1,50.8,84.6,52z M92.3,41.9c-1.6-0.2-3.1-0.5-4.7-0.7v-0.1c0-1.6-0.5-3-1.4-4.2c1.1-1.1,2.2-2.3,3.4-3.4
		c1.7,2,2.8,4.7,2.8,7.6C92.3,41.4,92.3,41.6,92.3,41.9z"/>
</g>
<g id="XMLID_19_">
</g>
<g id="XMLID_20_">
</g>
<g id="XMLID_22_">
</g>
<g id="XMLID_23_">
</g>
<g id="XMLID_24_">
</g>
<g id="XMLID_25_">
</g>
</svg>
