<?xml version="1.0" encoding="utf-8"?>
<!-- Generator: Adobe Illustrator 19.0.0, SVG Export Plug-In . SVG Version: 6.00 Build 0)  -->
<svg version="1.1" id="Layer_1" xmlns="http://www.w3.org/2000/svg" xmlns:xlink="http://www.w3.org/1999/xlink" x="0px" y="0px"
	 viewBox="0 0 110 110" style="enable-background:new 0 0 110 110;" xml:space="preserve">
<style type="text/css">
	.st0{fill:#CADDEA;}
	.st1{fill:#1B7FD0;}
	.st2{fill-rule:evenodd;clip-rule:evenodd;fill:#1B7FD0;}
</style>
<circle id="XMLID_1_" class="st0" cx="55" cy="55" r="55"/>
<g id="XMLID_19_">
	<g id="XMLID_10_">
		<polygon id="XMLID_17_" class="st1" points="53.9,79.6 54.9,79.5 67.6,62.6 67.4,61.5 51.6,63.8 		"/>
		<path id="XMLID_11_" class="st1" d="M20,25.6l8.4,57.7L51,80l-2.7-18.7L67,58.6l-5.7-39L20,25.6z M59.9,53.2l-28.5,4.1l-0.6-4.4
			l28.5-4.1L59.9,53.2z M58.9,46.1l-28.5,4.1l-0.6-4.4l28.5-4.1L58.9,46.1z M57.9,39l-28.5,4.1l-0.6-4.4l28.5-4.1L57.9,39z
			 M56.8,31.9l-28.5,4.1l-0.6-4.4l28.5-4.1L56.8,31.9z"/>
	</g>
	<g id="XMLID_4_">
		<polygon id="XMLID_9_" class="st2" points="83.4,57.1 69.3,77 77,82.6 91.2,62.4 92.1,61.1 84.3,55.8 		"/>
		<path id="XMLID_8_" class="st2" d="M71.9,89.3h-0.4c-1.1,0-2.3,0.2-6.8,0.2c-0.5,0-1-0.2-1.4-0.8c-0.8-0.4-1.2-0.9-2-0.9
			c-0.8,0-1.4,0.4-3,1.2c-0.6,0.4-1.8,0.9-2.3,1.1c0-0.2,0-0.9,0.2-1.1c0.2-1,0.2-1.9,0-2.3c-0.2-0.3-0.4-0.3-0.6-0.3
			c-1.4,0-2.7,1.6-4.3,3c-1,0.9-2,2-2.6,2c-0.4-0.8,1.2-3.9,1.6-5.3c1-2.3,1.4-2.7,0.8-3.2c-0.2-0.2-0.5-0.2-1.2,0
			c-0.9,0.8-2,1.6-2.9,2.8c-2,1.8-4.1,3.9-5.7,3.2c-0.2-0.3-0.8,0-1,0.2c-0.2,0.2,0,0.6,0.2,0.9c2.4,1.2,4.6-1.1,7.1-3.3
			c0.6-0.5,1.1-1.2,1.8-1.6c-0.2,0.2-0.2,0.4-0.4,0.6c-1.4,2.9-2.3,5.3-1.6,6.3c0.2,0.2,0.4,0.4,0.9,0.4c1,0,2-1.1,3.4-2.5
			c1.2-1.1,2.3-2.3,3.2-2.5c0,0.2,0,0.6-0.2,1.1c-0.3,1-0.3,1.9,0,2.4c0.2,0.2,0.4,0.4,0.6,0.4c0.6,0,1.6-0.4,2.9-1.4
			c0.8-0.4,2-1.1,2.3-1.1c0.5,0,1,0.2,1.4,0.6c0.5,0.4,1.2,1,2,1c2.6,0,5.2-0.3,7.5-0.3C71.8,90.3,72.3,89.3,71.9,89.3L71.9,89.3z"
			/>
		<polygon id="XMLID_7_" class="st2" points="92.6,60.5 92.8,60 85.1,54.7 84.8,55 		"/>
		<path id="XMLID_6_" class="st2" d="M93.3,59.4l4.8-7l0.7,0.6l-7.4,10.6c-0.3,0.4-0.2,0.8,0.2,1.1c0.2,0.1,0.5,0.2,0.6,0.1
			c0.2,0,0.4-0.1,0.5-0.3l7.9-11.3c0.3-0.4,0.2-0.9-0.2-1.1l-2.2-1.6L92,46.2C91.8,46,91.6,46,91.4,46c-0.2,0.1-0.4,0.2-0.6,0.4
			L85.6,54L93.3,59.4z"/>
		<polygon id="XMLID_5_" class="st2" points="67,87.8 76.5,83.4 68.6,78 		"/>
	</g>
</g>
<g id="XMLID_2_">
</g>
<g id="XMLID_3_">
</g>
<g id="XMLID_18_">
</g>
<g id="XMLID_20_">
</g>
<g id="XMLID_21_">
</g>
<g id="XMLID_22_">
</g>
</svg>
