<?xml version="1.0" encoding="utf-8"?>
<!-- Generator: Adobe Illustrator 19.0.0, SVG Export Plug-In . SVG Version: 6.00 Build 0)  -->
<svg version="1.1" id="Layer_1" xmlns="http://www.w3.org/2000/svg" xmlns:xlink="http://www.w3.org/1999/xlink" x="0px" y="0px"
	 viewBox="0 0 110 110" style="enable-background:new 0 0 110 110;" xml:space="preserve">
<style type="text/css">
	.st0{fill:#1B7FD0;}
	.st1{fill:#CADDEA;}
</style>
<circle id="XMLID_1_" class="st0" cx="55" cy="55" r="55"/>
<g id="XMLID_3_">
	<rect id="XMLID_18_" x="47" y="76.5" class="st1" width="16.3" height="3.3"/>
	<polygon id="XMLID_17_" class="st1" points="47,85.2 51.3,85.2 51.3,88 59.1,88 59.1,85.2 63.4,85.2 63.4,81.9 47,81.9 	"/>
	<path id="XMLID_14_" class="st1" d="M55.2,36.6c-10,0-18.2,8.1-18.2,18.2c0,6.9,3.9,13,9.6,16v2.9H63v-2.5
		c6.1-2.9,10.4-9.2,10.4-16.4C73.4,44.7,65.2,36.6,55.2,36.6z M54.8,65.3l-0.2-0.2l-0.2,0.2l-9.6-10.7l3.2-2.9l6.8,7.6l7.6-6.8
		l2.9,3.2L54.8,65.3z"/>
	<g id="XMLID_4_">
		<path id="XMLID_13_" class="st1" d="M55.2,32.9c1.8,0,3.2-1.4,3.2-3.2v-4.5c0-1.8-1.4-3.2-3.2-3.2c-1.8,0-3.2,1.4-3.2,3.2v4.5
			C52,31.4,53.4,32.9,55.2,32.9z"/>
		<path id="XMLID_12_" class="st1" d="M65.9,35.9c1.5,0.9,3.5,0.4,4.4-1.1l2.3-3.8c0.9-1.5,0.4-3.5-1.1-4.4
			c-1.5-0.9-3.5-0.4-4.4,1.1l-2.3,3.8C63.9,33.1,64.4,35,65.9,35.9z"/>
		<path id="XMLID_11_" class="st1" d="M77.9,45.4l3.9-2.1c1.5-0.8,2.1-2.8,1.3-4.3c-0.8-1.6-2.8-2.1-4.3-1.3l-3.9,2.1
			c-1.5,0.8-2.1,2.8-1.3,4.3C74.4,45.6,76.3,46.2,77.9,45.4z"/>
		<path id="XMLID_10_" class="st1" d="M83.7,52.1l-4.5-0.2C77.5,51.9,76,53.2,76,55c-0.1,1.8,1.3,3.2,3.1,3.3l4.5,0.2
			c1.8,0.1,3.2-1.3,3.3-3.1C86.9,53.6,85.5,52.2,83.7,52.1z"/>
		<path id="XMLID_9_" class="st1" d="M80.6,67.1l-3.7-2.4c-1.5-1-3.5-0.5-4.4,0.9c-1,1.5-0.5,3.5,0.9,4.4l3.8,2.4
			c1.5,1,3.5,0.5,4.4-0.9C82.5,70,82.1,68,80.6,67.1z"/>
		<path id="XMLID_8_" class="st1" d="M39.7,34.8c0.9,1.5,2.9,2,4.4,1.1c1.5-0.9,2-2.9,1.1-4.4l-2.3-3.8c-0.9-1.5-2.9-2-4.4-1.1
			c-1.5,0.9-2,2.9-1.1,4.4L39.7,34.8z"/>
		<path id="XMLID_7_" class="st1" d="M28.2,43.2l3.9,2.1c1.6,0.8,3.5,0.3,4.3-1.3c0.8-1.5,0.3-3.5-1.3-4.3l-3.9-2.1
			c-1.5-0.8-3.5-0.3-4.3,1.3C26.1,40.5,26.6,42.4,28.2,43.2z"/>
		<path id="XMLID_6_" class="st1" d="M34,55c-0.1-1.8-1.6-3.1-3.3-3.1l-4.5,0.2c-1.8,0.1-3.1,1.6-3.1,3.3c0.1,1.8,1.5,3.1,3.3,3.1
			l4.5-0.2C32.7,58.2,34.1,56.8,34,55z"/>
		<path id="XMLID_5_" class="st1" d="M33.1,64.6l-3.7,2.4c-1.5,1-1.9,2.9-0.9,4.4c1,1.5,2.9,1.9,4.4,0.9l3.8-2.4
			c1.5-1,1.9-2.9,0.9-4.4C36.6,64.1,34.6,63.7,33.1,64.6z"/>
	</g>
</g>
<g id="XMLID_2_">
</g>
<g id="XMLID_19_">
</g>
<g id="XMLID_20_">
</g>
<g id="XMLID_21_">
</g>
<g id="XMLID_22_">
</g>
<g id="XMLID_23_">
</g>
</svg>
