<?xml version="1.0" encoding="utf-8"?>
<!-- Generator: Adobe Illustrator 19.0.0, SVG Export Plug-In . SVG Version: 6.00 Build 0)  -->
<svg version="1.1" id="Layer_1" xmlns="http://www.w3.org/2000/svg" xmlns:xlink="http://www.w3.org/1999/xlink" x="0px" y="0px"
	 viewBox="0 0 40 25" style="enable-background:new 0 0 40 25;" xml:space="preserve">
<style type="text/css">
	.st0{fill-rule:evenodd;clip-rule:evenodd;fill:#FFFFFF;}
</style>
<g id="XMLID_1_">
	<path id="XMLID_52_" class="st0" d="M35.2,23.2L35.2,23.2V1.8C35.2,0.8,36,0,37,0l1,0c1,0,1.9,0.8,1.9,1.8v21.3
		c0,1-0.9,1.8-1.9,1.8h-1C36,25,35.2,24.1,35.2,23.2L35.2,23.2z"/>
	<path id="XMLID_50_" class="st0" d="M21.2,0.7l10.7,11.5c0.1,0.2,0.1,0.4,0,0.5L21.2,24.3c-0.1,0.1-0.4,0.1-0.5,0l-1.6-1.6l8.2-9.1
		H1.4c-0.7,0-1.3-0.6-1.3-1.3c0-0.8,0.6-1.4,1.3-1.4h25.7l-8-8.8l1.6-1.6C20.8,0.5,21.1,0.5,21.2,0.7L21.2,0.7z"/>
</g>
<g id="XMLID_2_">
</g>
<g id="XMLID_3_">
</g>
<g id="XMLID_4_">
</g>
<g id="XMLID_5_">
</g>
<g id="XMLID_6_">
</g>
<g id="XMLID_7_">
</g>
</svg>
