<?xml version="1.0" encoding="utf-8"?>
<!-- Generator: Adobe Illustrator 19.0.0, SVG Export Plug-In . SVG Version: 6.00 Build 0)  -->
<svg version="1.1" id="Layer_1" xmlns="http://www.w3.org/2000/svg" xmlns:xlink="http://www.w3.org/1999/xlink" x="0px" y="0px"
	 viewBox="-7 49 25 25" style="enable-background:new -7 49 25 25;" xml:space="preserve">
<style type="text/css">
	.st0{fill:#1B7FD0;}
	.st1{display:none;}
	.st2{display:inline;fill:#1D9000;}
	.st3{display:inline;fill:#86C724;}
	.st4{display:inline;fill:#FFFFFF;}
	.st5{display:inline;fill:#FEFEFE;}
</style>
<g id="Layer_7">
	<g id="XMLID_141_">
	</g>
	<path id="XMLID_296_" class="st0" d="M5.5,49C-1.4,49-7,54.6-7,61.5S-1.4,74,5.5,74S18,68.4,18,61.5S12.4,49,5.5,49z M4.2,52.5
		c0.3-0.3,0.8-0.4,1.4-0.4c0.5,0,0.9,0.2,1.2,0.5c0.3,0.3,0.5,0.8,0.5,1.4c0,0.7-0.3,1.2-0.9,1.6s-1.1,0.6-1.5,0.6S4.2,56,4,55.6
		c-0.2-0.4-0.3-0.9-0.3-1.5C3.7,53.3,3.9,52.8,4.2,52.5z M7.5,70.3c-0.5,0.4-1,0.5-1.6,0.5c-0.5,0-0.9-0.2-1.2-0.6
		c-0.3-0.4-0.5-0.9-0.5-1.5v-8.4c0-0.4-0.1-0.5-0.4-0.5c-0.4,0-0.9,0.3-1.7,1c0.1-0.4,0.5-0.9,1.2-1.5s1.3-0.9,1.9-0.9
		s1,0.2,1.2,0.7s0.4,1,0.4,1.6v8c0.1,0.5,0.3,0.8,0.6,0.8c0.2,0,0.5-0.1,0.8-0.4c0.3-0.2,0.5-0.4,0.6-0.5C8.4,69.4,7.9,70,7.5,70.3z
		"/>
</g>
<g id="Layer_5" class="st1">
	<circle id="XMLID_17_" class="st2" cx="-279.5" cy="470.4" r="17.5"/>
</g>
<g id="Layer_2" class="st1">
	<circle id="XMLID_20_" class="st2" cx="-279.5" cy="470.4" r="20"/>
	<path id="XMLID_18_" class="st3" d="M-266.4,455.3c3,3.5,4.9,8.1,4.9,13.1c0,11-9,20-20,20c-5,0-9.6-1.9-13.1-4.9
		c3.7,4.2,9.1,6.9,15.1,6.9c11,0,20-9,20-20C-259.5,464.4-262.2,459-266.4,455.3z"/>
	<path id="XMLID_94_" class="st4" d="M233,1127.4c-0.1,0.2-0.1,0.3-0.1,0.5c-2.4,9.5-2.7,11.6-5.2,16c-1.2,2.1-2.5,4.1-4,6
		c-0.2,0.2-0.3,0.5-0.7,0.4s-0.4-0.4-0.4-0.7c-0.4-2.9-0.6-5.8-0.5-8.7c0.1-3.8,0.6-5.1,5.5-25.7c0.1-0.3,0-0.6-0.1-0.9
		c-1.2-3.2-1.4-6.4-0.4-9.6c2.2-7,10.2-7.6,11.6-1.8c0.9,3.6-1.4,8.3-3.1,15.2c-1.4,5.7,5.3,9.8,11,5.6c5.3-3.8,7.4-13.1,7-19.6
		c-0.8-13-15.1-15.8-24.1-11.6c-10.4,4.8-12.7,17.7-8.1,23.6c0.6,0.7,1.1,1.2,0.9,2c-0.3,1.2-0.6,2.4-0.9,3.5
		c-0.2,0.9-1,1.2-1.9,0.8c-1.7-0.7-3.2-1.8-4.3-3.2c-4-4.9-5.1-14.7,0.1-22.9c5.8-9.2,16.7-12.9,26.6-11.7
		c11.8,1.3,19.3,9.4,20.7,18.6c0.6,4.2,0.2,14.5-5.7,21.8c-6.7,8.4-17.7,8.9-22.7,3.8C233.7,1128.3,233.4,1127.8,233,1127.4z"/>
</g>
<g id="Layer_6" class="st1">
	<path id="XMLID_16_" class="st4" d="M-281,473.9c0,0.1,0,0.1-0.1,0.2c-0.8,3.3-0.9,4-1.8,5.6c-0.4,0.7-0.9,1.4-1.4,2.1
		c-0.1,0.1-0.1,0.2-0.2,0.1c-0.1,0-0.1-0.1-0.2-0.2c-0.1-1-0.2-2-0.2-3c0-1.3,0.2-1.8,1.9-8.9c0-0.1,0-0.2,0-0.3
		c-0.4-1.1-0.5-2.2-0.1-3.4c0.8-2.4,3.5-2.6,4-0.6c0.3,1.2-0.5,2.9-1.1,5.3c-0.5,2,1.8,3.4,3.8,2c1.8-1.3,2.6-4.6,2.4-6.8
		c-0.3-4.5-5.2-5.5-8.4-4.1c-3.6,1.7-4.4,6.2-2.8,8.2c0.2,0.3,0.4,0.4,0.3,0.7c-0.1,0.4-0.2,0.8-0.3,1.2c-0.1,0.3-0.3,0.4-0.6,0.3
		c-0.6-0.2-1.1-0.6-1.5-1.1c-1.4-1.7-1.8-5.1,0.1-8c2-3.2,5.8-4.5,9.3-4.1c4.1,0.5,6.7,3.3,7.2,6.5c0.2,1.5,0.1,5-2,7.6
		c-2.4,2.9-6.2,3.1-7.9,1.3C-280.7,474.2-280.8,474.1-281,473.9z"/>
</g>
<g id="Layer_4" class="st1">
	<path id="XMLID_3_" class="st5" d="M-268.2,464.5c-0.8,0.4-1.7,0.6-2.6,0.7c1-0.6,1.7-1.5,2-2.5c-0.9,0.5-1.9,0.9-2.9,1.1
		c-0.8-0.9-2-1.4-3.4-1.4c-2.5,0-4.6,2-4.6,4.5c0,0.4,0,0.7,0.1,1c-3.8-0.2-7.2-2-9.5-4.8c-0.4,0.7-0.6,1.5-0.6,2.3
		c0,1.6,0.8,3,2.1,3.8c-0.8,0-1.5-0.2-2.1-0.6c0,0,0,0,0,0.1c0,0.6,0.1,1.1,0.3,1.7c0.6,1.4,1.8,2.5,3.4,2.8
		c-0.4,0.1-0.8,0.2-1.2,0.2c-0.3,0-0.6,0-0.9-0.1c0.6,1.8,2.3,3.1,4.3,3.2c-1.6,1.2-3.6,2-5.7,2c-0.4,0-0.7,0-1.1-0.1
		c2,1.3,4.5,2,7.1,2c7.2,0,11.7-5,12.8-10.2c0.2-0.9,0.3-1.8,0.3-2.8c0-0.2,0-0.4,0-0.6C-269.6,466.2-268.9,465.4-268.2,464.5
		L-268.2,464.5z"/>
</g>
<g id="Layer_3" class="st1">
	<path id="XMLID_1_" class="st5" d="M-277.9,466v-1.8c0-0.9,0.6-1.1,1-1.1s2.5,0,2.5,0v-3.8h-3.4c-3.8,0-4.6,2.8-4.6,4.6v2h-2.2v2.7
		v1.7h2.2c0,5,0,11,0,11h4.4c0,0,0-6.1,0-11h3.3l0.2-1.7l0.2-2.7L-277.9,466L-277.9,466z"/>
</g>
</svg>
