<?xml version="1.0" encoding="utf-8"?>
<!-- Generator: Adobe Illustrator 19.0.0, SVG Export Plug-In . SVG Version: 6.00 Build 0)  -->
<svg version="1.1" id="Layer_1" xmlns="http://www.w3.org/2000/svg" xmlns:xlink="http://www.w3.org/1999/xlink" x="0px" y="0px"
	 viewBox="-9 49 21 26" style="enable-background:new -9 49 21 26;" xml:space="preserve">
<style type="text/css">
	.st0{fill:#1B7FD0;}
</style>
<g id="XMLID_47_">
	<rect id="XMLID_6_" x="-3.8" y="57.7" class="st0" width="10.5" height="1.5"/>
	<rect id="XMLID_5_" x="-3.8" y="54.2" class="st0" width="10.5" height="1.5"/>
	<rect id="XMLID_4_" x="-3.8" y="61.2" class="st0" width="10.5" height="1.5"/>
	<path id="XMLID_48_" class="st0" d="M11.2,49H-8.2c-0.3,0-0.5,0.2-0.5,0.5V68c0,0.1,0,0.1,0,0.2c0,2.5,1.9,4.6,4.3,4.9l0,0L10.7,75
		c0.6,0,1-0.5,1-1V49.5C11.7,49.2,11.5,49,11.2,49L11.2,49z M9.4,72.2l-10.5-6.1c-0.2-0.2-0.4,0-0.4,0.2v1.8l0,0v0.1
		c0,1.4-1.1,2.5-2.5,2.5s-2.5-1-2.5-2.4c0,0,0-0.1,0-0.2V51H9.4V72.2z"/>
</g>
<g id="XMLID_46_">
</g>
<g id="XMLID_49_">
</g>
<g id="XMLID_50_">
</g>
<g id="XMLID_51_">
</g>
<g id="XMLID_52_">
</g>
<g id="XMLID_53_">
</g>
</svg>
