<?xml version="1.0" encoding="utf-8"?>
<!-- Generator: Adobe Illustrator 19.0.0, SVG Export Plug-In . SVG Version: 6.00 Build 0)  -->
<svg version="1.1" id="Layer_1" xmlns="http://www.w3.org/2000/svg" xmlns:xlink="http://www.w3.org/1999/xlink" x="0px" y="0px"
	 viewBox="0 0 28 35" style="enable-background:new 0 0 28 35;" xml:space="preserve">
<style type="text/css">
	.st0{fill-rule:evenodd;clip-rule:evenodd;fill:#1B7FD0;}
</style>
<path id="XMLID_94_" class="st0" d="M11.8,22.8c0,0.1-0.1,0.2-0.1,0.3c-1.3,5-1.4,6.2-2.7,8.5c-0.6,1.1-1.3,2.2-2.1,3.2
	C6.7,34.9,6.7,35,6.5,35c-0.2,0-0.2-0.2-0.2-0.4C6,33.1,5.9,31.6,6,30c0.1-2,0.3-2.7,2.9-13.6c0-0.2,0-0.3-0.1-0.5
	c-0.6-1.7-0.7-3.4-0.2-5.1c1.2-3.7,5.4-4,6.1-0.9c0.5,1.9-0.7,4.4-1.7,8.1c-0.8,3,2.8,5.2,5.9,3c2.8-2,3.9-6.9,3.7-10.4
	c-0.4-6.9-8-8.4-12.8-6.2c-5.5,2.5-6.8,9.4-4.3,12.5c0.3,0.4,0.6,0.6,0.5,1c-0.2,0.6-0.3,1.3-0.5,1.9c-0.1,0.5-0.5,0.6-1,0.4
	c-0.9-0.4-1.7-1-2.3-1.7c-2.1-2.6-2.7-7.8,0.1-12.2c3.1-4.9,8.9-6.8,14.1-6.2c6.3,0.7,10.2,5,11,9.9c0.3,2.2,0.1,7.7-3,11.5
	c-3.6,4.4-9.4,4.7-12.1,2C12.1,23.3,12,23.1,11.8,22.8z"/>
<g id="XMLID_92_">
</g>
<g id="XMLID_93_">
</g>
<g id="XMLID_95_">
</g>
<g id="XMLID_96_">
</g>
<g id="XMLID_97_">
</g>
<g id="XMLID_98_">
</g>
</svg>
