<?xml version="1.0" encoding="utf-8"?>
<!-- Generator: Adobe Illustrator 19.0.0, SVG Export Plug-In . SVG Version: 6.00 Build 0)  -->
<svg version="1.1" id="Layer_1" xmlns="http://www.w3.org/2000/svg" xmlns:xlink="http://www.w3.org/1999/xlink" x="0px" y="0px"
	 viewBox="-8 50 23 23" style="enable-background:new -8 50 23 23;" xml:space="preserve">
<style type="text/css">
	.st0{fill:#1B7FD0;}
	.st1{display:none;}
	.st2{display:inline;fill:#1D9000;}
	.st3{display:inline;fill:#86C724;}
	.st4{display:inline;fill:#FFFFFF;}
	.st5{display:inline;fill:#FEFEFE;}
</style>
<g id="Layer_7">
	<g id="XMLID_141_">
	</g>
	<path id="XMLID_380_" class="st0" d="M-5.9,51.5l-1.2,4.1c-0.1,0.5,0,1,0.3,1.4l0,0c0.3,0.4,0.8,0.6,1.3,0.5l4.3-0.4
		c0.7,0,1.2-0.6,1.1-1.3c-0.1-0.6-0.6-1.1-1.2-1.1c3.5-2.2,8.2-1.6,10.9,1.7c2.9,3.5,2.4,8.7-1.1,11.6s-8.7,2.4-11.7-1.1
		c-0.6-0.7-1.6-0.8-2.2-0.2c-0.7,0.5-0.8,1.5-0.2,2.2c4.1,4.9,11.3,5.6,16.2,1.5c4.9-4,5.6-11.3,1.5-16.2
		c-3.9-4.7-10.7-5.5-15.5-2.1l0,0c0.1-0.4,0-0.8-0.2-1.1c-0.1-0.2-0.3-0.3-0.6-0.4C-5,50.5-5.7,50.9-5.9,51.5L-5.9,51.5z"/>
</g>
<g id="Layer_5" class="st1">
	<circle id="XMLID_17_" class="st2" cx="-282.5" cy="471.4" r="17.5"/>
</g>
<g id="Layer_2" class="st1">
	<circle id="XMLID_20_" class="st2" cx="-282.5" cy="471.4" r="20"/>
	<path id="XMLID_18_" class="st3" d="M-269.4,456.3c3,3.5,4.9,8.1,4.9,13.1c0,11-9,20-20,20c-5,0-9.6-1.9-13.1-4.9
		c3.7,4.2,9.1,6.9,15.1,6.9c11,0,20-9,20-20C-262.5,465.4-265.2,460-269.4,456.3z"/>
	<path id="XMLID_94_" class="st4" d="M230,1128.4c-0.1,0.2-0.1,0.3-0.1,0.5c-2.4,9.5-2.7,11.6-5.2,16c-1.2,2.1-2.5,4.1-4,6
		c-0.2,0.2-0.3,0.5-0.7,0.4s-0.4-0.4-0.4-0.7c-0.4-2.9-0.6-5.8-0.5-8.7c0.1-3.8,0.6-5.1,5.5-25.7c0.1-0.3,0-0.6-0.1-0.9
		c-1.2-3.2-1.4-6.4-0.4-9.6c2.2-7,10.2-7.6,11.6-1.8c0.9,3.6-1.4,8.3-3.1,15.2c-1.4,5.7,5.3,9.8,11,5.6c5.3-3.8,7.4-13.1,7-19.6
		c-0.8-13-15.1-15.8-24.1-11.6c-10.4,4.8-12.7,17.7-8.1,23.6c0.6,0.7,1.1,1.2,0.9,2c-0.3,1.2-0.6,2.4-0.9,3.5
		c-0.2,0.9-1,1.2-1.9,0.8c-1.7-0.7-3.2-1.8-4.3-3.2c-4-4.9-5.1-14.7,0.1-22.9c5.8-9.2,16.7-12.9,26.6-11.7
		c11.8,1.3,19.3,9.4,20.7,18.6c0.6,4.2,0.2,14.5-5.7,21.8c-6.7,8.4-17.7,8.9-22.7,3.8C230.7,1129.3,230.4,1128.8,230,1128.4z"/>
</g>
<g id="Layer_6" class="st1">
	<path id="XMLID_16_" class="st4" d="M-284,474.9c0,0.1,0,0.1-0.1,0.2c-0.8,3.3-0.9,4-1.8,5.6c-0.4,0.7-0.9,1.4-1.4,2.1
		c-0.1,0.1-0.1,0.2-0.2,0.1c-0.1,0-0.1-0.1-0.2-0.2c-0.1-1-0.2-2-0.2-3c0-1.3,0.2-1.8,1.9-8.9c0-0.1,0-0.2,0-0.3
		c-0.4-1.1-0.5-2.2-0.1-3.4c0.8-2.4,3.5-2.6,4-0.6c0.3,1.2-0.5,2.9-1.1,5.3c-0.5,2,1.8,3.4,3.8,2c1.8-1.3,2.6-4.6,2.4-6.8
		c-0.3-4.5-5.2-5.5-8.4-4.1c-3.6,1.7-4.4,6.2-2.8,8.2c0.2,0.3,0.4,0.4,0.3,0.7c-0.1,0.4-0.2,0.8-0.3,1.2c-0.1,0.3-0.3,0.4-0.6,0.3
		c-0.6-0.2-1.1-0.6-1.5-1.1c-1.4-1.7-1.8-5.1,0.1-8c2-3.2,5.8-4.5,9.3-4.1c4.1,0.5,6.7,3.3,7.2,6.5c0.2,1.5,0.1,5-2,7.6
		c-2.4,2.9-6.2,3.1-7.9,1.3C-283.7,475.2-283.8,475.1-284,474.9z"/>
</g>
<g id="Layer_4" class="st1">
	<path id="XMLID_3_" class="st5" d="M-271.2,465.5c-0.8,0.4-1.7,0.6-2.6,0.7c1-0.6,1.7-1.5,2-2.5c-0.9,0.5-1.9,0.9-2.9,1.1
		c-0.8-0.9-2-1.4-3.4-1.4c-2.5,0-4.6,2-4.6,4.5c0,0.4,0,0.7,0.1,1c-3.8-0.2-7.2-2-9.5-4.8c-0.4,0.7-0.6,1.5-0.6,2.3
		c0,1.6,0.8,3,2.1,3.8c-0.8,0-1.5-0.2-2.1-0.6c0,0,0,0,0,0.1c0,0.6,0.1,1.1,0.3,1.7c0.6,1.4,1.8,2.5,3.4,2.8
		c-0.4,0.1-0.8,0.2-1.2,0.2c-0.3,0-0.6,0-0.9-0.1c0.6,1.8,2.3,3.1,4.3,3.2c-1.6,1.2-3.6,2-5.7,2c-0.4,0-0.7,0-1.1-0.1
		c2,1.3,4.5,2,7.1,2c7.2,0,11.7-5,12.8-10.2c0.2-0.9,0.3-1.8,0.3-2.8c0-0.2,0-0.4,0-0.6C-272.6,467.2-271.9,466.4-271.2,465.5
		L-271.2,465.5z"/>
</g>
<g id="Layer_3" class="st1">
	<path id="XMLID_1_" class="st5" d="M-280.9,467v-1.8c0-0.9,0.6-1.1,1-1.1s2.5,0,2.5,0v-3.8h-3.4c-3.8,0-4.6,2.8-4.6,4.6v2h-2.2v2.7
		v1.7h2.2c0,5,0,11,0,11h4.4c0,0,0-6.1,0-11h3.3l0.2-1.7l0.2-2.7L-280.9,467L-280.9,467z"/>
</g>
</svg>
