<?xml version="1.0" encoding="utf-8"?>
<!-- Generator: Adobe Illustrator 19.0.0, SVG Export Plug-In . SVG Version: 6.00 Build 0)  -->
<svg version="1.1" id="Layer_1" xmlns="http://www.w3.org/2000/svg" xmlns:xlink="http://www.w3.org/1999/xlink" x="0px" y="0px"
	 viewBox="0 0 38 30" style="enable-background:new 0 0 38 30;" xml:space="preserve">
<style type="text/css">
	.st0{fill-rule:evenodd;clip-rule:evenodd;fill:#013056;}
</style>
<path id="XMLID_1_" class="st0" d="M37.8,3.5c-1.4,0.6-2.9,1-4.4,1.2c1.6-0.9,2.8-2.4,3.4-4.2c-1.5,0.9-3.1,1.5-4.9,1.8
	C30.4,0.9,28.4,0,26.2,0c-4.2,0-7.7,3.4-7.7,7.6c0,0.6,0.1,1.2,0.2,1.7C12.3,9,6.7,6,2.9,1.4c-0.7,1.1-1,2.4-1,3.8
	c0,2.6,1.4,5,3.4,6.3c-1.3,0-2.5-0.4-3.5-0.9c0,0,0,0.1,0,0.1c0,1,0.2,1.9,0.5,2.8c0.9,2.4,3.1,4.2,5.7,4.7c-0.7,0.2-1.3,0.3-2,0.3
	c-0.5,0-1,0-1.4-0.1c1,3,3.8,5.2,7.2,5.3c-2.6,2-5.9,3.3-9.6,3.3c-0.6,0-1.2,0-1.8-0.1C3.7,28.7,7.7,30,12.1,30
	c12,0,19.4-8.3,21.4-17c0.4-1.5,0.5-3.1,0.5-4.6c0-0.3,0-0.7,0-1C35.4,6.4,36.7,5.1,37.8,3.5L37.8,3.5z"/>
<g id="XMLID_67_">
</g>
<g id="XMLID_68_">
</g>
<g id="XMLID_69_">
</g>
<g id="XMLID_70_">
</g>
<g id="XMLID_71_">
</g>
<g id="XMLID_72_">
</g>
</svg>
