<?xml version="1.0" encoding="utf-8"?>
<!-- Generator: Adobe Illustrator 19.0.0, SVG Export Plug-In . SVG Version: 6.00 Build 0)  -->
<svg version="1.1" id="Layer_1" xmlns="http://www.w3.org/2000/svg" xmlns:xlink="http://www.w3.org/1999/xlink" x="0px" y="0px"
	 viewBox="0 0 116 125" style="enable-background:new 0 0 116 125;" xml:space="preserve">
<style type="text/css">
	.st0{fill:none;stroke:#1B7FD0;stroke-width:1.1326;stroke-miterlimit:10;}
	.st1{fill:#1B7FD0;}
	.st2{fill:#FFFFFF;}
</style>
<g id="XMLID_1_">
	<path id="XMLID_16_" class="st0" d="M104.4,17.3C96.7,15.6,72.9,0.6,57.9,1.5c-15-0.9-38.7,14-46.4,15.7c-5.3,1.2-10,0.1-10,0.1
		c5.8,11.5,6.4,63.5,6.4,63.5C9.5,103,58,123.5,58,123.5c0,0,48.5-20.5,50.1-42.6c0,0,0.6-52,6.4-63.5
		C114.4,17.4,109.8,18.5,104.4,17.3z"/>
	<path id="XMLID_5_" class="st1" d="M106.8,23.5c-5,10-5.5,55-5.5,55C100,97.5,58,115.3,58,115.3c0,0-42-17.8-43.3-36.8
		c0,0-0.5-45-5.5-55c0,0,4,0.9,8.7-0.1C24.5,21.9,45,9,58,9.8c13-0.8,33.6,12.1,40.2,13.6C102.8,24.4,106.8,23.5,106.8,23.5z"/>
	<g id="XMLID_7_">
		<path id="XMLID_68_" class="st2" d="M34.8,78l8-26.4h8.1L38.6,86.7H31L18.8,51.6h8L34.8,78z"/>
		<path id="XMLID_70_" class="st2" d="M61.8,86.7h-7.2V51.6h7.2V86.7z"/>
		<path id="XMLID_72_" class="st2" d="M75.7,74.3v12.4h-7.2V51.6h13.7c2.6,0,5,0.5,7,1.4c2,1,3.5,2.3,4.6,4.1s1.6,3.8,1.6,6.1
			c0,3.4-1.2,6.2-3.5,8.1c-2.4,2-5.6,3-9.8,3H75.7z M75.7,68.5h6.5c1.9,0,3.4-0.5,4.4-1.4s1.5-2.2,1.5-3.9c0-1.7-0.5-3.1-1.5-4.2
			s-2.4-1.6-4.2-1.6h-6.6V68.5z"/>
	</g>
	<path id="XMLID_6_" class="st2" d="M71.4,31c-2.4-1.7-2.7,0.9-2.7,0.9C67.5,33,68.2,34,68.2,34c0.2-1.2,1.9-0.6,1.9-0.6
		C70,37,66.7,37.7,65,37.6c-1.7-0.1-0.3-3.2-0.3-3.2c-0.7,0.4-1.6,2.5-3.4,2c-1.8-0.5-1.4-5.8-1.2-6.8c0.2-0.9,0.5-1.9,1.8-1.9
		c1.3,0,0.4,2,0.4,2c2.5,0.5,1.6-2.4,1.6-2.4c-1.3-3.2-3.7-0.4-4.1,0.4c-0.4,0.8-0.7,0-0.7,0c0.1-2.7,2.3-3.6,2.3-3.6
		c-0.4-1.2-2.8,0-2.8,0v-1.2c1.4-0.4,0.8-1.2,0.8-1.2c-0.8-0.9-1.3-4.4-1.3-4.4s-0.6,3.5-1.3,4.4c0,0-0.6,0.8,0.8,1.2v1.2
		c0,0-2.4-1.2-2.8,0c0,0,2.1,0.9,2.3,3.6c0,0-0.3,0.8-0.7,0c-0.4-0.8-2.7-3.7-4.1-0.4c0,0-1,2.9,1.6,2.4c0,0-1-2,0.4-2
		c1.3,0,1.6,0.9,1.8,1.9c0.2,0.9,0.6,6.2-1.2,6.8c-1.8,0.5-2.7-1.6-3.4-2c0,0,1.3,3.1-0.3,3.2c-1.7,0.1-5-0.6-5.1-4.2
		c0,0,1.7-0.6,1.9,0.6c0,0,0.7-1.1-0.4-2.1c0,0-0.3-2.6-2.7-0.9c0,0-2.2-2.7-5.4-1.8c0,0,6.3,4.7,8.5,9.8c0,0,4.7,2,10.2,1.8
		C63.4,41,68.2,39,68.2,39c2.3-5.2,8.5-9.8,8.5-9.8C73.6,28.3,71.4,31,71.4,31z"/>
</g>
<g id="XMLID_67_">
</g>
<g id="XMLID_75_">
</g>
<g id="XMLID_76_">
</g>
<g id="XMLID_77_">
</g>
<g id="XMLID_78_">
</g>
<g id="XMLID_79_">
</g>
</svg>
