<?xml version="1.0" encoding="utf-8"?>
<!-- Generator: Adobe Illustrator 19.0.0, SVG Export Plug-In . SVG Version: 6.00 Build 0)  -->
<svg version="1.1" id="Layer_1" xmlns="http://www.w3.org/2000/svg" xmlns:xlink="http://www.w3.org/1999/xlink" x="0px" y="0px"
	 viewBox="-5 -5 120 120" style="enable-background:new -5 -5 120 120;" xml:space="preserve">
<style type="text/css">
	.st0{fill:#CADDEA;}
	.st1{fill-rule:evenodd;clip-rule:evenodd;fill:#1B7FD0;}
	.st2{fill:#1B7FD0;}
</style>
<circle id="XMLID_1_" class="st0" cx="55" cy="55" r="60"/>
<g id="XMLID_19_">
</g>
<g id="XMLID_20_">
</g>
<g id="XMLID_22_">
</g>
<g id="XMLID_23_">
</g>
<g id="XMLID_24_">
</g>
<g id="XMLID_25_">
</g>
<g>
	<g>
		<polygon class="st1" points="18.5,40 30.6,31.2 54,64.4 48.7,68.2 36.4,49.7 33.6,51.1 46.6,70.1 41.9,73.9 		"/>
		<path class="st1" d="M56.4,83.8c0.5,0.3,1.2,0.2,1.6-0.3c0.5-0.4,0.7-1.1,0.5-1.8l-3.2-14.9L43,76.3L56.4,83.8z"/>
		<path class="st1" d="M15.4,32.1l9-6.1c0.8-0.8,2-0.6,2.6,0.3l2.1,3L17,38.1l-2-2.9C14.3,34.3,14.5,32.9,15.4,32.1L15.4,32.1z"/>
	</g>
	<polygon class="st2" points="73.1,92.5 74.3,92.5 91.4,75.4 91.4,74.2 73.1,74.2 	"/>
	<path class="st2" d="M43.4,25.5v17.8l13.7,19.2l4.4,15.9c0.3,0.9,0.5,6-1.3,7.3c-1.3,1.6-8-0.2-8.6-0.6l-8.2-4.9v12.2h26.3V70.8
		h21.7V25.5H43.4z"/>
</g>
</svg>
