<?xml version="1.0" encoding="utf-8"?>
<!-- Generator: Adobe Illustrator 19.0.0, SVG Export Plug-In . SVG Version: 6.00 Build 0)  -->
<svg version="1.1" id="Layer_1" xmlns="http://www.w3.org/2000/svg" xmlns:xlink="http://www.w3.org/1999/xlink" x="0px" y="0px"
	 viewBox="-5 -5 120 120" style="enable-background:new -5 -5 120 120;" xml:space="preserve">
<style type="text/css">
	.st0{fill:#CADDEA;}
	.st1{fill:#1B7FD0;}
</style>
<circle id="XMLID_1_" class="st0" cx="55" cy="55" r="60"/>
<g id="XMLID_19_">
</g>
<g id="XMLID_20_">
</g>
<g id="XMLID_22_">
</g>
<g id="XMLID_23_">
</g>
<g id="XMLID_24_">
</g>
<g id="XMLID_25_">
</g>
<g>
	<g>
		<path class="st1" d="M39.4,17c11.1,0,20.5,4.6,20.8,10.1c-0.3,5.5-9.7,10.1-20.8,10.1s-20.5-4.6-20.8-10.1
			C18.9,21.6,28.3,17,39.4,17z"/>
		<path class="st1" d="M60.3,57c0,5.6-9.5,10.4-20.8,10.4c-11.3,0-20.8-4.7-20.8-10.4v-4.9c3.6,4.3,11.5,7.2,20.8,7.2
			c9.4,0,17.3-2.9,20.8-7.2V57z"/>
		<path class="st1" d="M60.3,46.9c0,5.6-9.5,10.4-20.8,10.4c-11.3,0-20.8-4.7-20.8-10.4v-5.2c3.6,4.3,11.5,7.2,20.8,7.2
			c9.4,0,17.3-2.9,20.8-7.2V46.9z"/>
		<path class="st1" d="M60.3,36.5c0,5.6-9.5,10.4-20.8,10.4c-11.3,0-20.8-4.7-20.8-10.4V32c3.6,4.3,11.5,7.2,20.8,7.2
			c9.4,0,17.3-2.9,20.8-7.2V36.5z"/>
	</g>
	<rect x="25.1" y="48.9" class="st1" width="70.3" height="39.1"/>
	<g>
		<path class="st0" d="M60.2,58.3c-5.6,0-10.1,4.5-10.1,10.1c0,5.6,4.5,10.1,10.1,10.1c5.6,0,10.1-4.5,10.1-10.1
			C70.3,62.9,65.8,58.3,60.2,58.3z M60.8,73.9v1.9h-1.1l0-1.8c-1,0-2.1-0.3-2.7-0.8l0.4-1.2c0.6,0.4,1.6,0.8,2.6,0.8
			c1.3,0,2-0.7,2-1.8c0-1-0.6-1.6-1.9-2.1c-1.8-0.7-3-1.6-3-3.1c0-1.5,1.1-2.6,2.7-2.9v-1.8h1.1l0,1.7c1.1,0,1.8,0.3,2.3,0.6
			l-0.5,1.2c-0.4-0.2-1.1-0.6-2.3-0.6c-1.4,0-1.8,0.8-1.8,1.6c0,0.9,0.6,1.4,2.1,2.1c1.9,0.8,2.8,1.7,2.8,3.3
			C63.6,72.3,62.6,73.7,60.8,73.9z"/>
		<path class="st0" d="M26.6,50.4v36h67.2v-36H26.6z M91,75.2c-2.8-1.6-6.3-1.2-8.7,1.2c-1.4,1.4-2.1,3.2-2.1,5.1
			c0,1.2,0.3,2.4,0.9,3.4H39.2c0.6-1,0.9-2.2,0.9-3.4c0-1.9-0.8-3.7-2.1-5.1c-2.3-2.3-5.8-2.7-8.5-1.2V61.9c1.1,0.6,2.3,0.9,3.5,0.9
			c1.9,0,3.7-0.7,5.1-2.1c1.4-1.4,2.1-3.2,2.1-5.1c0-1.3-0.4-2.5-1-3.5h42c-0.6,1.1-1,2.3-1,3.5c0,1.9,0.8,3.7,2.1,5.1
			c1.4,1.4,3.3,2.1,5.1,2.1c1.2,0,2.4-0.3,3.5-0.9V75.2z"/>
	</g>
</g>
</svg>
