<?xml version="1.0" encoding="utf-8"?>
<!-- Generator: Adobe Illustrator 19.0.0, SVG Export Plug-In . SVG Version: 6.00 Build 0)  -->
<svg version="1.1" id="Layer_1" xmlns="http://www.w3.org/2000/svg" xmlns:xlink="http://www.w3.org/1999/xlink" x="0px" y="0px"
	 viewBox="-5 -5 120 120" style="enable-background:new -5 -5 120 120;" xml:space="preserve">
<style type="text/css">
	.st0{fill:#CADDEA;}
	.st1{fill:#1B7FD0;}
</style>
<circle id="XMLID_1_" class="st0" cx="55" cy="55" r="60"/>
<g id="XMLID_19_">
</g>
<g id="XMLID_20_">
</g>
<g id="XMLID_22_">
</g>
<g id="XMLID_23_">
</g>
<g id="XMLID_24_">
</g>
<g id="XMLID_25_">
</g>
<g>
	<path class="st1" d="M63.9,26.9c0-4.9-4-8.9-8.9-8.9c-4.9,0-8.9,4-8.9,8.9h-8.9v8.9h35.5v-8.9H63.9z M55,31.3c-2.5,0-4.4-2-4.4-4.4
		c0-2.4,2-4.4,4.4-4.4c2.5,0,4.4,2,4.4,4.4C59.4,29.3,57.5,31.3,55,31.3z"/>
	<path class="st1" d="M77.2,26.9v13.3H32.8V26.9h-8.9V89h62.1V26.9H77.2z M52.9,79.5l-3.1-3.1L37.3,63.8l6.3-6.3l9.4,9.4l17.9-17.9
		l6.3,6.3L52.9,79.5z"/>
</g>
</svg>
