<?xml version="1.0" encoding="utf-8"?>
<!-- Generator: Adobe Illustrator 19.0.0, SVG Export Plug-In . SVG Version: 6.00 Build 0)  -->
<svg version="1.1" id="Layer_1" xmlns="http://www.w3.org/2000/svg" xmlns:xlink="http://www.w3.org/1999/xlink" x="0px" y="0px"
	 viewBox="-5 -5 120 120" style="enable-background:new -5 -5 120 120;" xml:space="preserve">
<style type="text/css">
	.st0{fill:#CADDEA;}
	.st1{fill:#1B7FD0;}
</style>
<circle id="XMLID_1_" class="st0" cx="55" cy="55" r="60"/>
<g id="XMLID_19_">
</g>
<g id="XMLID_20_">
</g>
<g id="XMLID_22_">
</g>
<g id="XMLID_23_">
</g>
<g id="XMLID_24_">
</g>
<g id="XMLID_25_">
</g>
<g>
	<path class="st1" d="M65.9,33.5v8.7h-9.1v-8.7h-7.9v8.7h-9.1v-8.7H18.4V84h73.2V33.5H65.9z M39.1,49.7c3.5,0,6.3,2.8,6.3,6.3
		c0,3.5-2.8,6.3-6.3,6.3c-3.5,0-6.3-2.8-6.3-6.3C32.8,52.5,35.6,49.7,39.1,49.7z M53.3,69.8c0,2.5-2.2,4.4-4.8,4.4H29.7
		c-2.7,0-4.8-2-4.8-4.4v-0.9c0-2.5,5.4-5.9,8-5.9h2c1.1,1,2.6,1.6,4.2,1.6c1.6,0,3.1-0.6,4.2-1.6h2c2.7,0,8,3.5,8,5.9V69.8z
		 M86.5,74.2H61.1v-4.7h25.3V74.2z M86.5,66.3H61.1v-4.7h25.3V66.3z M86.5,58.4H61.1v-4.7h25.3V58.4z M86.5,50.5H61.1v-4.7h25.3
		V50.5z"/>
	<rect x="41" y="26" class="st1" width="5.9" height="13"/>
	<rect x="58.7" y="26" class="st1" width="5.9" height="13"/>
</g>
</svg>
